%
M48
M72
T01C0.0240
T02C0.0350
T03C0.0354
T04C0.0400
T05C0.0550
T06C0.1000
%
T01
X4685Y6431
X5185Y7971
X4365Y8991
X3805Y9151
X3485Y9631
X3505Y10411
X4525Y10771
X4775Y11751
X3919Y13076
X3285Y12731
X3735Y14051
X3855Y15501
X2885Y16731
X2785Y17581
X1785Y17281
X1185Y18181
X2285Y13781
X2375Y10931
X1535Y10631
X3185Y7431
X5785Y11891
X6385Y12181
X7485Y10631
X8687Y10339
X8585Y9731
X7685Y8731
X10135Y10831
X9685Y12531
X9285Y12931
X8885Y13331
X8095Y13781
X6535Y14231
X5685Y14031
X5935Y15031
X4585Y17381
X5565Y17851
X8085Y16381
X8735Y17531
X9485Y16781
X9085Y15181
X10135Y13631
X11485Y16481
X13685Y18181
X14285Y17281
X15285Y17581
X15385Y16731
X16355Y15501
X16235Y14051
X16419Y13076
X15785Y12731
X14785Y13781
X14875Y10931
X14035Y10631
X16005Y10411
X15985Y9631
X16305Y9151
X16865Y8991
X17685Y7971
X17185Y6431
X15685Y7431
X17025Y10771
X17275Y11751
X18285Y11891
X18885Y12181
X19985Y10631
X21187Y10339
X21085Y9731
X20185Y8731
X22635Y10831
X22185Y12531
X21785Y12931
X21385Y13331
X20595Y13781
X19035Y14231
X18435Y15031
X18185Y14031
X20585Y16381
X21235Y17531
X21985Y16781
X21585Y15181
X22635Y13631
X23985Y16481
X26185Y18181
X26785Y17281
X27785Y17581
X27885Y16731
X28855Y15501
X28735Y14051
X28919Y13076
X28285Y12731
X27285Y13781
X27375Y10931
X26535Y10631
X28505Y10411
X28485Y9631
X28805Y9151
X29365Y8991
X30185Y7971
X29685Y6431
X28185Y7431
X29525Y10771
X29775Y11751
X30785Y11891
X31385Y12181
X32485Y10631
X33687Y10339
X33585Y9731
X32685Y8731
X35135Y10831
X34685Y12531
X34285Y12931
X33885Y13331
X33095Y13781
X31535Y14231
X30935Y15031
X30685Y14031
X33085Y16381
X33735Y17531
X34485Y16781
X34085Y15181
X35135Y13631
X36485Y16481
X38685Y18181
X39285Y17281
X40285Y17581
X40385Y16731
X41355Y15501
X41235Y14051
X41419Y13076
X40785Y12731
X39785Y13781
X39875Y10931
X39035Y10631
X41005Y10411
X40985Y9631
X41305Y9151
X41865Y8991
X42685Y7971
X42185Y6431
X40685Y7431
X42025Y10771
X42275Y11751
X43285Y11891
X43885Y12181
X44985Y10631
X46187Y10339
X46085Y9731
X45185Y8731
X47635Y10831
X47185Y12531
X46785Y12931
X46385Y13331
X45595Y13781
X44035Y14231
X43435Y15031
X43185Y14031
X45585Y16381
X46235Y17531
X46985Y16781
X46585Y15181
X47635Y13631
X48985Y16481
X51185Y18181
X51785Y17281
X52785Y17581
X52885Y16731
X53855Y15501
X53735Y14051
X53919Y13076
X53285Y12731
X52285Y13781
X52375Y10931
X51535Y10631
X53505Y10411
X53485Y9631
X53805Y9151
X54365Y8991
X55185Y7971
X54685Y6431
X53185Y7431
X54525Y10771
X54775Y11751
X55785Y11891
X56385Y12181
X57485Y10631
X58687Y10339
X58585Y9731
X57685Y8731
X60135Y10831
X59685Y12531
X59285Y12931
X58885Y13331
X58095Y13781
X59085Y15181
X58085Y16381
X58735Y17531
X59485Y16781
X61485Y16481
X60135Y13631
X56535Y14231
X55685Y14031
X55935Y15031
X54585Y17381
X55565Y17851
X60985Y27181
X57685Y30731
X58585Y31731
X58687Y32339
X57485Y32631
X56385Y34181
X55785Y33891
X54775Y33751
X54525Y32771
X53505Y32411
X53485Y31631
X53805Y31151
X54365Y30991
X55185Y29971
X54685Y28431
X53185Y29431
X52375Y32931
X51535Y32631
X53285Y34731
X53919Y35076
X53735Y36051
X53855Y37501
X52885Y38731
X52785Y39581
X51785Y39281
X51185Y40181
X48985Y38481
X46985Y38781
X46235Y39531
X45585Y38381
X46585Y37181
X45595Y35781
X46385Y35331
X46785Y34931
X47185Y34531
X47635Y35631
X47635Y32831
X46187Y32339
X46085Y31731
X45185Y30731
X44985Y32631
X43885Y34181
X43285Y33891
X42275Y33751
X42025Y32771
X41005Y32411
X40985Y31631
X41305Y31151
X41865Y30991
X42685Y29971
X42185Y28431
X40685Y29431
X39875Y32931
X39035Y32631
X40785Y34731
X41419Y35076
X41235Y36051
X41355Y37501
X40385Y38731
X40285Y39581
X39285Y39281
X38685Y40181
X36485Y38481
X35135Y35631
X34285Y34931
X34685Y34531
X33885Y35331
X33095Y35781
X31535Y36231
X30935Y37031
X30685Y36031
X28735Y36051
X28855Y37501
X27885Y38731
X27785Y39581
X26785Y39281
X26185Y40181
X23985Y38481
X22635Y35631
X22185Y34531
X21785Y34931
X21385Y35331
X20595Y35781
X19035Y36231
X18435Y37031
X18185Y36031
X16419Y35076
X15785Y34731
X16235Y36051
X16355Y37501
X15385Y38731
X15285Y39581
X14285Y39281
X13685Y40181
X11485Y38481
X9485Y38781
X8735Y39531
X8085Y38381
X9085Y37181
X8095Y35781
X8885Y35331
X9285Y34931
X9685Y34531
X10135Y35631
X10135Y32831
X8687Y32339
X8585Y31731
X7685Y30731
X7485Y32631
X6385Y34181
X5785Y33891
X4775Y33751
X4525Y32771
X3505Y32411
X3485Y31631
X3805Y31151
X4365Y30991
X5185Y29971
X4685Y28431
X3185Y29431
X2375Y32931
X1535Y32631
X3285Y34731
X3919Y35076
X3735Y36051
X3855Y37501
X2885Y38731
X2785Y39581
X1785Y39281
X1185Y40181
X2285Y35781
X4585Y39381
X5565Y39851
X5935Y37031
X6535Y36231
X5685Y36031
X10985Y27181
X15685Y29431
X16305Y31151
X15985Y31631
X16005Y32411
X16865Y30991
X17685Y29971
X17185Y28431
X20185Y30731
X21085Y31731
X21187Y32339
X19985Y32631
X18885Y34181
X18285Y33891
X17275Y33751
X17025Y32771
X14875Y32931
X14035Y32631
X14785Y35781
X17085Y39381
X18065Y39851
X20585Y38381
X21235Y39531
X21985Y38781
X21585Y37181
X22635Y32831
X26535Y32631
X27375Y32931
X28505Y32411
X28485Y31631
X28805Y31151
X29365Y30991
X30185Y29971
X29685Y28431
X28185Y29431
X29525Y32771
X29775Y33751
X30785Y33891
X31385Y34181
X32485Y32631
X33687Y32339
X33585Y31731
X32685Y30731
X35135Y32831
X34085Y37181
X33085Y38381
X33735Y39531
X34485Y38781
X30565Y39851
X29585Y39381
X27285Y35781
X28285Y34731
X28919Y35076
X23485Y27181
X18065Y17851
X17085Y17381
X10985Y5181
X23485Y5181
X29585Y17381
X30565Y17851
X35985Y27181
X39785Y35781
X42085Y39381
X43065Y39851
X43435Y37031
X44035Y36231
X43185Y36031
X48485Y27181
X52285Y35781
X54585Y39381
X55565Y39851
X55935Y37031
X56535Y36231
X55685Y36031
X58095Y35781
X58885Y35331
X59285Y34931
X59685Y34531
X60135Y35631
X59085Y37181
X58085Y38381
X58735Y39531
X59485Y38781
X61485Y38481
X60135Y32831
X60985Y49181
X57685Y52731
X58585Y53731
X58687Y54339
X57485Y54631
X56385Y56181
X55785Y55891
X54775Y55751
X54525Y54771
X53505Y54411
X53485Y53631
X53805Y53151
X54365Y52991
X55185Y51971
X54685Y50431
X53185Y51431
X52375Y54931
X51535Y54631
X53285Y56731
X53919Y57076
X53735Y58051
X53855Y59501
X52885Y60731
X52785Y61581
X51785Y61281
X51185Y62181
X48985Y60481
X46985Y60781
X46235Y61531
X45585Y60381
X46585Y59181
X45595Y57781
X46385Y57331
X46785Y56931
X47185Y56531
X47635Y57631
X47635Y54831
X46187Y54339
X46085Y53731
X45185Y52731
X44985Y54631
X43885Y56181
X43285Y55891
X42275Y55751
X42025Y54771
X41005Y54411
X40985Y53631
X41305Y53151
X41865Y52991
X42685Y51971
X42185Y50431
X40685Y51431
X39875Y54931
X39035Y54631
X40785Y56731
X41419Y57076
X41235Y58051
X41355Y59501
X40385Y60731
X40285Y61581
X39285Y61281
X38685Y62181
X36485Y60481
X35135Y57631
X34285Y56931
X34685Y56531
X33885Y57331
X33095Y57781
X31535Y58231
X30935Y59031
X30685Y58031
X28735Y58051
X28855Y59501
X27885Y60731
X27785Y61581
X26785Y61281
X26185Y62181
X23985Y60481
X22635Y57631
X22185Y56531
X21785Y56931
X21385Y57331
X20595Y57781
X19035Y58231
X18435Y59031
X18185Y58031
X16419Y57076
X15785Y56731
X16235Y58051
X16355Y59501
X15385Y60731
X15285Y61581
X14285Y61281
X13685Y62181
X11485Y60481
X9485Y60781
X8735Y61531
X8085Y60381
X9085Y59181
X8095Y57781
X8885Y57331
X9285Y56931
X9685Y56531
X10135Y57631
X10135Y54831
X8687Y54339
X8585Y53731
X7685Y52731
X7485Y54631
X6385Y56181
X5785Y55891
X4775Y55751
X4525Y54771
X3505Y54411
X3485Y53631
X3805Y53151
X4365Y52991
X5185Y51971
X4685Y50431
X3185Y51431
X2375Y54931
X1535Y54631
X3285Y56731
X3919Y57076
X3735Y58051
X3855Y59501
X2885Y60731
X2785Y61581
X1785Y61281
X1185Y62181
X2285Y57781
X4585Y61381
X5565Y61851
X5935Y59031
X6535Y58231
X5685Y58031
X10985Y49181
X15685Y51431
X16305Y53151
X15985Y53631
X16005Y54411
X16865Y52991
X17685Y51971
X17185Y50431
X20185Y52731
X21085Y53731
X21187Y54339
X19985Y54631
X18885Y56181
X18285Y55891
X17275Y55751
X17025Y54771
X14875Y54931
X14035Y54631
X14785Y57781
X17085Y61381
X18065Y61851
X20585Y60381
X21235Y61531
X21985Y60781
X21585Y59181
X22635Y54831
X26535Y54631
X27375Y54931
X28505Y54411
X28485Y53631
X28805Y53151
X29365Y52991
X30185Y51971
X29685Y50431
X28185Y51431
X29525Y54771
X29775Y55751
X30785Y55891
X31385Y56181
X32485Y54631
X33687Y54339
X33585Y53731
X32685Y52731
X35135Y54831
X34085Y59181
X33085Y60381
X33735Y61531
X34485Y60781
X30565Y61851
X29585Y61381
X27285Y57781
X28285Y56731
X28919Y57076
X23485Y49181
X35985Y49181
X39785Y57781
X42085Y61381
X43065Y61851
X43435Y59031
X44035Y58231
X43185Y58031
X48485Y49181
X52285Y57781
X54585Y61381
X55565Y61851
X55935Y59031
X56535Y58231
X55685Y58031
X58095Y57781
X58885Y57331
X59285Y56931
X59685Y56531
X60135Y57631
X59085Y59181
X58085Y60381
X58735Y61531
X59485Y60781
X61485Y60481
X60135Y54831
X60985Y71181
X58585Y75731
X58687Y76339
X57485Y76631
X56385Y78181
X55785Y77891
X54775Y77751
X54525Y76771
X53505Y76411
X53485Y75631
X53805Y75151
X54365Y74991
X55185Y73971
X54685Y72431
X53185Y73431
X52375Y76931
X51535Y76631
X53285Y78731
X53919Y79076
X53735Y80051
X53855Y81501
X52885Y82731
X52785Y83581
X51785Y83281
X51185Y84181
X48985Y82481
X46985Y82781
X46235Y83531
X45585Y82381
X46585Y81181
X45595Y79781
X46385Y79331
X46785Y78931
X47185Y78531
X47635Y79631
X47635Y76831
X46187Y76339
X46085Y75731
X45185Y74731
X44985Y76631
X43885Y78181
X43285Y77891
X42275Y77751
X42025Y76771
X41005Y76411
X40985Y75631
X41305Y75151
X41865Y74991
X42685Y73971
X42185Y72431
X40685Y73431
X39875Y76931
X39035Y76631
X40785Y78731
X41419Y79076
X41235Y80051
X41355Y81501
X40385Y82731
X40285Y83581
X39285Y83281
X38685Y84181
X36485Y82481
X35135Y79631
X34285Y78931
X34685Y78531
X33885Y79331
X33095Y79781
X31535Y80231
X30935Y81031
X30685Y80031
X28735Y80051
X28855Y81501
X27885Y82731
X27785Y83581
X26785Y83281
X26185Y84181
X23985Y82481
X22635Y79631
X22185Y78531
X21785Y78931
X21385Y79331
X20595Y79781
X19035Y80231
X18435Y81031
X18185Y80031
X16419Y79076
X15785Y78731
X16235Y80051
X16355Y81501
X15385Y82731
X15285Y83581
X14285Y83281
X13685Y84181
X11485Y82481
X9485Y82781
X8735Y83531
X8085Y82381
X9085Y81181
X8095Y79781
X8885Y79331
X9285Y78931
X9685Y78531
X10135Y79631
X10135Y76831
X8687Y76339
X8585Y75731
X7685Y74731
X7485Y76631
X6385Y78181
X5785Y77891
X4775Y77751
X4525Y76771
X3505Y76411
X3485Y75631
X3805Y75151
X4365Y74991
X5185Y73971
X4685Y72431
X3185Y73431
X2375Y76931
X1535Y76631
X3285Y78731
X3919Y79076
X3735Y80051
X3855Y81501
X2885Y82731
X2785Y83581
X1785Y83281
X1185Y84181
X2285Y79781
X4585Y83381
X5565Y83851
X5935Y81031
X6535Y80231
X5685Y80031
X10985Y71181
X14035Y76631
X14875Y76931
X16005Y76411
X15985Y75631
X16305Y75151
X16865Y74991
X17685Y73971
X17185Y72431
X15685Y73431
X17025Y76771
X17275Y77751
X18285Y77891
X18885Y78181
X19985Y76631
X21187Y76339
X21085Y75731
X20185Y74731
X22635Y76831
X21585Y81181
X20585Y82381
X21235Y83531
X21985Y82781
X18065Y83851
X17085Y83381
X14785Y79781
X23485Y71181
X26535Y76631
X27375Y76931
X28505Y76411
X28485Y75631
X28805Y75151
X29365Y74991
X30185Y73971
X29685Y72431
X28185Y73431
X29525Y76771
X29775Y77751
X30785Y77891
X31385Y78181
X32485Y76631
X33687Y76339
X33585Y75731
X32685Y74731
X35135Y76831
X34085Y81181
X33085Y82381
X33735Y83531
X34485Y82781
X30565Y83851
X29585Y83381
X27285Y79781
X28285Y78731
X28919Y79076
X35985Y71181
X39785Y79781
X42085Y83381
X43065Y83851
X43435Y81031
X44035Y80231
X43185Y80031
X48485Y71181
X52285Y79781
X54585Y83381
X55565Y83851
X55935Y81031
X56535Y80231
X55685Y80031
X58095Y79781
X58885Y79331
X59285Y78931
X59685Y78531
X60135Y79631
X59085Y81181
X58085Y82381
X58735Y83531
X59485Y82781
X61485Y82481
X60135Y76831
X57685Y74731
X43065Y17851
X42085Y17381
X35985Y5181
X48485Y5181
X60985Y5181
T02
X57385Y12901
X56385Y12901
X55385Y12901
X52385Y9901
X52385Y8901
X52385Y7901
X44885Y12901
X43885Y12901
X42885Y12901
X39885Y9901
X39885Y8901
X39885Y7901
X32385Y12901
X31385Y12901
X30385Y12901
X27385Y9901
X27385Y8901
X27385Y7901
X19885Y12901
X18885Y12901
X17885Y12901
X14885Y9901
X14885Y8901
X14885Y7901
X7385Y12901
X6385Y12901
X5385Y12901
X2385Y9901
X2385Y8901
X2385Y7901
X2385Y29901
X2385Y30901
X2385Y31901
X5385Y34901
X6385Y34901
X7385Y34901
X14885Y31901
X14885Y30901
X14885Y29901
X17885Y34901
X18885Y34901
X19885Y34901
X27385Y31901
X27385Y30901
X27385Y29901
X30385Y34901
X31385Y34901
X32385Y34901
X39885Y31901
X39885Y30901
X39885Y29901
X42885Y34901
X43885Y34901
X44885Y34901
X52385Y31901
X52385Y30901
X52385Y29901
X55385Y34901
X56385Y34901
X57385Y34901
X52385Y51901
X52385Y52901
X52385Y53901
X55385Y56901
X56385Y56901
X57385Y56901
X44885Y56901
X43885Y56901
X42885Y56901
X39885Y53901
X39885Y52901
X39885Y51901
X32385Y56901
X31385Y56901
X30385Y56901
X27385Y53901
X27385Y52901
X27385Y51901
X19885Y56901
X18885Y56901
X17885Y56901
X14885Y53901
X14885Y52901
X14885Y51901
X7385Y56901
X6385Y56901
X5385Y56901
X2385Y53901
X2385Y52901
X2385Y51901
X2385Y73901
X2385Y74901
X2385Y75901
X5385Y78901
X6385Y78901
X7385Y78901
X14885Y75901
X14885Y74901
X14885Y73901
X17885Y78901
X18885Y78901
X19885Y78901
X27385Y75901
X27385Y74901
X27385Y73901
X30385Y78901
X31385Y78901
X32385Y78901
X39885Y75901
X39885Y74901
X39885Y73901
X42885Y78901
X43885Y78901
X44885Y78901
X52385Y75901
X52385Y74901
X52385Y73901
X55385Y78901
X56385Y78901
X57385Y78901
T03
X59385Y76151
X61385Y76151
X61385Y73651
X59385Y73651
X48885Y73651
X46885Y73651
X46885Y76151
X48885Y76151
X36385Y76151
X34385Y76151
X34385Y73651
X36385Y73651
X23885Y73651
X21885Y73651
X21885Y76151
X23885Y76151
X11385Y76151
X11385Y73651
X9385Y73651
X9385Y76151
X9385Y54151
X9385Y51651
X11385Y51651
X11385Y54151
X21885Y54151
X23885Y54151
X23885Y51651
X21885Y51651
X34385Y51651
X36385Y51651
X36385Y54151
X34385Y54151
X46885Y54151
X48885Y54151
X48885Y51651
X46885Y51651
X59385Y51651
X61385Y51651
X61385Y54151
X59385Y54151
X59385Y32151
X61385Y32151
X61385Y29651
X59385Y29651
X48885Y29651
X46885Y29651
X46885Y32151
X48885Y32151
X36385Y32151
X34385Y32151
X34385Y29651
X36385Y29651
X23885Y29651
X21885Y29651
X21885Y32151
X23885Y32151
X11385Y32151
X11385Y29651
X9385Y29651
X9385Y32151
X9385Y10151
X9385Y7651
X11385Y7651
X11385Y10151
X21885Y10151
X23885Y10151
X23885Y7651
X21885Y7651
X34385Y7651
X36385Y7651
X36385Y10151
X34385Y10151
X46885Y10151
X48885Y10151
X48885Y7651
X46885Y7651
X59385Y7651
X61385Y7651
X61385Y10151
X59385Y10151
T04
X59265Y19261
X60265Y19261
X60265Y20261
X59265Y20261
X58265Y20261
X57265Y20261
X57265Y19261
X58265Y19261
X55565Y19261
X55565Y20261
X53665Y20261
X53665Y19261
X52665Y19261
X51665Y19261
X51665Y20261
X52665Y20261
X47765Y20261
X46765Y20261
X46765Y19261
X47765Y19261
X45765Y19261
X44765Y19261
X44765Y20261
X45765Y20261
X43065Y20261
X43065Y19261
X41165Y19261
X40165Y19261
X39165Y19261
X39165Y20261
X40165Y20261
X41165Y20261
X35265Y20261
X35265Y19261
X34265Y19261
X33265Y19261
X32265Y19261
X32265Y20261
X33265Y20261
X34265Y20261
X30565Y20261
X30565Y19261
X28665Y19261
X27665Y19261
X26665Y19261
X26665Y20261
X27665Y20261
X28665Y20261
X22765Y20261
X22765Y19261
X21765Y19261
X20765Y19261
X19765Y19261
X19765Y20261
X20765Y20261
X21765Y20261
X18065Y20261
X18065Y19261
X16165Y19261
X15165Y19261
X14165Y19261
X14165Y20261
X15165Y20261
X16165Y20261
X10265Y20261
X10265Y19261
X9265Y19261
X8265Y19261
X7265Y19261
X7265Y20261
X8265Y20261
X9265Y20261
X5565Y20261
X5565Y19261
X3665Y19261
X2665Y19261
X1665Y19261
X1665Y20261
X2665Y20261
X3665Y20261
X3665Y41261
X2665Y41261
X1665Y41261
X1665Y42261
X2665Y42261
X3665Y42261
X5565Y42261
X5565Y41261
X7265Y41261
X8265Y41261
X9265Y41261
X10265Y41261
X10265Y42261
X9265Y42261
X8265Y42261
X7265Y42261
X14165Y42261
X14165Y41261
X15165Y41261
X16165Y41261
X16165Y42261
X15165Y42261
X18065Y42261
X18065Y41261
X19765Y41261
X20765Y41261
X21765Y41261
X22765Y41261
X22765Y42261
X21765Y42261
X20765Y42261
X19765Y42261
X26665Y42261
X26665Y41261
X27665Y41261
X28665Y41261
X28665Y42261
X27665Y42261
X30565Y42261
X30565Y41261
X32265Y41261
X33265Y41261
X34265Y41261
X35265Y41261
X35265Y42261
X34265Y42261
X33265Y42261
X32265Y42261
X39165Y42261
X40165Y42261
X40165Y41261
X39165Y41261
X41165Y41261
X41165Y42261
X43065Y42261
X43065Y41261
X44765Y41261
X45765Y41261
X46765Y41261
X47765Y41261
X47765Y42261
X46765Y42261
X45765Y42261
X44765Y42261
X51665Y42261
X52665Y42261
X52665Y41261
X51665Y41261
X53665Y41261
X53665Y42261
X55565Y42261
X55565Y41261
X57265Y41261
X58265Y41261
X59265Y41261
X60265Y41261
X60265Y42261
X59265Y42261
X58265Y42261
X57265Y42261
X57265Y63261
X58265Y63261
X59265Y63261
X60265Y63261
X60265Y64261
X59265Y64261
X58265Y64261
X57265Y64261
X55565Y64261
X55565Y63261
X53665Y63261
X52665Y63261
X51665Y63261
X51665Y64261
X52665Y64261
X53665Y64261
X47765Y64261
X46765Y64261
X46765Y63261
X47765Y63261
X45765Y63261
X44765Y63261
X44765Y64261
X45765Y64261
X43065Y64261
X43065Y63261
X41165Y63261
X40165Y63261
X39165Y63261
X39165Y64261
X40165Y64261
X41165Y64261
X35265Y64261
X35265Y63261
X34265Y63261
X33265Y63261
X32265Y63261
X32265Y64261
X33265Y64261
X34265Y64261
X30565Y64261
X30565Y63261
X28665Y63261
X27665Y63261
X26665Y63261
X26665Y64261
X27665Y64261
X28665Y64261
X22765Y64261
X22765Y63261
X21765Y63261
X20765Y63261
X19765Y63261
X19765Y64261
X20765Y64261
X21765Y64261
X18065Y64261
X18065Y63261
X16165Y63261
X15165Y63261
X14165Y63261
X14165Y64261
X15165Y64261
X16165Y64261
X10265Y64261
X10265Y63261
X9265Y63261
X8265Y63261
X7265Y63261
X7265Y64261
X8265Y64261
X9265Y64261
X5565Y64261
X5565Y63261
X3665Y63261
X2665Y63261
X1665Y63261
X1665Y64261
X2665Y64261
X3665Y64261
X3665Y85261
X2665Y85261
X2665Y86261
X3665Y86261
X5565Y86261
X5565Y85261
X7265Y85261
X7265Y86261
X8265Y86261
X8265Y85261
X9265Y85261
X9265Y86261
X10265Y86261
X10265Y85261
X14165Y85261
X14165Y86261
X15165Y86261
X15165Y85261
X16165Y85261
X16165Y86261
X18065Y86261
X18065Y85261
X19765Y85261
X19765Y86261
X20765Y86261
X20765Y85261
X21765Y85261
X21765Y86261
X22765Y86261
X22765Y85261
X26665Y85261
X26665Y86261
X27665Y86261
X27665Y85261
X28665Y85261
X28665Y86261
X30565Y86261
X30565Y85261
X32265Y85261
X33265Y85261
X33265Y86261
X32265Y86261
X34265Y86261
X34265Y85261
X35265Y85261
X35265Y86261
X39165Y86261
X39165Y85261
X40165Y85261
X40165Y86261
X41165Y86261
X41165Y85261
X43065Y85261
X43065Y86261
X44765Y86261
X44765Y85261
X45765Y85261
X45765Y86261
X46765Y86261
X46765Y85261
X47765Y85261
X47765Y86261
X51665Y86261
X51665Y85261
X52665Y85261
X52665Y86261
X53665Y86261
X53665Y85261
X55565Y85261
X55565Y86261
X57265Y86261
X57265Y85261
X58265Y85261
X58265Y86261
X59265Y86261
X59265Y85261
X60265Y85261
X60265Y86261
X1665Y86261
X1665Y85261
T05
X3760Y77901
X3760Y71901
X9010Y71901
X9010Y77901
X16260Y77901
X16260Y71901
X21510Y71901
X21510Y77901
X28760Y77901
X28760Y71901
X34010Y71901
X34010Y77901
X41260Y77901
X41260Y71901
X46510Y71901
X46510Y77901
X53760Y77901
X53760Y71901
X59010Y71901
X59010Y77901
X59010Y55901
X59010Y49901
X53760Y49901
X53760Y55901
X46510Y55901
X46510Y49901
X41260Y49901
X41260Y55901
X34010Y55901
X34010Y49901
X28760Y49901
X28760Y55901
X21510Y55901
X21510Y49901
X16260Y49901
X16260Y55901
X9010Y55901
X9010Y49901
X3760Y49901
X3760Y55901
X3760Y33901
X3760Y27901
X9010Y27901
X9010Y33901
X16260Y33901
X16260Y27901
X21510Y27901
X21510Y33901
X28760Y33901
X28760Y27901
X34010Y27901
X34010Y33901
X41260Y33901
X41260Y27901
X46510Y27901
X46510Y33901
X53760Y33901
X53760Y27901
X59010Y27901
X59010Y33901
X59010Y11901
X59010Y5901
X53760Y5901
X53760Y11901
X46510Y11901
X46510Y5901
X41260Y5901
X41260Y11901
X34010Y11901
X34010Y5901
X28760Y5901
X28760Y11901
X21510Y11901
X21510Y5901
X16260Y5901
X16260Y11901
X9010Y11901
X9010Y5901
X3760Y5901
X3760Y11901
T06
X1565Y5351
X11315Y13101
X14065Y5351
X23815Y13101
X26565Y5351
X36315Y13101
X39065Y5351
X48815Y13101
X51565Y5351
X61315Y13101
X51565Y27351
X48815Y35101
X39065Y27351
X36315Y35101
X26565Y27351
X23815Y35101
X14065Y27351
X11315Y35101
X1565Y27351
X1565Y49351
X11315Y57101
X14065Y49351
X23815Y57101
X26565Y49351
X36315Y57101
X39065Y49351
X48815Y57101
X51565Y49351
X61315Y57101
X51565Y71351
X48815Y79101
X39065Y71351
X36315Y79101
X26565Y71351
X23815Y79101
X14065Y71351
X11315Y79101
X1565Y71351
X61315Y79101
X61315Y35101
M30
