G75*
G70*
%OFA0B0*%
%FSLAX24Y24*%
%IPPOS*%
%LPD*%
%AMOC8*
5,1,8,0,0,1.08239X$1,22.5*
%
%ADD10C,0.1080*%
%ADD11OC8,0.0720*%
%ADD12C,0.0980*%
%ADD13C,0.0780*%
%ADD14C,0.0820*%
%ADD15R,0.0434X0.0356*%
%ADD16R,0.0395X0.0356*%
%ADD17OC8,0.0820*%
%ADD18OC8,0.0520*%
D10*
X001565Y005351D03*
X011315Y013101D03*
X014065Y005351D03*
X023815Y013101D03*
X026565Y005351D03*
X036315Y013101D03*
X039065Y005351D03*
X048815Y013101D03*
X051565Y005351D03*
X061315Y013101D03*
X051565Y027351D03*
X048815Y035101D03*
X039065Y027351D03*
X036315Y035101D03*
X026565Y027351D03*
X023815Y035101D03*
X014065Y027351D03*
X011315Y035101D03*
X001565Y027351D03*
X001565Y049351D03*
X011315Y057101D03*
X014065Y049351D03*
X023815Y057101D03*
X026565Y049351D03*
X036315Y057101D03*
X039065Y049351D03*
X048815Y057101D03*
X051565Y049351D03*
X061315Y057101D03*
X051565Y071351D03*
X048815Y079101D03*
X039065Y071351D03*
X036315Y079101D03*
X026565Y071351D03*
X023815Y079101D03*
X014065Y071351D03*
X011315Y079101D03*
X001565Y071351D03*
X061315Y079101D03*
X061315Y035101D03*
D11*
X053665Y041261D03*
X052665Y041261D03*
X051665Y041261D03*
X051665Y042261D03*
X052665Y042261D03*
X053665Y042261D03*
X041165Y042261D03*
X041165Y041261D03*
X040165Y041261D03*
X039165Y041261D03*
X039165Y042261D03*
X040165Y042261D03*
X028665Y042261D03*
X027665Y042261D03*
X027665Y041261D03*
X028665Y041261D03*
X026665Y041261D03*
X026665Y042261D03*
X016165Y042261D03*
X015165Y042261D03*
X015165Y041261D03*
X016165Y041261D03*
X014165Y041261D03*
X014165Y042261D03*
X003665Y042261D03*
X002665Y042261D03*
X002665Y041261D03*
X003665Y041261D03*
X001665Y041261D03*
X001665Y042261D03*
X001665Y063261D03*
X002665Y063261D03*
X003665Y063261D03*
X003665Y064261D03*
X002665Y064261D03*
X001665Y064261D03*
X014165Y064261D03*
X014165Y063261D03*
X015165Y063261D03*
X016165Y063261D03*
X016165Y064261D03*
X015165Y064261D03*
X026665Y064261D03*
X026665Y063261D03*
X027665Y063261D03*
X028665Y063261D03*
X028665Y064261D03*
X027665Y064261D03*
X039165Y064261D03*
X040165Y064261D03*
X040165Y063261D03*
X039165Y063261D03*
X041165Y063261D03*
X041165Y064261D03*
X051665Y064261D03*
X052665Y064261D03*
X052665Y063261D03*
X051665Y063261D03*
X053665Y063261D03*
X053665Y064261D03*
X053665Y085261D03*
X053665Y086261D03*
X052665Y086261D03*
X052665Y085261D03*
X051665Y085261D03*
X051665Y086261D03*
X041165Y086261D03*
X041165Y085261D03*
X040165Y085261D03*
X039165Y085261D03*
X039165Y086261D03*
X040165Y086261D03*
X028665Y086261D03*
X028665Y085261D03*
X027665Y085261D03*
X027665Y086261D03*
X026665Y086261D03*
X026665Y085261D03*
X016165Y085261D03*
X015165Y085261D03*
X015165Y086261D03*
X016165Y086261D03*
X014165Y086261D03*
X014165Y085261D03*
X003665Y085261D03*
X002665Y085261D03*
X002665Y086261D03*
X003665Y086261D03*
X001665Y086261D03*
X001665Y085261D03*
X001665Y020261D03*
X001665Y019261D03*
X002665Y019261D03*
X003665Y019261D03*
X003665Y020261D03*
X002665Y020261D03*
X014165Y020261D03*
X014165Y019261D03*
X015165Y019261D03*
X016165Y019261D03*
X016165Y020261D03*
X015165Y020261D03*
X026665Y020261D03*
X026665Y019261D03*
X027665Y019261D03*
X028665Y019261D03*
X028665Y020261D03*
X027665Y020261D03*
X039165Y020261D03*
X040165Y020261D03*
X040165Y019261D03*
X039165Y019261D03*
X041165Y019261D03*
X041165Y020261D03*
X051665Y020261D03*
X052665Y020261D03*
X052665Y019261D03*
X051665Y019261D03*
X053665Y019261D03*
X053665Y020261D03*
D12*
X053760Y027901D03*
X053760Y033901D03*
X059010Y033901D03*
X059010Y027901D03*
X059010Y011901D03*
X059010Y005901D03*
X053760Y005901D03*
X053760Y011901D03*
X046510Y011901D03*
X046510Y005901D03*
X041260Y005901D03*
X041260Y011901D03*
X034010Y011901D03*
X034010Y005901D03*
X028760Y005901D03*
X028760Y011901D03*
X021510Y011901D03*
X021510Y005901D03*
X016260Y005901D03*
X016260Y011901D03*
X009010Y011901D03*
X009010Y005901D03*
X003760Y005901D03*
X003760Y011901D03*
X003760Y027901D03*
X003760Y033901D03*
X009010Y033901D03*
X009010Y027901D03*
X016260Y027901D03*
X016260Y033901D03*
X021510Y033901D03*
X021510Y027901D03*
X028760Y027901D03*
X028760Y033901D03*
X034010Y033901D03*
X034010Y027901D03*
X041260Y027901D03*
X041260Y033901D03*
X046510Y033901D03*
X046510Y027901D03*
X046510Y049901D03*
X046510Y055901D03*
X041260Y055901D03*
X041260Y049901D03*
X034010Y049901D03*
X034010Y055901D03*
X028760Y055901D03*
X028760Y049901D03*
X021510Y049901D03*
X021510Y055901D03*
X016260Y055901D03*
X016260Y049901D03*
X009010Y049901D03*
X009010Y055901D03*
X003760Y055901D03*
X003760Y049901D03*
X003760Y071901D03*
X003760Y077901D03*
X009010Y077901D03*
X009010Y071901D03*
X016260Y071901D03*
X016260Y077901D03*
X021510Y077901D03*
X021510Y071901D03*
X028760Y071901D03*
X028760Y077901D03*
X034010Y077901D03*
X034010Y071901D03*
X041260Y071901D03*
X041260Y077901D03*
X046510Y077901D03*
X046510Y071901D03*
X053760Y071901D03*
X053760Y077901D03*
X059010Y077901D03*
X059010Y071901D03*
X059010Y055901D03*
X059010Y049901D03*
X053760Y049901D03*
X053760Y055901D03*
D13*
X052385Y053901D03*
X052385Y052901D03*
X052385Y051901D03*
X055385Y056901D03*
X056385Y056901D03*
X057385Y056901D03*
X059385Y054151D03*
X061385Y054151D03*
X061385Y051651D03*
X059385Y051651D03*
X048885Y051651D03*
X046885Y051651D03*
X046885Y054151D03*
X048885Y054151D03*
X044885Y056901D03*
X043885Y056901D03*
X042885Y056901D03*
X039885Y053901D03*
X039885Y052901D03*
X039885Y051901D03*
X036385Y051651D03*
X034385Y051651D03*
X034385Y054151D03*
X036385Y054151D03*
X032385Y056901D03*
X031385Y056901D03*
X030385Y056901D03*
X027385Y053901D03*
X027385Y052901D03*
X027385Y051901D03*
X023885Y051651D03*
X021885Y051651D03*
X021885Y054151D03*
X023885Y054151D03*
X019885Y056901D03*
X018885Y056901D03*
X017885Y056901D03*
X014885Y053901D03*
X014885Y052901D03*
X014885Y051901D03*
X011385Y051651D03*
X011385Y054151D03*
X009385Y054151D03*
X009385Y051651D03*
X007385Y056901D03*
X006385Y056901D03*
X005385Y056901D03*
X002385Y053901D03*
X002385Y052901D03*
X002385Y051901D03*
X005385Y034901D03*
X006385Y034901D03*
X007385Y034901D03*
X009385Y032151D03*
X009385Y029651D03*
X011385Y029651D03*
X011385Y032151D03*
X014885Y031901D03*
X014885Y030901D03*
X014885Y029901D03*
X017885Y034901D03*
X018885Y034901D03*
X019885Y034901D03*
X021885Y032151D03*
X023885Y032151D03*
X023885Y029651D03*
X021885Y029651D03*
X027385Y029901D03*
X027385Y030901D03*
X027385Y031901D03*
X030385Y034901D03*
X031385Y034901D03*
X032385Y034901D03*
X034385Y032151D03*
X036385Y032151D03*
X036385Y029651D03*
X034385Y029651D03*
X039885Y029901D03*
X039885Y030901D03*
X039885Y031901D03*
X042885Y034901D03*
X043885Y034901D03*
X044885Y034901D03*
X046885Y032151D03*
X048885Y032151D03*
X048885Y029651D03*
X046885Y029651D03*
X052385Y029901D03*
X052385Y030901D03*
X052385Y031901D03*
X055385Y034901D03*
X056385Y034901D03*
X057385Y034901D03*
X059385Y032151D03*
X061385Y032151D03*
X061385Y029651D03*
X059385Y029651D03*
X057385Y012901D03*
X056385Y012901D03*
X055385Y012901D03*
X052385Y009901D03*
X052385Y008901D03*
X052385Y007901D03*
X048885Y007651D03*
X046885Y007651D03*
X046885Y010151D03*
X048885Y010151D03*
X044885Y012901D03*
X043885Y012901D03*
X042885Y012901D03*
X039885Y009901D03*
X039885Y008901D03*
X039885Y007901D03*
X036385Y007651D03*
X034385Y007651D03*
X034385Y010151D03*
X036385Y010151D03*
X032385Y012901D03*
X031385Y012901D03*
X030385Y012901D03*
X027385Y009901D03*
X027385Y008901D03*
X027385Y007901D03*
X023885Y007651D03*
X021885Y007651D03*
X021885Y010151D03*
X023885Y010151D03*
X019885Y012901D03*
X018885Y012901D03*
X017885Y012901D03*
X014885Y009901D03*
X014885Y008901D03*
X014885Y007901D03*
X011385Y007651D03*
X011385Y010151D03*
X009385Y010151D03*
X009385Y007651D03*
X007385Y012901D03*
X006385Y012901D03*
X005385Y012901D03*
X002385Y009901D03*
X002385Y008901D03*
X002385Y007901D03*
X002385Y029901D03*
X002385Y030901D03*
X002385Y031901D03*
X009385Y073651D03*
X009385Y076151D03*
X007385Y078901D03*
X006385Y078901D03*
X005385Y078901D03*
X002385Y075901D03*
X002385Y074901D03*
X002385Y073901D03*
X011385Y073651D03*
X011385Y076151D03*
X014885Y075901D03*
X014885Y074901D03*
X014885Y073901D03*
X017885Y078901D03*
X018885Y078901D03*
X019885Y078901D03*
X021885Y076151D03*
X023885Y076151D03*
X023885Y073651D03*
X021885Y073651D03*
X027385Y073901D03*
X027385Y074901D03*
X027385Y075901D03*
X030385Y078901D03*
X031385Y078901D03*
X032385Y078901D03*
X034385Y076151D03*
X036385Y076151D03*
X036385Y073651D03*
X034385Y073651D03*
X039885Y073901D03*
X039885Y074901D03*
X039885Y075901D03*
X042885Y078901D03*
X043885Y078901D03*
X044885Y078901D03*
X046885Y076151D03*
X048885Y076151D03*
X048885Y073651D03*
X046885Y073651D03*
X052385Y073901D03*
X052385Y074901D03*
X052385Y075901D03*
X055385Y078901D03*
X056385Y078901D03*
X057385Y078901D03*
X059385Y076151D03*
X061385Y076151D03*
X061385Y073651D03*
X059385Y073651D03*
X059385Y010151D03*
X061385Y010151D03*
X061385Y007651D03*
X059385Y007651D03*
D14*
X055565Y019261D03*
X055565Y020261D03*
X043065Y020261D03*
X043065Y019261D03*
X030565Y019261D03*
X030565Y020261D03*
X018065Y020261D03*
X018065Y019261D03*
X005565Y019261D03*
X005565Y020261D03*
X005565Y041261D03*
X005565Y042261D03*
X018065Y042261D03*
X018065Y041261D03*
X030565Y041261D03*
X030565Y042261D03*
X043065Y042261D03*
X043065Y041261D03*
X055565Y041261D03*
X055565Y042261D03*
X055565Y063261D03*
X055565Y064261D03*
X043065Y064261D03*
X043065Y063261D03*
X030565Y063261D03*
X030565Y064261D03*
X018065Y064261D03*
X018065Y063261D03*
X005565Y063261D03*
X005565Y064261D03*
X005565Y085261D03*
X005565Y086261D03*
X018065Y086261D03*
X018065Y085261D03*
X030565Y085261D03*
X030565Y086261D03*
X043065Y086261D03*
X043065Y085261D03*
X055565Y085261D03*
X055565Y086261D03*
D15*
X060535Y081886D03*
X060535Y081037D03*
X060535Y080526D03*
X048035Y080526D03*
X048035Y081037D03*
X048035Y081886D03*
X035535Y081886D03*
X035535Y081037D03*
X035535Y080526D03*
X023035Y080526D03*
X023035Y081037D03*
X023035Y081886D03*
X010535Y081886D03*
X010535Y081037D03*
X010535Y080526D03*
X010535Y059886D03*
X010535Y059037D03*
X010535Y058526D03*
X023035Y058526D03*
X023035Y059037D03*
X023035Y059886D03*
X035535Y059886D03*
X035535Y059037D03*
X035535Y058526D03*
X048035Y058526D03*
X048035Y059037D03*
X048035Y059886D03*
X060535Y059886D03*
X060535Y059037D03*
X060535Y058526D03*
X060535Y037886D03*
X060535Y037037D03*
X060535Y036526D03*
X048035Y036526D03*
X048035Y037037D03*
X048035Y037886D03*
X035535Y037886D03*
X035535Y037037D03*
X035535Y036526D03*
X023035Y036526D03*
X023035Y037037D03*
X023035Y037886D03*
X010535Y037886D03*
X010535Y037037D03*
X010535Y036526D03*
X010535Y015886D03*
X010535Y015037D03*
X010535Y014526D03*
X023035Y014526D03*
X023035Y015037D03*
X023035Y015886D03*
X035535Y015886D03*
X035535Y015037D03*
X035535Y014526D03*
X048035Y014526D03*
X048035Y015037D03*
X048035Y015886D03*
X060535Y015886D03*
X060535Y015037D03*
X060535Y014526D03*
D16*
X060535Y016477D03*
X048035Y016477D03*
X035535Y016477D03*
X023035Y016477D03*
X010535Y016477D03*
X010535Y038477D03*
X023035Y038477D03*
X035535Y038477D03*
X048035Y038477D03*
X060535Y038477D03*
X060535Y060477D03*
X048035Y060477D03*
X035535Y060477D03*
X023035Y060477D03*
X010535Y060477D03*
X010535Y082477D03*
X023035Y082477D03*
X035535Y082477D03*
X048035Y082477D03*
X060535Y082477D03*
D17*
X060265Y085261D03*
X059265Y085261D03*
X059265Y086261D03*
X060265Y086261D03*
X058265Y086261D03*
X058265Y085261D03*
X057265Y085261D03*
X057265Y086261D03*
X047765Y086261D03*
X047765Y085261D03*
X046765Y085261D03*
X046765Y086261D03*
X045765Y086261D03*
X045765Y085261D03*
X044765Y085261D03*
X044765Y086261D03*
X035265Y086261D03*
X035265Y085261D03*
X034265Y085261D03*
X034265Y086261D03*
X033265Y086261D03*
X033265Y085261D03*
X032265Y085261D03*
X032265Y086261D03*
X022765Y086261D03*
X022765Y085261D03*
X021765Y085261D03*
X020765Y085261D03*
X020765Y086261D03*
X021765Y086261D03*
X019765Y086261D03*
X019765Y085261D03*
X010265Y085261D03*
X010265Y086261D03*
X009265Y086261D03*
X009265Y085261D03*
X008265Y085261D03*
X008265Y086261D03*
X007265Y086261D03*
X007265Y085261D03*
X007265Y064261D03*
X007265Y063261D03*
X008265Y063261D03*
X009265Y063261D03*
X010265Y063261D03*
X010265Y064261D03*
X009265Y064261D03*
X008265Y064261D03*
X019765Y064261D03*
X019765Y063261D03*
X020765Y063261D03*
X021765Y063261D03*
X022765Y063261D03*
X022765Y064261D03*
X021765Y064261D03*
X020765Y064261D03*
X032265Y064261D03*
X033265Y064261D03*
X033265Y063261D03*
X032265Y063261D03*
X034265Y063261D03*
X035265Y063261D03*
X035265Y064261D03*
X034265Y064261D03*
X044765Y064261D03*
X045765Y064261D03*
X045765Y063261D03*
X044765Y063261D03*
X046765Y063261D03*
X047765Y063261D03*
X047765Y064261D03*
X046765Y064261D03*
X057265Y064261D03*
X058265Y064261D03*
X058265Y063261D03*
X057265Y063261D03*
X059265Y063261D03*
X060265Y063261D03*
X060265Y064261D03*
X059265Y064261D03*
X059265Y042261D03*
X060265Y042261D03*
X060265Y041261D03*
X059265Y041261D03*
X058265Y041261D03*
X057265Y041261D03*
X057265Y042261D03*
X058265Y042261D03*
X047765Y042261D03*
X046765Y042261D03*
X046765Y041261D03*
X047765Y041261D03*
X045765Y041261D03*
X044765Y041261D03*
X044765Y042261D03*
X045765Y042261D03*
X035265Y042261D03*
X035265Y041261D03*
X034265Y041261D03*
X033265Y041261D03*
X032265Y041261D03*
X032265Y042261D03*
X033265Y042261D03*
X034265Y042261D03*
X022765Y042261D03*
X022765Y041261D03*
X021765Y041261D03*
X020765Y041261D03*
X019765Y041261D03*
X019765Y042261D03*
X020765Y042261D03*
X021765Y042261D03*
X010265Y042261D03*
X010265Y041261D03*
X009265Y041261D03*
X008265Y041261D03*
X007265Y041261D03*
X007265Y042261D03*
X008265Y042261D03*
X009265Y042261D03*
X009265Y020261D03*
X008265Y020261D03*
X008265Y019261D03*
X009265Y019261D03*
X010265Y019261D03*
X010265Y020261D03*
X007265Y020261D03*
X007265Y019261D03*
X019765Y019261D03*
X020765Y019261D03*
X021765Y019261D03*
X022765Y019261D03*
X022765Y020261D03*
X021765Y020261D03*
X020765Y020261D03*
X019765Y020261D03*
X032265Y020261D03*
X033265Y020261D03*
X033265Y019261D03*
X032265Y019261D03*
X034265Y019261D03*
X035265Y019261D03*
X035265Y020261D03*
X034265Y020261D03*
X044765Y020261D03*
X045765Y020261D03*
X045765Y019261D03*
X044765Y019261D03*
X046765Y019261D03*
X047765Y019261D03*
X047765Y020261D03*
X046765Y020261D03*
X057265Y020261D03*
X058265Y020261D03*
X058265Y019261D03*
X057265Y019261D03*
X059265Y019261D03*
X060265Y019261D03*
X060265Y020261D03*
X059265Y020261D03*
D18*
X058735Y017531D03*
X059485Y016781D03*
X058085Y016381D03*
X059085Y015181D03*
X058095Y013781D03*
X058885Y013331D03*
X059285Y012931D03*
X059685Y012531D03*
X060135Y013631D03*
X060135Y010831D03*
X058687Y010339D03*
X058585Y009731D03*
X057685Y008731D03*
X057485Y010631D03*
X056385Y012181D03*
X055785Y011891D03*
X054775Y011751D03*
X054525Y010771D03*
X053505Y010411D03*
X053485Y009631D03*
X053805Y009151D03*
X054365Y008991D03*
X055185Y007971D03*
X054685Y006431D03*
X053185Y007431D03*
X052375Y010931D03*
X051535Y010631D03*
X053285Y012731D03*
X053919Y013076D03*
X053735Y014051D03*
X053855Y015501D03*
X052885Y016731D03*
X052785Y017581D03*
X051785Y017281D03*
X051185Y018181D03*
X048985Y016481D03*
X046985Y016781D03*
X046235Y017531D03*
X045585Y016381D03*
X046585Y015181D03*
X045595Y013781D03*
X046385Y013331D03*
X046785Y012931D03*
X047185Y012531D03*
X047635Y013631D03*
X047635Y010831D03*
X046187Y010339D03*
X046085Y009731D03*
X045185Y008731D03*
X044985Y010631D03*
X043885Y012181D03*
X043285Y011891D03*
X042275Y011751D03*
X042025Y010771D03*
X041005Y010411D03*
X040985Y009631D03*
X041305Y009151D03*
X041865Y008991D03*
X042685Y007971D03*
X042185Y006431D03*
X040685Y007431D03*
X039875Y010931D03*
X039035Y010631D03*
X040785Y012731D03*
X041419Y013076D03*
X041235Y014051D03*
X041355Y015501D03*
X040385Y016731D03*
X040285Y017581D03*
X039285Y017281D03*
X038685Y018181D03*
X036485Y016481D03*
X035135Y013631D03*
X034285Y012931D03*
X034685Y012531D03*
X033885Y013331D03*
X033095Y013781D03*
X031535Y014231D03*
X030935Y015031D03*
X030685Y014031D03*
X031385Y012181D03*
X030785Y011891D03*
X029775Y011751D03*
X029525Y010771D03*
X028505Y010411D03*
X028485Y009631D03*
X028805Y009151D03*
X029365Y008991D03*
X030185Y007971D03*
X029685Y006431D03*
X028185Y007431D03*
X027375Y010931D03*
X026535Y010631D03*
X028285Y012731D03*
X028919Y013076D03*
X028735Y014051D03*
X028855Y015501D03*
X027885Y016731D03*
X027785Y017581D03*
X026785Y017281D03*
X026185Y018181D03*
X023985Y016481D03*
X022635Y013631D03*
X022185Y012531D03*
X021785Y012931D03*
X021385Y013331D03*
X020595Y013781D03*
X019035Y014231D03*
X018435Y015031D03*
X018185Y014031D03*
X018885Y012181D03*
X018285Y011891D03*
X017275Y011751D03*
X017025Y010771D03*
X016005Y010411D03*
X015985Y009631D03*
X016305Y009151D03*
X016865Y008991D03*
X017685Y007971D03*
X017185Y006431D03*
X015685Y007431D03*
X014875Y010931D03*
X014035Y010631D03*
X015785Y012731D03*
X016419Y013076D03*
X016235Y014051D03*
X016355Y015501D03*
X015385Y016731D03*
X015285Y017581D03*
X014285Y017281D03*
X013685Y018181D03*
X011485Y016481D03*
X009485Y016781D03*
X008735Y017531D03*
X008085Y016381D03*
X009085Y015181D03*
X008095Y013781D03*
X008885Y013331D03*
X009285Y012931D03*
X009685Y012531D03*
X010135Y013631D03*
X010135Y010831D03*
X008687Y010339D03*
X008585Y009731D03*
X007685Y008731D03*
X007485Y010631D03*
X006385Y012181D03*
X005785Y011891D03*
X004775Y011751D03*
X004525Y010771D03*
X003505Y010411D03*
X003485Y009631D03*
X003805Y009151D03*
X004365Y008991D03*
X005185Y007971D03*
X004685Y006431D03*
X003185Y007431D03*
X002375Y010931D03*
X001535Y010631D03*
X003285Y012731D03*
X003919Y013076D03*
X003735Y014051D03*
X003855Y015501D03*
X002885Y016731D03*
X002785Y017581D03*
X001785Y017281D03*
X001185Y018181D03*
X002285Y013781D03*
X004585Y017381D03*
X005565Y017851D03*
X005935Y015031D03*
X006535Y014231D03*
X005685Y014031D03*
X010985Y005181D03*
X014785Y013781D03*
X017085Y017381D03*
X018065Y017851D03*
X020585Y016381D03*
X021235Y017531D03*
X021985Y016781D03*
X021585Y015181D03*
X022635Y010831D03*
X021187Y010339D03*
X021085Y009731D03*
X020185Y008731D03*
X019985Y010631D03*
X023485Y005181D03*
X027285Y013781D03*
X029585Y017381D03*
X030565Y017851D03*
X033085Y016381D03*
X033735Y017531D03*
X034485Y016781D03*
X034085Y015181D03*
X035135Y010831D03*
X033687Y010339D03*
X033585Y009731D03*
X032685Y008731D03*
X032485Y010631D03*
X035985Y005181D03*
X039785Y013781D03*
X042085Y017381D03*
X043065Y017851D03*
X043435Y015031D03*
X044035Y014231D03*
X043185Y014031D03*
X048485Y005181D03*
X052285Y013781D03*
X054585Y017381D03*
X055565Y017851D03*
X055935Y015031D03*
X056535Y014231D03*
X055685Y014031D03*
X061485Y016481D03*
X060985Y027181D03*
X057685Y030731D03*
X058585Y031731D03*
X058687Y032339D03*
X057485Y032631D03*
X056385Y034181D03*
X055785Y033891D03*
X054775Y033751D03*
X054525Y032771D03*
X053505Y032411D03*
X053485Y031631D03*
X053805Y031151D03*
X054365Y030991D03*
X055185Y029971D03*
X054685Y028431D03*
X053185Y029431D03*
X052375Y032931D03*
X051535Y032631D03*
X053285Y034731D03*
X053919Y035076D03*
X053735Y036051D03*
X053855Y037501D03*
X052885Y038731D03*
X052785Y039581D03*
X051785Y039281D03*
X051185Y040181D03*
X048985Y038481D03*
X046985Y038781D03*
X046235Y039531D03*
X045585Y038381D03*
X046585Y037181D03*
X045595Y035781D03*
X046385Y035331D03*
X046785Y034931D03*
X047185Y034531D03*
X047635Y035631D03*
X047635Y032831D03*
X046187Y032339D03*
X046085Y031731D03*
X045185Y030731D03*
X044985Y032631D03*
X043885Y034181D03*
X043285Y033891D03*
X042275Y033751D03*
X042025Y032771D03*
X041005Y032411D03*
X040985Y031631D03*
X041305Y031151D03*
X041865Y030991D03*
X042685Y029971D03*
X042185Y028431D03*
X040685Y029431D03*
X039875Y032931D03*
X039035Y032631D03*
X040785Y034731D03*
X041419Y035076D03*
X041235Y036051D03*
X041355Y037501D03*
X040385Y038731D03*
X040285Y039581D03*
X039285Y039281D03*
X038685Y040181D03*
X036485Y038481D03*
X035135Y035631D03*
X034285Y034931D03*
X034685Y034531D03*
X033885Y035331D03*
X033095Y035781D03*
X031535Y036231D03*
X030935Y037031D03*
X030685Y036031D03*
X028735Y036051D03*
X028855Y037501D03*
X027885Y038731D03*
X027785Y039581D03*
X026785Y039281D03*
X026185Y040181D03*
X023985Y038481D03*
X022635Y035631D03*
X022185Y034531D03*
X021785Y034931D03*
X021385Y035331D03*
X020595Y035781D03*
X019035Y036231D03*
X018435Y037031D03*
X018185Y036031D03*
X016419Y035076D03*
X015785Y034731D03*
X016235Y036051D03*
X016355Y037501D03*
X015385Y038731D03*
X015285Y039581D03*
X014285Y039281D03*
X013685Y040181D03*
X011485Y038481D03*
X009485Y038781D03*
X008735Y039531D03*
X008085Y038381D03*
X009085Y037181D03*
X008095Y035781D03*
X008885Y035331D03*
X009285Y034931D03*
X009685Y034531D03*
X010135Y035631D03*
X010135Y032831D03*
X008687Y032339D03*
X008585Y031731D03*
X007685Y030731D03*
X007485Y032631D03*
X006385Y034181D03*
X005785Y033891D03*
X004775Y033751D03*
X004525Y032771D03*
X003505Y032411D03*
X003485Y031631D03*
X003805Y031151D03*
X004365Y030991D03*
X005185Y029971D03*
X004685Y028431D03*
X003185Y029431D03*
X002375Y032931D03*
X001535Y032631D03*
X003285Y034731D03*
X003919Y035076D03*
X003735Y036051D03*
X003855Y037501D03*
X002885Y038731D03*
X002785Y039581D03*
X001785Y039281D03*
X001185Y040181D03*
X002285Y035781D03*
X004585Y039381D03*
X005565Y039851D03*
X005935Y037031D03*
X006535Y036231D03*
X005685Y036031D03*
X010985Y027181D03*
X015685Y029431D03*
X016305Y031151D03*
X015985Y031631D03*
X016005Y032411D03*
X016865Y030991D03*
X017685Y029971D03*
X017185Y028431D03*
X020185Y030731D03*
X021085Y031731D03*
X021187Y032339D03*
X019985Y032631D03*
X018885Y034181D03*
X018285Y033891D03*
X017275Y033751D03*
X017025Y032771D03*
X014875Y032931D03*
X014035Y032631D03*
X014785Y035781D03*
X017085Y039381D03*
X018065Y039851D03*
X020585Y038381D03*
X021235Y039531D03*
X021985Y038781D03*
X021585Y037181D03*
X022635Y032831D03*
X026535Y032631D03*
X027375Y032931D03*
X028505Y032411D03*
X028485Y031631D03*
X028805Y031151D03*
X029365Y030991D03*
X030185Y029971D03*
X029685Y028431D03*
X028185Y029431D03*
X029525Y032771D03*
X029775Y033751D03*
X030785Y033891D03*
X031385Y034181D03*
X032485Y032631D03*
X033687Y032339D03*
X033585Y031731D03*
X032685Y030731D03*
X035135Y032831D03*
X034085Y037181D03*
X033085Y038381D03*
X033735Y039531D03*
X034485Y038781D03*
X030565Y039851D03*
X029585Y039381D03*
X027285Y035781D03*
X028285Y034731D03*
X028919Y035076D03*
X023485Y027181D03*
X035985Y027181D03*
X039785Y035781D03*
X042085Y039381D03*
X043065Y039851D03*
X043435Y037031D03*
X044035Y036231D03*
X043185Y036031D03*
X048485Y027181D03*
X052285Y035781D03*
X054585Y039381D03*
X055565Y039851D03*
X055935Y037031D03*
X056535Y036231D03*
X055685Y036031D03*
X058095Y035781D03*
X058885Y035331D03*
X059285Y034931D03*
X059685Y034531D03*
X060135Y035631D03*
X059085Y037181D03*
X058085Y038381D03*
X058735Y039531D03*
X059485Y038781D03*
X061485Y038481D03*
X060135Y032831D03*
X060985Y049181D03*
X057685Y052731D03*
X058585Y053731D03*
X058687Y054339D03*
X057485Y054631D03*
X056385Y056181D03*
X055785Y055891D03*
X054775Y055751D03*
X054525Y054771D03*
X053505Y054411D03*
X053485Y053631D03*
X053805Y053151D03*
X054365Y052991D03*
X055185Y051971D03*
X054685Y050431D03*
X053185Y051431D03*
X052375Y054931D03*
X051535Y054631D03*
X053285Y056731D03*
X053919Y057076D03*
X053735Y058051D03*
X053855Y059501D03*
X052885Y060731D03*
X052785Y061581D03*
X051785Y061281D03*
X051185Y062181D03*
X048985Y060481D03*
X046985Y060781D03*
X046235Y061531D03*
X045585Y060381D03*
X046585Y059181D03*
X045595Y057781D03*
X046385Y057331D03*
X046785Y056931D03*
X047185Y056531D03*
X047635Y057631D03*
X047635Y054831D03*
X046187Y054339D03*
X046085Y053731D03*
X045185Y052731D03*
X044985Y054631D03*
X043885Y056181D03*
X043285Y055891D03*
X042275Y055751D03*
X042025Y054771D03*
X041005Y054411D03*
X040985Y053631D03*
X041305Y053151D03*
X041865Y052991D03*
X042685Y051971D03*
X042185Y050431D03*
X040685Y051431D03*
X039875Y054931D03*
X039035Y054631D03*
X040785Y056731D03*
X041419Y057076D03*
X041235Y058051D03*
X041355Y059501D03*
X040385Y060731D03*
X040285Y061581D03*
X039285Y061281D03*
X038685Y062181D03*
X036485Y060481D03*
X035135Y057631D03*
X034285Y056931D03*
X034685Y056531D03*
X033885Y057331D03*
X033095Y057781D03*
X031535Y058231D03*
X030935Y059031D03*
X030685Y058031D03*
X028735Y058051D03*
X028855Y059501D03*
X027885Y060731D03*
X027785Y061581D03*
X026785Y061281D03*
X026185Y062181D03*
X023985Y060481D03*
X022635Y057631D03*
X022185Y056531D03*
X021785Y056931D03*
X021385Y057331D03*
X020595Y057781D03*
X019035Y058231D03*
X018435Y059031D03*
X018185Y058031D03*
X016419Y057076D03*
X015785Y056731D03*
X016235Y058051D03*
X016355Y059501D03*
X015385Y060731D03*
X015285Y061581D03*
X014285Y061281D03*
X013685Y062181D03*
X011485Y060481D03*
X009485Y060781D03*
X008735Y061531D03*
X008085Y060381D03*
X009085Y059181D03*
X008095Y057781D03*
X008885Y057331D03*
X009285Y056931D03*
X009685Y056531D03*
X010135Y057631D03*
X010135Y054831D03*
X008687Y054339D03*
X008585Y053731D03*
X007685Y052731D03*
X007485Y054631D03*
X006385Y056181D03*
X005785Y055891D03*
X004775Y055751D03*
X004525Y054771D03*
X003505Y054411D03*
X003485Y053631D03*
X003805Y053151D03*
X004365Y052991D03*
X005185Y051971D03*
X004685Y050431D03*
X003185Y051431D03*
X002375Y054931D03*
X001535Y054631D03*
X003285Y056731D03*
X003919Y057076D03*
X003735Y058051D03*
X003855Y059501D03*
X002885Y060731D03*
X002785Y061581D03*
X001785Y061281D03*
X001185Y062181D03*
X002285Y057781D03*
X004585Y061381D03*
X005565Y061851D03*
X005935Y059031D03*
X006535Y058231D03*
X005685Y058031D03*
X010985Y049181D03*
X015685Y051431D03*
X016305Y053151D03*
X015985Y053631D03*
X016005Y054411D03*
X016865Y052991D03*
X017685Y051971D03*
X017185Y050431D03*
X020185Y052731D03*
X021085Y053731D03*
X021187Y054339D03*
X019985Y054631D03*
X018885Y056181D03*
X018285Y055891D03*
X017275Y055751D03*
X017025Y054771D03*
X014875Y054931D03*
X014035Y054631D03*
X014785Y057781D03*
X017085Y061381D03*
X018065Y061851D03*
X020585Y060381D03*
X021235Y061531D03*
X021985Y060781D03*
X021585Y059181D03*
X022635Y054831D03*
X026535Y054631D03*
X027375Y054931D03*
X028505Y054411D03*
X028485Y053631D03*
X028805Y053151D03*
X029365Y052991D03*
X030185Y051971D03*
X029685Y050431D03*
X028185Y051431D03*
X029525Y054771D03*
X029775Y055751D03*
X030785Y055891D03*
X031385Y056181D03*
X032485Y054631D03*
X033687Y054339D03*
X033585Y053731D03*
X032685Y052731D03*
X035135Y054831D03*
X034085Y059181D03*
X033085Y060381D03*
X033735Y061531D03*
X034485Y060781D03*
X030565Y061851D03*
X029585Y061381D03*
X027285Y057781D03*
X028285Y056731D03*
X028919Y057076D03*
X023485Y049181D03*
X035985Y049181D03*
X039785Y057781D03*
X042085Y061381D03*
X043065Y061851D03*
X043435Y059031D03*
X044035Y058231D03*
X043185Y058031D03*
X048485Y049181D03*
X052285Y057781D03*
X054585Y061381D03*
X055565Y061851D03*
X055935Y059031D03*
X056535Y058231D03*
X055685Y058031D03*
X058095Y057781D03*
X058885Y057331D03*
X059285Y056931D03*
X059685Y056531D03*
X060135Y057631D03*
X059085Y059181D03*
X058085Y060381D03*
X058735Y061531D03*
X059485Y060781D03*
X061485Y060481D03*
X060135Y054831D03*
X060985Y071181D03*
X058585Y075731D03*
X058687Y076339D03*
X057485Y076631D03*
X056385Y078181D03*
X055785Y077891D03*
X054775Y077751D03*
X054525Y076771D03*
X053505Y076411D03*
X053485Y075631D03*
X053805Y075151D03*
X054365Y074991D03*
X055185Y073971D03*
X054685Y072431D03*
X053185Y073431D03*
X052375Y076931D03*
X051535Y076631D03*
X053285Y078731D03*
X053919Y079076D03*
X053735Y080051D03*
X053855Y081501D03*
X052885Y082731D03*
X052785Y083581D03*
X051785Y083281D03*
X051185Y084181D03*
X048985Y082481D03*
X046985Y082781D03*
X046235Y083531D03*
X045585Y082381D03*
X046585Y081181D03*
X045595Y079781D03*
X046385Y079331D03*
X046785Y078931D03*
X047185Y078531D03*
X047635Y079631D03*
X047635Y076831D03*
X046187Y076339D03*
X046085Y075731D03*
X045185Y074731D03*
X044985Y076631D03*
X043885Y078181D03*
X043285Y077891D03*
X042275Y077751D03*
X042025Y076771D03*
X041005Y076411D03*
X040985Y075631D03*
X041305Y075151D03*
X041865Y074991D03*
X042685Y073971D03*
X042185Y072431D03*
X040685Y073431D03*
X039875Y076931D03*
X039035Y076631D03*
X040785Y078731D03*
X041419Y079076D03*
X041235Y080051D03*
X041355Y081501D03*
X040385Y082731D03*
X040285Y083581D03*
X039285Y083281D03*
X038685Y084181D03*
X036485Y082481D03*
X035135Y079631D03*
X034285Y078931D03*
X034685Y078531D03*
X033885Y079331D03*
X033095Y079781D03*
X031535Y080231D03*
X030935Y081031D03*
X030685Y080031D03*
X028735Y080051D03*
X028855Y081501D03*
X027885Y082731D03*
X027785Y083581D03*
X026785Y083281D03*
X026185Y084181D03*
X023985Y082481D03*
X022635Y079631D03*
X022185Y078531D03*
X021785Y078931D03*
X021385Y079331D03*
X020595Y079781D03*
X019035Y080231D03*
X018435Y081031D03*
X018185Y080031D03*
X016419Y079076D03*
X015785Y078731D03*
X016235Y080051D03*
X016355Y081501D03*
X015385Y082731D03*
X015285Y083581D03*
X014285Y083281D03*
X013685Y084181D03*
X011485Y082481D03*
X009485Y082781D03*
X008735Y083531D03*
X008085Y082381D03*
X009085Y081181D03*
X008095Y079781D03*
X008885Y079331D03*
X009285Y078931D03*
X009685Y078531D03*
X010135Y079631D03*
X010135Y076831D03*
X008687Y076339D03*
X008585Y075731D03*
X007685Y074731D03*
X007485Y076631D03*
X006385Y078181D03*
X005785Y077891D03*
X004775Y077751D03*
X004525Y076771D03*
X003505Y076411D03*
X003485Y075631D03*
X003805Y075151D03*
X004365Y074991D03*
X005185Y073971D03*
X004685Y072431D03*
X003185Y073431D03*
X002375Y076931D03*
X001535Y076631D03*
X003285Y078731D03*
X003919Y079076D03*
X003735Y080051D03*
X003855Y081501D03*
X002885Y082731D03*
X002785Y083581D03*
X001785Y083281D03*
X001185Y084181D03*
X002285Y079781D03*
X004585Y083381D03*
X005565Y083851D03*
X005935Y081031D03*
X006535Y080231D03*
X005685Y080031D03*
X010985Y071181D03*
X014035Y076631D03*
X014875Y076931D03*
X016005Y076411D03*
X015985Y075631D03*
X016305Y075151D03*
X016865Y074991D03*
X017685Y073971D03*
X017185Y072431D03*
X015685Y073431D03*
X017025Y076771D03*
X017275Y077751D03*
X018285Y077891D03*
X018885Y078181D03*
X019985Y076631D03*
X021187Y076339D03*
X021085Y075731D03*
X020185Y074731D03*
X022635Y076831D03*
X021585Y081181D03*
X020585Y082381D03*
X021235Y083531D03*
X021985Y082781D03*
X018065Y083851D03*
X017085Y083381D03*
X014785Y079781D03*
X023485Y071181D03*
X026535Y076631D03*
X027375Y076931D03*
X028505Y076411D03*
X028485Y075631D03*
X028805Y075151D03*
X029365Y074991D03*
X030185Y073971D03*
X029685Y072431D03*
X028185Y073431D03*
X029525Y076771D03*
X029775Y077751D03*
X030785Y077891D03*
X031385Y078181D03*
X032485Y076631D03*
X033687Y076339D03*
X033585Y075731D03*
X032685Y074731D03*
X035135Y076831D03*
X034085Y081181D03*
X033085Y082381D03*
X033735Y083531D03*
X034485Y082781D03*
X030565Y083851D03*
X029585Y083381D03*
X027285Y079781D03*
X028285Y078731D03*
X028919Y079076D03*
X035985Y071181D03*
X039785Y079781D03*
X042085Y083381D03*
X043065Y083851D03*
X043435Y081031D03*
X044035Y080231D03*
X043185Y080031D03*
X048485Y071181D03*
X052285Y079781D03*
X054585Y083381D03*
X055565Y083851D03*
X055935Y081031D03*
X056535Y080231D03*
X055685Y080031D03*
X058095Y079781D03*
X058885Y079331D03*
X059285Y078931D03*
X059685Y078531D03*
X060135Y079631D03*
X059085Y081181D03*
X058085Y082381D03*
X058735Y083531D03*
X059485Y082781D03*
X061485Y082481D03*
X060135Y076831D03*
X057685Y074731D03*
X060985Y005181D03*
M02*
