%
M48
M72
T01C0.0150
T02C0.0240
T03C0.0320
T04C0.0400
T05C0.0550
T06C0.0700
T07C0.1300
%
T01
X33932Y29689
X34432Y29689
T02
X33282Y27689
X31782Y28189
X30182Y28489
X28682Y26689
X27082Y26689
X27082Y28089
X27082Y29489
X27082Y30989
X27082Y32489
X28482Y32489
X29882Y32489
X31282Y32489
X32482Y32489
X35382Y32489
X36882Y32489
X38382Y32489
X38382Y31089
X38382Y29389
X39982Y29189
X40882Y27789
X40882Y27189
X42182Y25989
X42682Y24489
X42182Y24089
X42682Y23689
X42182Y23289
X41682Y21989
X43382Y21089
X42682Y20389
X40882Y18989
X40882Y18389
X39182Y18389
X37682Y16989
X36282Y15589
X36682Y15189
X37082Y14789
X37182Y13689
X37282Y12889
X37882Y12489
X36182Y11389
X35782Y11789
X34982Y10989
X34082Y11939
X32082Y11939
X31282Y11139
X31282Y10589
X31282Y10039
X31282Y9489
X31382Y8289
X31382Y7289
X30482Y7289
X28982Y7589
X29382Y8489
X29382Y10489
X29532Y12589
X28982Y12589
X30082Y13589
X31082Y13589
X31882Y15339
X31332Y15539
X31682Y17489
X30982Y17689
X32082Y18389
X32082Y19089
X33482Y17889
X33382Y16989
X33882Y16089
X33282Y13889
X27485Y16292
X26182Y15889
X25782Y15489
X25382Y15089
X24982Y14689
X23082Y15689
X22532Y15489
X24482Y16589
X24482Y17189
X25082Y16689
X27453Y18261
X30232Y19289
X31282Y21189
X30782Y21889
X30082Y22489
X28932Y21689
X28732Y21089
X26607Y21714
X26232Y22089
X27382Y23189
X25882Y25189
X22882Y27489
X18362Y23999
X17632Y23089
X18402Y21879
X17082Y21389
X16282Y21189
X17382Y19489
X19882Y17489
X20482Y17489
X21782Y18389
X21582Y19189
X21332Y19739
X21082Y20289
X24082Y21589
X24282Y20289
X22182Y17589
X19082Y13889
X17182Y14889
X17482Y16489
X15682Y17089
X9682Y13289
X17282Y8989
X17682Y8389
X18082Y7989
X18482Y7589
X16682Y6889
X16682Y6339
X15132Y7439
X14782Y5889
X14082Y5889
X12782Y5189
X18482Y5389
X19482Y5489
X20482Y5489
X21482Y5389
X22482Y5389
X23482Y5489
X24482Y5489
X25482Y5389
X26482Y5389
X27482Y5489
X28482Y5489
X29482Y5389
X33582Y8089
X38982Y6489
X39482Y7089
X39682Y5889
X39482Y7989
X42182Y9189
X40782Y10289
X40882Y10989
X42682Y12389
X43382Y13089
X41982Y14189
X42882Y15189
X42282Y15789
X42182Y17189
X39882Y20389
X37082Y19389
X34682Y20189
X33582Y21189
X33582Y21889
X34682Y22689
X35782Y23189
X36182Y24589
X35382Y24889
X36682Y25589
X37882Y25089
X38582Y25189
X39582Y25089
X38382Y27689
X42682Y29189
X43382Y29889
X41782Y30789
X42082Y32089
X42682Y32489
X42182Y33989
X40882Y35189
X40882Y35789
X39882Y37189
X41782Y38789
X43382Y37889
X42682Y37189
X47582Y33089
X48982Y31489
X49882Y31489
X52982Y33889
X53582Y33889
X53632Y34439
X54607Y34689
X54607Y34139
X54482Y33489
X54582Y32489
X53982Y32089
X54182Y30489
X54382Y29689
X52982Y28189
X52482Y27889
X53657Y26339
X53482Y25789
X52882Y25889
X54482Y25489
X54607Y26139
X54607Y26689
X54607Y27689
X56107Y27139
X56657Y27139
X54582Y24489
X53982Y24089
X54582Y23689
X53982Y23289
X54182Y21689
X54382Y20889
X52982Y19389
X52482Y19089
X53657Y17539
X53482Y16989
X52882Y17089
X53582Y15589
X54082Y15189
X54482Y16489
X54607Y17339
X54607Y17889
X54607Y18889
X56107Y18339
X56657Y18339
X57282Y21389
X49882Y22689
X48982Y22689
X47582Y25089
X48882Y27289
X57282Y30189
X56657Y35139
X56107Y35139
X54607Y35689
X53082Y36189
X52582Y35789
X54482Y37789
X54082Y38489
X58082Y37789
X49982Y39489
X49082Y39489
X48982Y35339
X35182Y21489
X32182Y20989
X40082Y12989
X47582Y16289
X48882Y14689
X49882Y14689
X54182Y13689
X54382Y12889
X52982Y11389
X52482Y11089
X53657Y9539
X53482Y8989
X52882Y9089
X54482Y8589
X54607Y9339
X54607Y9889
X54607Y10889
X56107Y10339
X56657Y10339
X56882Y13289
X48782Y10489
X47582Y8289
X55482Y5489
X48782Y18489
X26382Y12789
X26182Y12239
X26532Y11489
X24806Y12389
X24182Y12489
X26182Y10089
X18082Y10589
X11482Y22989
X11482Y24889
X11482Y25889
X11482Y27889
X11482Y29889
X11482Y30889
X11482Y31889
X11482Y33889
X11482Y34889
X16982Y34289
X17582Y34489
X17582Y33889
X16982Y33389
X17782Y32889
X17282Y32389
X17182Y31389
X16782Y30889
X17082Y29989
X17982Y30489
X17882Y31489
X18382Y31889
X19482Y33089
X19782Y34089
X20682Y34389
X19982Y35089
X21482Y35089
X22382Y34389
X23082Y35189
X24182Y34389
X24982Y35189
X25482Y38189
X25382Y38789
X18282Y34289
X18082Y34889
X17582Y35389
X15782Y29889
X17282Y28389
X17382Y26389
X15682Y25889
X16112Y23719
T03
X15382Y10589
X16382Y9589
X14382Y9589
T04
X9082Y7539
X8082Y7439
X7082Y7539
X5382Y7539
X4382Y7439
X3382Y7539
X3582Y10089
X4582Y10089
X4382Y12089
X5382Y12189
X6382Y12089
X7382Y12189
X8382Y12089
X3382Y12189
X5122Y18379
X5122Y19459
X6242Y18919
X6242Y19999
X6242Y21079
X6242Y22159
X5122Y21619
X5122Y20539
X5122Y22699
X13982Y22289
X14982Y22289
X14982Y24389
X13982Y24389
X13982Y25389
X14982Y25389
X14982Y26389
X13982Y26389
X13982Y27389
X14982Y27389
X14982Y28389
X13982Y28389
X13982Y29389
X14982Y29389
X14982Y30389
X13982Y30389
X13982Y31389
X14982Y31389
X14982Y32389
X13982Y32389
X13982Y33389
X14982Y33389
X14982Y34389
X13982Y34389
X13982Y35389
X14982Y35389
X15782Y38639
X16782Y38739
X14782Y38739
X19582Y39089
X20582Y39089
X21582Y39089
X22582Y39089
X22582Y38089
X21582Y38089
X20582Y38089
X19582Y38089
X6482Y35189
X5482Y35189
X5482Y34189
X6482Y34189
X6482Y33189
X5482Y33189
X5482Y32189
X6482Y32189
X13982Y20389
X14982Y20389
X14382Y16189
X13382Y16189
X13382Y15189
X14382Y15189
X14382Y14189
X13382Y14189
X19432Y10789
X19332Y9789
X20732Y9789
X20832Y10789
X22232Y10789
X22132Y9789
X23532Y9789
X23632Y10789
X23632Y8789
X22232Y8789
X20832Y8789
X19432Y8789
X18982Y4039
X19982Y3939
X20982Y4039
X21982Y3939
X22982Y4039
X23982Y3939
X24982Y4039
X25982Y3939
X26982Y4039
X27982Y3939
X28982Y4039
X29982Y3939
X31882Y4089
X32882Y3989
X33882Y4089
X34882Y3989
X35882Y4089
X36882Y3989
X21282Y15389
X29482Y23989
X31482Y23989
X33482Y23989
X35282Y23989
X37482Y23989
X37382Y26639
X36382Y26739
X35382Y26639
X34382Y26739
X33382Y26639
X32382Y26739
X31382Y26639
X30382Y26739
X39682Y40389
X43082Y40389
X46282Y40389
X51182Y40489
X16982Y4039
X17982Y3939
X15982Y3939
X14982Y4039
T05
X41482Y4289
X43082Y4289
X45382Y4289
X46982Y4289
X49282Y4289
X50882Y4289
X45382Y8889
X48282Y13689
X45382Y16889
X48282Y21689
X45382Y25689
X48282Y30489
X45382Y33689
X48282Y38489
T06
X11792Y4589
X9822Y4589
X7852Y4589
X5882Y4589
T07
X2182Y2189
X5682Y15609
X5682Y25469
X2182Y42189
X58182Y42189
X58182Y2189
M30
