G75*
G70*
%OFA0B0*%
%FSLAX24Y24*%
%IPPOS*%
%LPD*%
%AMOC8*
5,1,8,0,0,1.08239X$1,22.5*
%
%ADD10C,0.0070*%
%ADD11C,0.0060*%
%ADD12C,0.0080*%
%ADD13C,0.0141*%
%ADD14C,0.0040*%
%ADD15C,0.0050*%
%ADD16R,0.0620X0.0240*%
%ADD17R,0.2441X0.0492*%
%ADD18C,0.0090*%
%ADD19R,0.0240X0.0620*%
D10*
X010589Y007683D02*
X010876Y007396D01*
X010876Y007324D01*
X011049Y007683D02*
X011336Y007396D01*
X011336Y007324D01*
X011510Y007324D02*
X011653Y007468D01*
X011582Y007468D02*
X011797Y007468D01*
X011797Y007324D02*
X011797Y007755D01*
X011582Y007755D01*
X011510Y007683D01*
X011510Y007539D01*
X011582Y007468D01*
X011336Y007755D02*
X011049Y007755D01*
X011049Y007683D01*
X010876Y007755D02*
X010589Y007755D01*
X010589Y007683D01*
X012270Y006783D02*
X012270Y006711D01*
X012342Y006639D01*
X012270Y006568D01*
X012270Y006496D01*
X012342Y006424D01*
X012485Y006424D01*
X012557Y006496D01*
X012414Y006639D02*
X012342Y006639D01*
X012270Y006783D02*
X012342Y006855D01*
X012485Y006855D01*
X012557Y006783D01*
X012731Y006783D02*
X013018Y006496D01*
X013018Y006424D01*
X013191Y006424D02*
X013334Y006568D01*
X013263Y006568D02*
X013478Y006568D01*
X013478Y006424D02*
X013478Y006855D01*
X013263Y006855D01*
X013191Y006783D01*
X013191Y006639D01*
X013263Y006568D01*
X013018Y006855D02*
X012731Y006855D01*
X012731Y006783D01*
X013911Y007924D02*
X013839Y007996D01*
X013839Y008283D01*
X013911Y008355D01*
X014054Y008355D01*
X014126Y008283D01*
X014126Y008211D01*
X014054Y008139D01*
X013839Y008139D01*
X013911Y007924D02*
X014054Y007924D01*
X014126Y007996D01*
X014299Y008139D02*
X014586Y008139D01*
X014371Y008355D01*
X014371Y007924D01*
X014760Y007996D02*
X014832Y007924D01*
X014975Y007924D01*
X015047Y007996D01*
X015047Y008283D01*
X014975Y008355D01*
X014832Y008355D01*
X014760Y008283D01*
X013747Y008515D02*
X013675Y008443D01*
X013388Y008443D01*
X013317Y008515D01*
X013317Y008658D01*
X013388Y008730D01*
X013388Y008904D02*
X013317Y008975D01*
X013317Y009119D01*
X013388Y009190D01*
X013532Y009190D01*
X013604Y009119D01*
X013604Y009047D01*
X013532Y008904D01*
X013747Y008904D01*
X013747Y009190D01*
X013675Y009364D02*
X013747Y009436D01*
X013747Y009579D01*
X013675Y009651D01*
X013604Y009651D01*
X013317Y009364D01*
X013317Y009651D01*
X013197Y010524D02*
X013197Y010955D01*
X012982Y010955D01*
X012910Y010883D01*
X012910Y010739D01*
X012982Y010668D01*
X013197Y010668D01*
X013053Y010668D02*
X012910Y010524D01*
X012736Y010524D02*
X012736Y010596D01*
X012449Y010883D01*
X012449Y010955D01*
X012736Y010955D01*
X012276Y010955D02*
X012276Y010739D01*
X012133Y010811D01*
X012061Y010811D01*
X011989Y010739D01*
X011989Y010596D01*
X012061Y010524D01*
X012204Y010524D01*
X012276Y010596D01*
X012276Y010955D02*
X011989Y010955D01*
X011797Y010105D02*
X011582Y010105D01*
X011510Y010033D01*
X011510Y009746D01*
X011582Y009674D01*
X011797Y009674D01*
X011797Y010105D01*
X011336Y009889D02*
X011049Y009889D01*
X010876Y009961D02*
X010804Y009889D01*
X010589Y009889D01*
X010589Y009746D02*
X010589Y010033D01*
X010661Y010105D01*
X010804Y010105D01*
X010876Y010033D01*
X010876Y009961D01*
X010876Y009746D02*
X010804Y009674D01*
X010661Y009674D01*
X010589Y009746D01*
X011121Y009674D02*
X011121Y010105D01*
X011336Y009889D01*
X013317Y011015D02*
X013317Y011158D01*
X013388Y011230D01*
X013388Y011404D02*
X013317Y011475D01*
X013317Y011619D01*
X013388Y011690D01*
X013532Y011690D01*
X013604Y011619D01*
X013604Y011547D01*
X013532Y011404D01*
X013747Y011404D01*
X013747Y011690D01*
X013604Y011864D02*
X013747Y012007D01*
X013317Y012007D01*
X013317Y011864D02*
X013317Y012151D01*
X013675Y011230D02*
X013747Y011158D01*
X013747Y011015D01*
X013675Y010943D01*
X013388Y010943D01*
X013317Y011015D01*
X011697Y012374D02*
X011482Y012374D01*
X011410Y012446D01*
X011410Y012733D01*
X011482Y012805D01*
X011697Y012805D01*
X011697Y012374D01*
X011236Y012589D02*
X010949Y012589D01*
X010776Y012518D02*
X010704Y012589D01*
X010561Y012589D01*
X010489Y012518D01*
X010489Y012446D01*
X010561Y012374D01*
X010704Y012374D01*
X010776Y012446D01*
X010776Y012518D01*
X010704Y012589D02*
X010776Y012661D01*
X010776Y012733D01*
X010704Y012805D01*
X010561Y012805D01*
X010489Y012733D01*
X010489Y012661D01*
X010561Y012589D01*
X011021Y012374D02*
X011021Y012805D01*
X011236Y012589D01*
X011188Y014943D02*
X011117Y015015D01*
X011117Y015158D01*
X011188Y015230D01*
X011117Y015404D02*
X011117Y015690D01*
X011117Y015547D02*
X011547Y015547D01*
X011404Y015404D01*
X011475Y015230D02*
X011547Y015158D01*
X011547Y015015D01*
X011475Y014943D01*
X011188Y014943D01*
X011188Y015864D02*
X011260Y015864D01*
X011332Y015936D01*
X011332Y016079D01*
X011260Y016151D01*
X011188Y016151D01*
X011117Y016079D01*
X011117Y015936D01*
X011188Y015864D01*
X011332Y015936D02*
X011404Y015864D01*
X011475Y015864D01*
X011547Y015936D01*
X011547Y016079D01*
X011475Y016151D01*
X011404Y016151D01*
X011332Y016079D01*
X013367Y018193D02*
X013367Y018408D01*
X013438Y018480D01*
X013725Y018480D01*
X013797Y018408D01*
X013797Y018193D01*
X013367Y018193D01*
X013582Y018654D02*
X013582Y018940D01*
X013582Y019114D02*
X013582Y019401D01*
X013797Y019329D02*
X013582Y019114D01*
X013367Y019329D02*
X013797Y019329D01*
X013797Y018869D02*
X013582Y018654D01*
X013367Y018869D02*
X013797Y018869D01*
X015770Y019524D02*
X016057Y019524D01*
X015770Y019811D01*
X015770Y019883D01*
X015842Y019955D01*
X015985Y019955D01*
X016057Y019883D01*
X016231Y019883D02*
X016302Y019955D01*
X016446Y019955D01*
X016518Y019883D01*
X016691Y019883D02*
X016691Y019739D01*
X016763Y019668D01*
X016978Y019668D01*
X016834Y019668D02*
X016691Y019524D01*
X016518Y019524D02*
X016231Y019811D01*
X016231Y019883D01*
X016231Y019524D02*
X016518Y019524D01*
X016691Y019883D02*
X016763Y019955D01*
X016978Y019955D01*
X016978Y019524D01*
X018917Y020193D02*
X019347Y020193D01*
X019347Y020408D01*
X019275Y020480D01*
X019132Y020480D01*
X019060Y020408D01*
X019060Y020193D01*
X019060Y020337D02*
X018917Y020480D01*
X018917Y020654D02*
X018988Y020654D01*
X019275Y020940D01*
X019347Y020940D01*
X019347Y020654D01*
X019275Y021114D02*
X019347Y021186D01*
X019347Y021329D01*
X019275Y021401D01*
X018988Y021114D01*
X018917Y021186D01*
X018917Y021329D01*
X018988Y021401D01*
X019275Y021401D01*
X019275Y021114D02*
X018988Y021114D01*
X019317Y022293D02*
X019747Y022293D01*
X019747Y022508D01*
X019675Y022580D01*
X019532Y022580D01*
X019460Y022508D01*
X019460Y022293D01*
X019460Y022437D02*
X019317Y022580D01*
X019388Y022754D02*
X019317Y022825D01*
X019317Y022969D01*
X019388Y023040D01*
X019460Y023040D01*
X019532Y022969D01*
X019532Y022754D01*
X019388Y022754D01*
X019532Y022754D02*
X019675Y022897D01*
X019747Y023040D01*
X019675Y023214D02*
X019604Y023214D01*
X019532Y023286D01*
X019532Y023501D01*
X019675Y023501D02*
X019747Y023429D01*
X019747Y023286D01*
X019675Y023214D01*
X019388Y023214D02*
X019317Y023286D01*
X019317Y023429D01*
X019388Y023501D01*
X019675Y023501D01*
X016977Y023556D02*
X016547Y023556D01*
X016547Y023699D02*
X016547Y023412D01*
X016618Y023239D02*
X016905Y023239D01*
X016977Y023167D01*
X016977Y022952D01*
X016547Y022952D01*
X016547Y023167D01*
X016618Y023239D01*
X016834Y023412D02*
X016977Y023556D01*
X016905Y023873D02*
X016977Y023944D01*
X016977Y024088D01*
X016905Y024159D01*
X016834Y024159D01*
X016762Y024088D01*
X016690Y024159D01*
X016618Y024159D01*
X016547Y024088D01*
X016547Y023944D01*
X016618Y023873D01*
X016762Y024016D02*
X016762Y024088D01*
X016877Y028252D02*
X016877Y028467D01*
X016805Y028539D01*
X016518Y028539D01*
X016447Y028467D01*
X016447Y028252D01*
X016877Y028252D01*
X016734Y028712D02*
X016877Y028856D01*
X016447Y028856D01*
X016447Y028999D02*
X016447Y028712D01*
X016447Y029173D02*
X016734Y029459D01*
X016805Y029459D01*
X016877Y029388D01*
X016877Y029244D01*
X016805Y029173D01*
X016447Y029173D02*
X016447Y029459D01*
X019548Y030266D02*
X019620Y030194D01*
X019763Y030194D01*
X019835Y030266D01*
X019548Y030553D01*
X019548Y030266D01*
X019835Y030266D02*
X019835Y030553D01*
X019763Y030625D01*
X019620Y030625D01*
X019548Y030553D01*
X020008Y030194D02*
X020295Y030194D01*
X020152Y030194D02*
X020152Y030625D01*
X020295Y030481D01*
X020469Y030553D02*
X020540Y030625D01*
X020755Y030625D01*
X020755Y030194D01*
X020540Y030194D01*
X020469Y030266D01*
X020469Y030553D01*
X019619Y032354D02*
X019404Y032354D01*
X019332Y032426D01*
X019332Y032713D01*
X019404Y032785D01*
X019619Y032785D01*
X019619Y032354D01*
X019159Y032354D02*
X018872Y032354D01*
X019015Y032354D02*
X019015Y032785D01*
X019159Y032641D01*
X018698Y032641D02*
X018555Y032785D01*
X018555Y032354D01*
X018698Y032354D02*
X018412Y032354D01*
X020489Y032796D02*
X020561Y032724D01*
X020704Y032724D01*
X020776Y032796D01*
X020489Y033083D01*
X020489Y032796D01*
X020489Y033083D02*
X020561Y033155D01*
X020704Y033155D01*
X020776Y033083D01*
X020776Y032796D01*
X020949Y032796D02*
X020949Y032868D01*
X021021Y032939D01*
X021236Y032939D01*
X021236Y032796D01*
X021165Y032724D01*
X021021Y032724D01*
X020949Y032796D01*
X021236Y032939D02*
X021093Y033083D01*
X020949Y033155D01*
X021410Y033083D02*
X021410Y032939D01*
X021482Y032868D01*
X021697Y032868D01*
X021553Y032868D02*
X021410Y032724D01*
X021697Y032724D02*
X021697Y033155D01*
X021482Y033155D01*
X021410Y033083D01*
X021178Y036324D02*
X021178Y036755D01*
X020963Y036755D01*
X020891Y036683D01*
X020891Y036539D01*
X020963Y036468D01*
X021178Y036468D01*
X021034Y036468D02*
X020891Y036324D01*
X020718Y036324D02*
X020431Y036324D01*
X020574Y036324D02*
X020574Y036755D01*
X020718Y036611D01*
X020257Y036683D02*
X020185Y036755D01*
X020042Y036755D01*
X019970Y036683D01*
X019970Y036611D01*
X020042Y036539D01*
X019970Y036468D01*
X019970Y036396D01*
X020042Y036324D01*
X020185Y036324D01*
X020257Y036396D01*
X020114Y036539D02*
X020042Y036539D01*
X019397Y036468D02*
X019182Y036468D01*
X019110Y036539D01*
X019110Y036683D01*
X019182Y036755D01*
X019397Y036755D01*
X019397Y036324D01*
X019253Y036468D02*
X019110Y036324D01*
X018936Y036324D02*
X018649Y036324D01*
X018793Y036324D02*
X018793Y036755D01*
X018936Y036611D01*
X018476Y036611D02*
X018333Y036755D01*
X018333Y036324D01*
X018476Y036324D02*
X018189Y036324D01*
X021770Y036324D02*
X022057Y036324D01*
X021770Y036611D01*
X021770Y036683D01*
X021842Y036755D01*
X021985Y036755D01*
X022057Y036683D01*
X022374Y036755D02*
X022374Y036324D01*
X022231Y036324D02*
X022518Y036324D01*
X022691Y036324D02*
X022834Y036468D01*
X022763Y036468D02*
X022978Y036468D01*
X022978Y036324D02*
X022978Y036755D01*
X022763Y036755D01*
X022691Y036683D01*
X022691Y036539D01*
X022763Y036468D01*
X022518Y036611D02*
X022374Y036755D01*
X023570Y036639D02*
X023857Y036639D01*
X023642Y036855D01*
X023642Y036424D01*
X024031Y036424D02*
X024318Y036424D01*
X024174Y036424D02*
X024174Y036855D01*
X024318Y036711D01*
X024491Y036639D02*
X024563Y036568D01*
X024778Y036568D01*
X024634Y036568D02*
X024491Y036424D01*
X024491Y036639D02*
X024491Y036783D01*
X024563Y036855D01*
X024778Y036855D01*
X024778Y036424D01*
X026117Y036574D02*
X026547Y036574D01*
X026547Y036789D01*
X026475Y036861D01*
X026332Y036861D01*
X026260Y036789D01*
X026260Y036574D01*
X026260Y036718D02*
X026117Y036861D01*
X026188Y037035D02*
X026117Y037106D01*
X026117Y037250D01*
X026188Y037322D01*
X026260Y037322D01*
X026332Y037250D01*
X026332Y037035D01*
X026188Y037035D01*
X026332Y037035D02*
X026475Y037178D01*
X026547Y037322D01*
X026475Y037495D02*
X026547Y037567D01*
X026547Y037710D01*
X026475Y037782D01*
X026404Y037782D01*
X026117Y037495D01*
X026117Y037782D01*
X024847Y039574D02*
X024417Y039574D01*
X024560Y039574D02*
X024560Y039789D01*
X024632Y039861D01*
X024775Y039861D01*
X024847Y039789D01*
X024847Y039574D01*
X024560Y039718D02*
X024417Y039861D01*
X024417Y040035D02*
X024417Y040322D01*
X024417Y040178D02*
X024847Y040178D01*
X024704Y040035D01*
X024632Y040495D02*
X024704Y040638D01*
X024704Y040710D01*
X024632Y040782D01*
X024488Y040782D01*
X024417Y040710D01*
X024417Y040567D01*
X024488Y040495D01*
X024632Y040495D02*
X024847Y040495D01*
X024847Y040782D01*
X023397Y042074D02*
X023182Y042074D01*
X023110Y042146D01*
X023110Y042433D01*
X023182Y042505D01*
X023397Y042505D01*
X023397Y042074D01*
X022936Y042146D02*
X022865Y042074D01*
X022721Y042074D01*
X022649Y042146D01*
X022649Y042433D01*
X022721Y042505D01*
X022865Y042505D01*
X022936Y042433D01*
X022936Y042361D01*
X022865Y042289D01*
X022649Y042289D01*
X021697Y042074D02*
X021482Y042074D01*
X021410Y042146D01*
X021410Y042433D01*
X021482Y042505D01*
X021697Y042505D01*
X021697Y042074D01*
X021236Y042146D02*
X021236Y042218D01*
X021165Y042289D01*
X021021Y042289D01*
X020949Y042218D01*
X020949Y042146D01*
X021021Y042074D01*
X021165Y042074D01*
X021236Y042146D01*
X021165Y042289D02*
X021236Y042361D01*
X021236Y042433D01*
X021165Y042505D01*
X021021Y042505D01*
X020949Y042433D01*
X020949Y042361D01*
X021021Y042289D01*
X020097Y042074D02*
X019882Y042074D01*
X019810Y042146D01*
X019810Y042433D01*
X019882Y042505D01*
X020097Y042505D01*
X020097Y042074D01*
X019636Y042074D02*
X019636Y042146D01*
X019349Y042433D01*
X019349Y042505D01*
X019636Y042505D01*
X010997Y035155D02*
X010782Y035155D01*
X010710Y035083D01*
X010710Y034939D01*
X010782Y034868D01*
X010997Y034868D01*
X010997Y034724D02*
X010997Y035155D01*
X010853Y034868D02*
X010710Y034724D01*
X010536Y034724D02*
X010249Y034724D01*
X010393Y034724D02*
X010393Y035155D01*
X010536Y035011D01*
X010076Y035155D02*
X009789Y035155D01*
X009789Y035083D01*
X010076Y034796D01*
X010076Y034724D01*
X010004Y034155D02*
X009861Y034155D01*
X009789Y034083D01*
X009789Y034011D01*
X009861Y033939D01*
X010004Y033939D01*
X010076Y034011D01*
X010076Y034083D01*
X010004Y034155D01*
X010004Y033939D02*
X010076Y033868D01*
X010076Y033796D01*
X010004Y033724D01*
X009861Y033724D01*
X009789Y033796D01*
X009789Y033868D01*
X009861Y033939D01*
X010249Y033724D02*
X010536Y033724D01*
X010393Y033724D02*
X010393Y034155D01*
X010536Y034011D01*
X010710Y033939D02*
X010782Y033868D01*
X010997Y033868D01*
X010997Y033724D02*
X010997Y034155D01*
X010782Y034155D01*
X010710Y034083D01*
X010710Y033939D01*
X010853Y033868D02*
X010710Y033724D01*
X010782Y032155D02*
X010710Y032083D01*
X010710Y031939D01*
X010782Y031868D01*
X010997Y031868D01*
X010997Y031724D02*
X010997Y032155D01*
X010782Y032155D01*
X010853Y031868D02*
X010710Y031724D01*
X010536Y031939D02*
X010249Y031939D01*
X010076Y031796D02*
X010004Y031724D01*
X009861Y031724D01*
X009789Y031796D01*
X009789Y031868D01*
X009861Y031939D01*
X009933Y031939D01*
X009861Y031939D02*
X009789Y032011D01*
X009789Y032083D01*
X009861Y032155D01*
X010004Y032155D01*
X010076Y032083D01*
X010321Y032155D02*
X010536Y031939D01*
X010321Y031724D02*
X010321Y032155D01*
X010321Y031055D02*
X010536Y030839D01*
X010249Y030839D01*
X010076Y030839D02*
X009789Y030839D01*
X009861Y030624D02*
X009861Y031055D01*
X010076Y030839D01*
X010321Y030624D02*
X010321Y031055D01*
X010710Y030983D02*
X010710Y030839D01*
X010782Y030768D01*
X010997Y030768D01*
X010997Y030624D02*
X010997Y031055D01*
X010782Y031055D01*
X010710Y030983D01*
X010853Y030768D02*
X010710Y030624D01*
X010782Y030055D02*
X010710Y029983D01*
X010710Y029839D01*
X010782Y029768D01*
X010997Y029768D01*
X010997Y029624D02*
X010997Y030055D01*
X010782Y030055D01*
X010853Y029768D02*
X010710Y029624D01*
X010536Y029839D02*
X010249Y029839D01*
X010076Y029839D02*
X009933Y029911D01*
X009861Y029911D01*
X009789Y029839D01*
X009789Y029696D01*
X009861Y029624D01*
X010004Y029624D01*
X010076Y029696D01*
X010076Y029839D02*
X010076Y030055D01*
X009789Y030055D01*
X010321Y030055D02*
X010321Y029624D01*
X010536Y029839D02*
X010321Y030055D01*
X010236Y028155D02*
X009949Y028155D01*
X009949Y028083D01*
X010236Y027796D01*
X010236Y027724D01*
X010410Y027724D02*
X010553Y027868D01*
X010482Y027868D02*
X010697Y027868D01*
X010697Y027724D02*
X010697Y028155D01*
X010482Y028155D01*
X010410Y028083D01*
X010410Y027939D01*
X010482Y027868D01*
X010465Y026055D02*
X010321Y026055D01*
X010249Y025983D01*
X010249Y025911D01*
X010321Y025839D01*
X010249Y025768D01*
X010249Y025696D01*
X010321Y025624D01*
X010465Y025624D01*
X010536Y025696D01*
X010710Y025624D02*
X010853Y025768D01*
X010782Y025768D02*
X010997Y025768D01*
X010997Y025624D02*
X010997Y026055D01*
X010782Y026055D01*
X010710Y025983D01*
X010710Y025839D01*
X010782Y025768D01*
X010536Y025983D02*
X010465Y026055D01*
X010393Y025839D02*
X010321Y025839D01*
X010076Y025839D02*
X009789Y025839D01*
X009861Y025624D02*
X009861Y026055D01*
X010076Y025839D01*
X010076Y025055D02*
X010076Y024839D01*
X009933Y024911D01*
X009861Y024911D01*
X009789Y024839D01*
X009789Y024696D01*
X009861Y024624D01*
X010004Y024624D01*
X010076Y024696D01*
X010249Y024696D02*
X010321Y024624D01*
X010465Y024624D01*
X010536Y024696D01*
X010710Y024624D02*
X010853Y024768D01*
X010782Y024768D02*
X010997Y024768D01*
X010997Y024624D02*
X010997Y025055D01*
X010782Y025055D01*
X010710Y024983D01*
X010710Y024839D01*
X010782Y024768D01*
X010536Y024983D02*
X010465Y025055D01*
X010321Y025055D01*
X010249Y024983D01*
X010249Y024911D01*
X010321Y024839D01*
X010249Y024768D01*
X010249Y024696D01*
X010321Y024839D02*
X010393Y024839D01*
X010076Y025055D02*
X009789Y025055D01*
X009861Y023155D02*
X010004Y023155D01*
X010076Y023083D01*
X010249Y023083D02*
X010249Y023011D01*
X010321Y022939D01*
X010249Y022868D01*
X010249Y022796D01*
X010321Y022724D01*
X010465Y022724D01*
X010536Y022796D01*
X010710Y022724D02*
X010853Y022868D01*
X010782Y022868D02*
X010997Y022868D01*
X010997Y022724D02*
X010997Y023155D01*
X010782Y023155D01*
X010710Y023083D01*
X010710Y022939D01*
X010782Y022868D01*
X010536Y023083D02*
X010465Y023155D01*
X010321Y023155D01*
X010249Y023083D01*
X010321Y022939D02*
X010393Y022939D01*
X010076Y022724D02*
X009789Y023011D01*
X009789Y023083D01*
X009861Y023155D01*
X009789Y022724D02*
X010076Y022724D01*
X002777Y021059D02*
X002777Y020773D01*
X002562Y020773D01*
X002634Y020916D01*
X002634Y020988D01*
X002562Y021059D01*
X002418Y021059D01*
X002347Y020988D01*
X002347Y020844D01*
X002418Y020773D01*
X002562Y020599D02*
X002562Y020312D01*
X002777Y020527D01*
X002347Y020527D01*
X002418Y020139D02*
X002347Y020067D01*
X002347Y019852D01*
X002777Y019852D01*
X002777Y020067D01*
X002705Y020139D01*
X002418Y020139D01*
X005248Y014225D02*
X005391Y014153D01*
X005535Y014010D01*
X005320Y014010D01*
X005248Y013938D01*
X005248Y013866D01*
X005320Y013794D01*
X005463Y013794D01*
X005535Y013866D01*
X005535Y014010D01*
X005708Y014010D02*
X005995Y014010D01*
X005780Y014225D01*
X005780Y013794D01*
X006169Y013866D02*
X006169Y014153D01*
X006240Y014225D01*
X006455Y014225D01*
X006455Y013794D01*
X006240Y013794D01*
X006169Y013866D01*
X003919Y009185D02*
X003704Y009185D01*
X003632Y009113D01*
X003632Y008826D01*
X003704Y008754D01*
X003919Y008754D01*
X003919Y009185D01*
X003459Y009185D02*
X003459Y008969D01*
X003315Y009041D01*
X003244Y009041D01*
X003172Y008969D01*
X003172Y008826D01*
X003244Y008754D01*
X003387Y008754D01*
X003459Y008826D01*
X003459Y009185D02*
X003172Y009185D01*
X002998Y009113D02*
X002927Y009185D01*
X002783Y009185D01*
X002712Y009113D01*
X002712Y009041D01*
X002998Y008754D01*
X002712Y008754D01*
X013675Y008730D02*
X013747Y008658D01*
X013747Y008515D01*
X017117Y009454D02*
X017547Y009454D01*
X017547Y009669D01*
X017475Y009740D01*
X017332Y009740D01*
X017260Y009669D01*
X017260Y009454D01*
X017260Y009597D02*
X017117Y009740D01*
X017188Y009914D02*
X017117Y009986D01*
X017117Y010129D01*
X017188Y010201D01*
X017260Y010201D01*
X017332Y010129D01*
X017332Y010057D01*
X017332Y010129D02*
X017404Y010201D01*
X017475Y010201D01*
X017547Y010129D01*
X017547Y009986D01*
X017475Y009914D01*
X021820Y013896D02*
X021892Y013824D01*
X022035Y013824D01*
X022107Y013896D01*
X022107Y013968D01*
X022035Y014039D01*
X021892Y014039D01*
X021820Y013968D01*
X021820Y013896D01*
X021892Y014039D02*
X021820Y014111D01*
X021820Y014183D01*
X021892Y014255D01*
X022035Y014255D01*
X022107Y014183D01*
X022107Y014111D01*
X022035Y014039D01*
X022281Y013968D02*
X022281Y013896D01*
X022352Y013824D01*
X022496Y013824D01*
X022568Y013896D01*
X022741Y013896D02*
X022813Y013824D01*
X022956Y013824D01*
X023028Y013896D01*
X023028Y014183D01*
X022956Y014255D01*
X022813Y014255D01*
X022741Y014183D01*
X022568Y014183D02*
X022496Y014255D01*
X022352Y014255D01*
X022281Y014183D01*
X022281Y014111D01*
X022352Y014039D01*
X022281Y013968D01*
X022352Y014039D02*
X022424Y014039D01*
X023117Y014036D02*
X023188Y013964D01*
X023117Y014036D02*
X023117Y014179D01*
X023188Y014251D01*
X023260Y014251D01*
X023332Y014179D01*
X023332Y014107D01*
X023332Y014179D02*
X023404Y014251D01*
X023475Y014251D01*
X023547Y014179D01*
X023547Y014036D01*
X023475Y013964D01*
X023475Y013790D02*
X023547Y013719D01*
X023547Y013575D01*
X023475Y013504D01*
X023475Y013330D02*
X023547Y013258D01*
X023547Y013115D01*
X023475Y013043D01*
X023188Y013043D01*
X023117Y013115D01*
X023117Y013258D01*
X023188Y013330D01*
X023117Y013504D02*
X023404Y013790D01*
X023475Y013790D01*
X023117Y013790D02*
X023117Y013504D01*
X024892Y010955D02*
X025107Y010739D01*
X024820Y010739D01*
X024892Y010524D02*
X024892Y010955D01*
X025281Y010883D02*
X025352Y010955D01*
X025496Y010955D01*
X025568Y010883D01*
X025741Y010883D02*
X025813Y010955D01*
X025956Y010955D01*
X026028Y010883D01*
X026028Y010596D01*
X025956Y010524D01*
X025813Y010524D01*
X025741Y010596D01*
X025568Y010524D02*
X025281Y010811D01*
X025281Y010883D01*
X025281Y010524D02*
X025568Y010524D01*
X027992Y013924D02*
X028135Y013924D01*
X028207Y013996D01*
X028207Y014068D01*
X028135Y014139D01*
X027992Y014139D01*
X027920Y014068D01*
X027920Y013996D01*
X027992Y013924D01*
X027992Y014139D02*
X027920Y014211D01*
X027920Y014283D01*
X027992Y014355D01*
X028135Y014355D01*
X028207Y014283D01*
X028207Y014211D01*
X028135Y014139D01*
X028381Y014211D02*
X028381Y014283D01*
X028452Y014355D01*
X028596Y014355D01*
X028668Y014283D01*
X028841Y014283D02*
X028913Y014355D01*
X029056Y014355D01*
X029128Y014283D01*
X029128Y013996D01*
X029056Y013924D01*
X028913Y013924D01*
X028841Y013996D01*
X028668Y013924D02*
X028381Y014211D01*
X028381Y013924D02*
X028668Y013924D01*
X030088Y015824D02*
X030017Y015896D01*
X030017Y016039D01*
X030088Y016111D01*
X030017Y016285D02*
X030304Y016572D01*
X030375Y016572D01*
X030447Y016500D01*
X030447Y016356D01*
X030375Y016285D01*
X030375Y016111D02*
X030447Y016039D01*
X030447Y015896D01*
X030375Y015824D01*
X030088Y015824D01*
X030017Y016285D02*
X030017Y016572D01*
X030088Y016745D02*
X030017Y016817D01*
X030017Y016960D01*
X030088Y017032D01*
X030375Y017032D01*
X030447Y016960D01*
X030447Y016817D01*
X030375Y016745D01*
X030304Y016745D01*
X030232Y016817D01*
X030232Y017032D01*
X031367Y018115D02*
X031367Y018258D01*
X031438Y018330D01*
X031438Y018504D02*
X031367Y018575D01*
X031367Y018719D01*
X031438Y018790D01*
X031510Y018790D01*
X031582Y018719D01*
X031582Y018647D01*
X031582Y018719D02*
X031654Y018790D01*
X031725Y018790D01*
X031797Y018719D01*
X031797Y018575D01*
X031725Y018504D01*
X031725Y018330D02*
X031797Y018258D01*
X031797Y018115D01*
X031725Y018043D01*
X031438Y018043D01*
X031367Y018115D01*
X031438Y018964D02*
X031367Y019036D01*
X031367Y019179D01*
X031438Y019251D01*
X031510Y019251D01*
X031582Y019179D01*
X031582Y019107D01*
X031582Y019179D02*
X031654Y019251D01*
X031725Y019251D01*
X031797Y019179D01*
X031797Y019036D01*
X031725Y018964D01*
X029847Y019296D02*
X029775Y019224D01*
X029488Y019224D01*
X029417Y019296D01*
X029417Y019439D01*
X029488Y019511D01*
X029488Y019685D02*
X029417Y019756D01*
X029417Y019900D01*
X029488Y019972D01*
X029560Y019972D01*
X029632Y019900D01*
X029632Y019828D01*
X029632Y019900D02*
X029704Y019972D01*
X029775Y019972D01*
X029847Y019900D01*
X029847Y019756D01*
X029775Y019685D01*
X029775Y019511D02*
X029847Y019439D01*
X029847Y019296D01*
X029632Y020145D02*
X029632Y020432D01*
X029417Y020360D02*
X029847Y020360D01*
X029632Y020145D01*
X027547Y020145D02*
X027332Y020145D01*
X027404Y020288D01*
X027404Y020360D01*
X027332Y020432D01*
X027188Y020432D01*
X027117Y020360D01*
X027117Y020217D01*
X027188Y020145D01*
X027188Y019972D02*
X027117Y019900D01*
X027117Y019756D01*
X027188Y019685D01*
X027188Y019511D02*
X027117Y019439D01*
X027117Y019296D01*
X027188Y019224D01*
X027475Y019224D01*
X027547Y019296D01*
X027547Y019439D01*
X027475Y019511D01*
X027475Y019685D02*
X027547Y019756D01*
X027547Y019900D01*
X027475Y019972D01*
X027404Y019972D01*
X027332Y019900D01*
X027260Y019972D01*
X027188Y019972D01*
X027332Y019900D02*
X027332Y019828D01*
X027547Y020145D02*
X027547Y020432D01*
X023747Y022296D02*
X023675Y022224D01*
X023388Y022224D01*
X023317Y022296D01*
X023317Y022439D01*
X023388Y022511D01*
X023388Y022685D02*
X023317Y022756D01*
X023317Y022900D01*
X023388Y022972D01*
X023460Y022972D01*
X023532Y022900D01*
X023532Y022828D01*
X023532Y022900D02*
X023604Y022972D01*
X023675Y022972D01*
X023747Y022900D01*
X023747Y022756D01*
X023675Y022685D01*
X023675Y022511D02*
X023747Y022439D01*
X023747Y022296D01*
X023532Y023145D02*
X023532Y023360D01*
X023460Y023432D01*
X023388Y023432D01*
X023317Y023360D01*
X023317Y023217D01*
X023388Y023145D01*
X023532Y023145D01*
X023675Y023288D01*
X023747Y023432D01*
X027389Y023696D02*
X027461Y023624D01*
X027604Y023624D01*
X027676Y023696D01*
X027676Y023768D01*
X027604Y023839D01*
X027461Y023839D01*
X027389Y023768D01*
X027389Y023696D01*
X027461Y023839D02*
X027389Y023911D01*
X027389Y023983D01*
X027461Y024055D01*
X027604Y024055D01*
X027676Y023983D01*
X027676Y023911D01*
X027604Y023839D01*
X027849Y023768D02*
X027921Y023839D01*
X028136Y023839D01*
X028136Y023696D01*
X028065Y023624D01*
X027921Y023624D01*
X027849Y023696D01*
X027849Y023768D01*
X027993Y023983D02*
X028136Y023839D01*
X028310Y023839D02*
X028382Y023768D01*
X028597Y023768D01*
X028453Y023768D02*
X028310Y023624D01*
X028310Y023839D02*
X028310Y023983D01*
X028382Y024055D01*
X028597Y024055D01*
X028597Y023624D01*
X027993Y023983D02*
X027849Y024055D01*
X029989Y024839D02*
X030276Y024839D01*
X030061Y025055D01*
X030061Y024624D01*
X030449Y024696D02*
X030449Y024768D01*
X030521Y024839D01*
X030736Y024839D01*
X030736Y024696D01*
X030665Y024624D01*
X030521Y024624D01*
X030449Y024696D01*
X030736Y024839D02*
X030593Y024983D01*
X030449Y025055D01*
X030910Y024983D02*
X030910Y024839D01*
X030982Y024768D01*
X031197Y024768D01*
X031053Y024768D02*
X030910Y024624D01*
X031197Y024624D02*
X031197Y025055D01*
X030982Y025055D01*
X030910Y024983D01*
X028847Y027674D02*
X028847Y027889D01*
X028775Y027961D01*
X028632Y027961D01*
X028560Y027889D01*
X028560Y027674D01*
X028417Y027674D02*
X028847Y027674D01*
X028560Y027818D02*
X028417Y027961D01*
X028417Y028135D02*
X028704Y028422D01*
X028775Y028422D01*
X028847Y028350D01*
X028847Y028206D01*
X028775Y028135D01*
X028417Y028135D02*
X028417Y028422D01*
X028417Y028595D02*
X028417Y028882D01*
X028417Y028738D02*
X028847Y028738D01*
X028704Y028595D01*
X036317Y022610D02*
X036388Y022682D01*
X036532Y022682D01*
X036604Y022610D01*
X036604Y022538D01*
X036532Y022395D01*
X036747Y022395D01*
X036747Y022682D01*
X036317Y022610D02*
X036317Y022467D01*
X036388Y022395D01*
X036388Y022222D02*
X036460Y022222D01*
X036532Y022150D01*
X036532Y021935D01*
X036388Y021935D01*
X036317Y022006D01*
X036317Y022150D01*
X036388Y022222D01*
X036675Y022078D02*
X036532Y021935D01*
X036532Y021761D02*
X036460Y021689D01*
X036460Y021474D01*
X036317Y021474D02*
X036747Y021474D01*
X036747Y021689D01*
X036675Y021761D01*
X036532Y021761D01*
X036460Y021618D02*
X036317Y021761D01*
X036675Y022078D02*
X036747Y022222D01*
X043070Y026083D02*
X043357Y025796D01*
X043357Y025724D01*
X043531Y025796D02*
X043602Y025724D01*
X043746Y025724D01*
X043818Y025796D01*
X043818Y026083D01*
X043746Y026155D01*
X043602Y026155D01*
X043531Y026083D01*
X043357Y026155D02*
X043070Y026155D01*
X043070Y026083D01*
X043981Y026155D02*
X044124Y026155D01*
X044053Y026155D02*
X044053Y025724D01*
X044124Y025724D02*
X043981Y025724D01*
X046239Y021670D02*
X046239Y021383D01*
X046526Y021670D01*
X046598Y021670D01*
X046670Y021598D01*
X046670Y021455D01*
X046598Y021383D01*
X046598Y021210D02*
X046670Y021138D01*
X046670Y020995D01*
X046598Y020923D01*
X046598Y020749D02*
X046311Y020749D01*
X046239Y020678D01*
X046239Y020462D01*
X046670Y020462D01*
X046670Y020678D01*
X046598Y020749D01*
X046239Y020923D02*
X046526Y021210D01*
X046598Y021210D01*
X046239Y021210D02*
X046239Y020923D01*
X048917Y020951D02*
X048917Y020664D01*
X048917Y020807D02*
X049347Y020807D01*
X049204Y020664D01*
X049204Y020490D02*
X049132Y020419D01*
X049060Y020490D01*
X048988Y020490D01*
X048917Y020419D01*
X048917Y020275D01*
X048988Y020204D01*
X048988Y020030D02*
X049275Y020030D01*
X049347Y019958D01*
X049347Y019743D01*
X048917Y019743D01*
X048917Y019958D01*
X048988Y020030D01*
X049275Y020204D02*
X049347Y020275D01*
X049347Y020419D01*
X049275Y020490D01*
X049204Y020490D01*
X049132Y020419D02*
X049132Y020347D01*
X050264Y019333D02*
X050264Y019261D01*
X050336Y019189D01*
X050479Y019189D01*
X050551Y019261D01*
X050551Y019333D01*
X050479Y019405D01*
X050336Y019405D01*
X050264Y019333D01*
X050336Y019189D02*
X050264Y019118D01*
X050264Y019046D01*
X050336Y018974D01*
X050479Y018974D01*
X050551Y019046D01*
X050551Y019118D01*
X050479Y019189D01*
X050724Y019118D02*
X050724Y019046D01*
X050796Y018974D01*
X050940Y018974D01*
X051011Y019046D01*
X051185Y019046D02*
X051185Y019333D01*
X051256Y019405D01*
X051472Y019405D01*
X051472Y018974D01*
X051256Y018974D01*
X051185Y019046D01*
X051011Y019333D02*
X050940Y019405D01*
X050796Y019405D01*
X050724Y019333D01*
X050724Y019261D01*
X050796Y019189D01*
X050724Y019118D01*
X050796Y019189D02*
X050868Y019189D01*
X053317Y018979D02*
X053317Y018836D01*
X053388Y018764D01*
X053317Y018590D02*
X053317Y018304D01*
X053604Y018590D01*
X053675Y018590D01*
X053747Y018519D01*
X053747Y018375D01*
X053675Y018304D01*
X053675Y018130D02*
X053532Y018130D01*
X053460Y018058D01*
X053460Y017843D01*
X053317Y017843D02*
X053747Y017843D01*
X053747Y018058D01*
X053675Y018130D01*
X053460Y017987D02*
X053317Y018130D01*
X053675Y018764D02*
X053747Y018836D01*
X053747Y018979D01*
X053675Y019051D01*
X053604Y019051D01*
X053532Y018979D01*
X053460Y019051D01*
X053388Y019051D01*
X053317Y018979D01*
X053532Y018979D02*
X053532Y018907D01*
X054017Y019774D02*
X054447Y019774D01*
X054447Y019989D01*
X054375Y020061D01*
X054232Y020061D01*
X054160Y019989D01*
X054160Y019774D01*
X054160Y019918D02*
X054017Y020061D01*
X054088Y020235D02*
X054017Y020306D01*
X054017Y020450D01*
X054088Y020522D01*
X054232Y020522D01*
X054304Y020450D01*
X054304Y020378D01*
X054232Y020235D01*
X054447Y020235D01*
X054447Y020522D01*
X053847Y021254D02*
X053847Y021469D01*
X053775Y021540D01*
X053632Y021540D01*
X053560Y021469D01*
X053560Y021254D01*
X053560Y021397D02*
X053417Y021540D01*
X053632Y021714D02*
X053632Y022001D01*
X053417Y021929D02*
X053847Y021929D01*
X053632Y021714D01*
X053417Y021254D02*
X053847Y021254D01*
X055743Y020824D02*
X056029Y020824D01*
X055886Y020824D02*
X055886Y021255D01*
X056029Y021111D01*
X056203Y021183D02*
X056275Y021255D01*
X056418Y021255D01*
X056490Y021183D01*
X056490Y020896D01*
X056418Y020824D01*
X056275Y020824D01*
X056203Y020896D01*
X056653Y020824D02*
X056797Y020824D01*
X056725Y020824D02*
X056725Y021255D01*
X056797Y021255D02*
X056653Y021255D01*
X053578Y024224D02*
X053578Y024655D01*
X053363Y024655D01*
X053291Y024583D01*
X053291Y024439D01*
X053363Y024368D01*
X053578Y024368D01*
X053434Y024368D02*
X053291Y024224D01*
X053118Y024224D02*
X052831Y024511D01*
X052831Y024583D01*
X052902Y024655D01*
X053046Y024655D01*
X053118Y024583D01*
X053118Y024224D02*
X052831Y024224D01*
X052657Y024296D02*
X052585Y024224D01*
X052442Y024224D01*
X052370Y024296D01*
X052370Y024368D01*
X052442Y024439D01*
X052657Y024439D01*
X052657Y024296D01*
X052657Y024439D02*
X052514Y024583D01*
X052370Y024655D01*
X051447Y024555D02*
X051447Y024124D01*
X051232Y024124D01*
X051160Y024196D01*
X051160Y024483D01*
X051232Y024555D01*
X051447Y024555D01*
X050986Y024483D02*
X050915Y024555D01*
X050771Y024555D01*
X050699Y024483D01*
X050699Y024411D01*
X050771Y024339D01*
X050699Y024268D01*
X050699Y024196D01*
X050771Y024124D01*
X050915Y024124D01*
X050986Y024196D01*
X050843Y024339D02*
X050771Y024339D01*
X050526Y024483D02*
X050454Y024555D01*
X050311Y024555D01*
X050239Y024483D01*
X050239Y024411D01*
X050526Y024124D01*
X050239Y024124D01*
X050567Y023105D02*
X050711Y023105D01*
X050782Y023033D01*
X050782Y022961D01*
X050711Y022889D01*
X050495Y022889D01*
X050495Y022746D02*
X050495Y023033D01*
X050567Y023105D01*
X050495Y022746D02*
X050567Y022674D01*
X050711Y022674D01*
X050782Y022746D01*
X050956Y022746D02*
X051028Y022674D01*
X051171Y022674D01*
X051243Y022746D01*
X051416Y022746D02*
X051416Y023033D01*
X051488Y023105D01*
X051703Y023105D01*
X051703Y022674D01*
X051488Y022674D01*
X051416Y022746D01*
X051243Y023033D02*
X051171Y023105D01*
X051028Y023105D01*
X050956Y023033D01*
X050956Y022961D01*
X051028Y022889D01*
X050956Y022818D01*
X050956Y022746D01*
X051028Y022889D02*
X051099Y022889D01*
X053217Y026743D02*
X053647Y026743D01*
X053647Y026958D01*
X053575Y027030D01*
X053432Y027030D01*
X053360Y026958D01*
X053360Y026743D01*
X053360Y026887D02*
X053217Y027030D01*
X053217Y027204D02*
X053504Y027490D01*
X053575Y027490D01*
X053647Y027419D01*
X053647Y027275D01*
X053575Y027204D01*
X053217Y027204D02*
X053217Y027490D01*
X053217Y027664D02*
X053288Y027664D01*
X053575Y027951D01*
X053647Y027951D01*
X053647Y027664D01*
X054017Y028074D02*
X054447Y028074D01*
X054447Y028289D01*
X054375Y028361D01*
X054232Y028361D01*
X054160Y028289D01*
X054160Y028074D01*
X054160Y028218D02*
X054017Y028361D01*
X054017Y028535D02*
X054304Y028822D01*
X054375Y028822D01*
X054447Y028750D01*
X054447Y028606D01*
X054375Y028535D01*
X054017Y028535D02*
X054017Y028822D01*
X054088Y028995D02*
X054017Y029067D01*
X054017Y029210D01*
X054088Y029282D01*
X054232Y029282D01*
X054304Y029210D01*
X054304Y029138D01*
X054232Y028995D01*
X054447Y028995D01*
X054447Y029282D01*
X053847Y029693D02*
X053847Y029908D01*
X053775Y029980D01*
X053632Y029980D01*
X053560Y029908D01*
X053560Y029693D01*
X053417Y029693D02*
X053847Y029693D01*
X053560Y029837D02*
X053417Y029980D01*
X053417Y030154D02*
X053704Y030440D01*
X053775Y030440D01*
X053847Y030369D01*
X053847Y030225D01*
X053775Y030154D01*
X053417Y030154D02*
X053417Y030440D01*
X053632Y030614D02*
X053632Y030901D01*
X053417Y030829D02*
X053847Y030829D01*
X053632Y030614D01*
X051672Y031274D02*
X051672Y031705D01*
X051456Y031705D01*
X051385Y031633D01*
X051385Y031346D01*
X051456Y031274D01*
X051672Y031274D01*
X051211Y031489D02*
X050996Y031705D01*
X050996Y031274D01*
X050924Y031489D02*
X051211Y031489D01*
X050751Y031633D02*
X050679Y031705D01*
X050536Y031705D01*
X050464Y031633D01*
X050464Y031561D01*
X050751Y031274D01*
X050464Y031274D01*
X050411Y032124D02*
X050411Y032555D01*
X050626Y032339D01*
X050339Y032339D01*
X050799Y032268D02*
X050799Y032196D01*
X050871Y032124D01*
X051015Y032124D01*
X051086Y032196D01*
X051260Y032196D02*
X051260Y032483D01*
X051332Y032555D01*
X051547Y032555D01*
X051547Y032124D01*
X051332Y032124D01*
X051260Y032196D01*
X051086Y032483D02*
X051015Y032555D01*
X050871Y032555D01*
X050799Y032483D01*
X050799Y032411D01*
X050871Y032339D01*
X050799Y032268D01*
X050871Y032339D02*
X050943Y032339D01*
X052470Y032296D02*
X052542Y032224D01*
X052685Y032224D01*
X052757Y032296D01*
X052470Y032583D01*
X052470Y032296D01*
X052470Y032583D02*
X052542Y032655D01*
X052685Y032655D01*
X052757Y032583D01*
X052757Y032296D01*
X052931Y032296D02*
X053002Y032224D01*
X053146Y032224D01*
X053218Y032296D01*
X053391Y032224D02*
X053534Y032368D01*
X053463Y032368D02*
X053678Y032368D01*
X053678Y032224D02*
X053678Y032655D01*
X053463Y032655D01*
X053391Y032583D01*
X053391Y032439D01*
X053463Y032368D01*
X053218Y032583D02*
X053146Y032655D01*
X053002Y032655D01*
X052931Y032583D01*
X052931Y032511D01*
X053002Y032439D01*
X052931Y032368D01*
X052931Y032296D01*
X053002Y032439D02*
X053074Y032439D01*
X053317Y034743D02*
X053747Y034743D01*
X053747Y034958D01*
X053675Y035030D01*
X053532Y035030D01*
X053460Y034958D01*
X053460Y034743D01*
X053460Y034887D02*
X053317Y035030D01*
X053388Y035204D02*
X053317Y035275D01*
X053317Y035419D01*
X053388Y035490D01*
X053460Y035490D01*
X053532Y035419D01*
X053532Y035347D01*
X053532Y035419D02*
X053604Y035490D01*
X053675Y035490D01*
X053747Y035419D01*
X053747Y035275D01*
X053675Y035204D01*
X053604Y035664D02*
X053747Y035807D01*
X053317Y035807D01*
X053317Y035664D02*
X053317Y035951D01*
X054017Y036174D02*
X054447Y036174D01*
X054447Y036389D01*
X054375Y036461D01*
X054232Y036461D01*
X054160Y036389D01*
X054160Y036174D01*
X054160Y036318D02*
X054017Y036461D01*
X054017Y036635D02*
X054304Y036922D01*
X054375Y036922D01*
X054447Y036850D01*
X054447Y036706D01*
X054375Y036635D01*
X054017Y036635D02*
X054017Y036922D01*
X054088Y037095D02*
X054017Y037167D01*
X054017Y037310D01*
X054088Y037382D01*
X054375Y037382D01*
X054447Y037310D01*
X054447Y037167D01*
X054375Y037095D01*
X054304Y037095D01*
X054232Y037167D01*
X054232Y037382D01*
X053847Y038093D02*
X053417Y038093D01*
X053560Y038093D02*
X053560Y038308D01*
X053632Y038380D01*
X053775Y038380D01*
X053847Y038308D01*
X053847Y038093D01*
X053560Y038237D02*
X053417Y038380D01*
X053417Y038554D02*
X053704Y038840D01*
X053775Y038840D01*
X053847Y038769D01*
X053847Y038625D01*
X053775Y038554D01*
X053417Y038554D02*
X053417Y038840D01*
X053488Y039014D02*
X053560Y039014D01*
X053632Y039086D01*
X053632Y039229D01*
X053560Y039301D01*
X053488Y039301D01*
X053417Y039229D01*
X053417Y039086D01*
X053488Y039014D01*
X053632Y039086D02*
X053704Y039014D01*
X053775Y039014D01*
X053847Y039086D01*
X053847Y039229D01*
X053775Y039301D01*
X053704Y039301D01*
X053632Y039229D01*
X051772Y039274D02*
X051556Y039274D01*
X051485Y039346D01*
X051485Y039633D01*
X051556Y039705D01*
X051772Y039705D01*
X051772Y039274D01*
X051311Y039489D02*
X051096Y039705D01*
X051096Y039274D01*
X051024Y039489D02*
X051311Y039489D01*
X050851Y039346D02*
X050779Y039274D01*
X050636Y039274D01*
X050564Y039346D01*
X050564Y039418D01*
X050636Y039489D01*
X050707Y039489D01*
X050636Y039489D02*
X050564Y039561D01*
X050564Y039633D01*
X050636Y039705D01*
X050779Y039705D01*
X050851Y039633D01*
X049347Y038051D02*
X049347Y037764D01*
X049132Y037764D01*
X049204Y037907D01*
X049204Y037979D01*
X049132Y038051D01*
X048988Y038051D01*
X048917Y037979D01*
X048917Y037836D01*
X048988Y037764D01*
X048988Y037590D02*
X048917Y037519D01*
X048917Y037375D01*
X048988Y037304D01*
X048988Y037130D02*
X049275Y037130D01*
X049347Y037058D01*
X049347Y036843D01*
X048917Y036843D01*
X048917Y037058D01*
X048988Y037130D01*
X049275Y037304D02*
X049347Y037375D01*
X049347Y037519D01*
X049275Y037590D01*
X049204Y037590D01*
X049132Y037519D01*
X049060Y037590D01*
X048988Y037590D01*
X049132Y037519D02*
X049132Y037447D01*
X050307Y036205D02*
X050307Y035774D01*
X050164Y035774D02*
X050451Y035774D01*
X050696Y035774D02*
X050696Y036205D01*
X050911Y035989D01*
X050624Y035989D01*
X050451Y036061D02*
X050307Y036205D01*
X051085Y036133D02*
X051085Y035846D01*
X051156Y035774D01*
X051372Y035774D01*
X051372Y036205D01*
X051156Y036205D01*
X051085Y036133D01*
X046670Y037362D02*
X046670Y037578D01*
X046598Y037649D01*
X046311Y037649D01*
X046239Y037578D01*
X046239Y037362D01*
X046670Y037362D01*
X046598Y037823D02*
X046670Y037895D01*
X046670Y038038D01*
X046598Y038110D01*
X046526Y038110D01*
X046239Y037823D01*
X046239Y038110D01*
X046311Y038283D02*
X046239Y038355D01*
X046239Y038498D01*
X046311Y038570D01*
X046454Y038570D01*
X046526Y038498D01*
X046526Y038427D01*
X046454Y038283D01*
X046670Y038283D01*
X046670Y038570D01*
X044385Y034155D02*
X044241Y034155D01*
X044313Y034155D02*
X044313Y033724D01*
X044385Y033724D02*
X044241Y033724D01*
X044078Y033796D02*
X044006Y033724D01*
X043863Y033724D01*
X043791Y033796D01*
X043618Y033724D02*
X043331Y033724D01*
X043474Y033724D02*
X043474Y034155D01*
X043618Y034011D01*
X043791Y034083D02*
X043863Y034155D01*
X044006Y034155D01*
X044078Y034083D01*
X044078Y033796D01*
X043157Y033796D02*
X043086Y033724D01*
X042942Y033724D01*
X042870Y033796D01*
X042870Y033868D01*
X042942Y033939D01*
X043014Y033939D01*
X042942Y033939D02*
X042870Y034011D01*
X042870Y034083D01*
X042942Y034155D01*
X043086Y034155D01*
X043157Y034083D01*
X046301Y030277D02*
X046301Y030205D01*
X046588Y029918D01*
X046588Y029847D01*
X046761Y029847D02*
X047048Y029847D01*
X046761Y030134D01*
X046761Y030205D01*
X046833Y030277D01*
X046976Y030277D01*
X047048Y030205D01*
X047222Y030205D02*
X047222Y029918D01*
X047293Y029847D01*
X047509Y029847D01*
X047509Y030277D01*
X047293Y030277D01*
X047222Y030205D01*
X046588Y030277D02*
X046301Y030277D01*
X048917Y029879D02*
X048917Y029736D01*
X048988Y029664D01*
X048988Y029490D02*
X048917Y029419D01*
X048917Y029275D01*
X048988Y029204D01*
X048988Y029030D02*
X049275Y029030D01*
X049347Y028958D01*
X049347Y028743D01*
X048917Y028743D01*
X048917Y028958D01*
X048988Y029030D01*
X049275Y029204D02*
X049347Y029275D01*
X049347Y029419D01*
X049275Y029490D01*
X049204Y029490D01*
X049132Y029419D01*
X049060Y029490D01*
X048988Y029490D01*
X049132Y029419D02*
X049132Y029347D01*
X049275Y029664D02*
X049347Y029736D01*
X049347Y029879D01*
X049275Y029951D01*
X049204Y029951D01*
X049132Y029879D01*
X049060Y029951D01*
X048988Y029951D01*
X048917Y029879D01*
X049132Y029879D02*
X049132Y029807D01*
X050236Y028105D02*
X050164Y028033D01*
X050451Y027746D01*
X050379Y027674D01*
X050236Y027674D01*
X050164Y027746D01*
X050164Y028033D01*
X050236Y028105D02*
X050379Y028105D01*
X050451Y028033D01*
X050451Y027746D01*
X050624Y027889D02*
X050911Y027889D01*
X050696Y028105D01*
X050696Y027674D01*
X051085Y027746D02*
X051085Y028033D01*
X051156Y028105D01*
X051372Y028105D01*
X051372Y027674D01*
X051156Y027674D01*
X051085Y027746D01*
X055643Y029724D02*
X055929Y029724D01*
X055643Y030011D01*
X055643Y030083D01*
X055714Y030155D01*
X055858Y030155D01*
X055929Y030083D01*
X056103Y030083D02*
X056175Y030155D01*
X056318Y030155D01*
X056390Y030083D01*
X056390Y029796D01*
X056318Y029724D01*
X056175Y029724D01*
X056103Y029796D01*
X056553Y029724D02*
X056697Y029724D01*
X056625Y029724D02*
X056625Y030155D01*
X056697Y030155D02*
X056553Y030155D01*
X056575Y037724D02*
X056503Y037796D01*
X056575Y037724D02*
X056718Y037724D01*
X056790Y037796D01*
X056790Y038083D01*
X056718Y038155D01*
X056575Y038155D01*
X056503Y038083D01*
X056329Y038083D02*
X056329Y038011D01*
X056258Y037939D01*
X056114Y037939D01*
X056043Y037868D01*
X056043Y037796D01*
X056114Y037724D01*
X056258Y037724D01*
X056329Y037796D01*
X056329Y037868D01*
X056258Y037939D01*
X056114Y037939D02*
X056043Y038011D01*
X056043Y038083D01*
X056114Y038155D01*
X056258Y038155D01*
X056329Y038083D01*
X056953Y038155D02*
X057097Y038155D01*
X057025Y038155D02*
X057025Y037724D01*
X057097Y037724D02*
X056953Y037724D01*
X044485Y017255D02*
X044341Y017255D01*
X044413Y017255D02*
X044413Y016824D01*
X044485Y016824D02*
X044341Y016824D01*
X044178Y016896D02*
X044106Y016824D01*
X043963Y016824D01*
X043891Y016896D01*
X043718Y016824D02*
X043431Y016824D01*
X043574Y016824D02*
X043574Y017255D01*
X043718Y017111D01*
X043891Y017183D02*
X043963Y017255D01*
X044106Y017255D01*
X044178Y017183D01*
X044178Y016896D01*
X043257Y016896D02*
X043186Y016824D01*
X043042Y016824D01*
X042970Y016896D01*
X042970Y017183D01*
X043257Y016896D01*
X043257Y017183D01*
X043186Y017255D01*
X043042Y017255D01*
X042970Y017183D01*
X046294Y013713D02*
X046294Y013426D01*
X046294Y013569D02*
X046725Y013569D01*
X046581Y013426D01*
X046581Y013252D02*
X046294Y012965D01*
X046294Y013252D01*
X046581Y013252D02*
X046653Y013252D01*
X046725Y013180D01*
X046725Y013037D01*
X046653Y012965D01*
X046653Y012792D02*
X046366Y012792D01*
X046294Y012720D01*
X046294Y012505D01*
X046725Y012505D01*
X046725Y012720D01*
X046653Y012792D01*
X048917Y012679D02*
X048917Y012536D01*
X048988Y012464D01*
X049060Y012464D01*
X049132Y012536D01*
X049132Y012679D01*
X049060Y012751D01*
X048988Y012751D01*
X048917Y012679D01*
X049132Y012679D02*
X049204Y012751D01*
X049275Y012751D01*
X049347Y012679D01*
X049347Y012536D01*
X049275Y012464D01*
X049204Y012464D01*
X049132Y012536D01*
X049204Y012290D02*
X049275Y012290D01*
X049347Y012219D01*
X049347Y012075D01*
X049275Y012004D01*
X049275Y011830D02*
X049347Y011758D01*
X049347Y011543D01*
X048917Y011543D01*
X048917Y011758D01*
X048988Y011830D01*
X049275Y011830D01*
X048917Y012004D02*
X049204Y012290D01*
X048917Y012290D02*
X048917Y012004D01*
X050364Y011305D02*
X050507Y011233D01*
X050651Y011089D01*
X050436Y011089D01*
X050364Y011018D01*
X050364Y010946D01*
X050436Y010874D01*
X050579Y010874D01*
X050651Y010946D01*
X050651Y011089D01*
X050824Y011018D02*
X050824Y010946D01*
X050896Y010874D01*
X051040Y010874D01*
X051111Y010946D01*
X051285Y010946D02*
X051285Y011233D01*
X051356Y011305D01*
X051572Y011305D01*
X051572Y010874D01*
X051356Y010874D01*
X051285Y010946D01*
X051111Y011233D02*
X051040Y011305D01*
X050896Y011305D01*
X050824Y011233D01*
X050824Y011161D01*
X050896Y011089D01*
X050824Y011018D01*
X050896Y011089D02*
X050968Y011089D01*
X053217Y010764D02*
X053288Y010764D01*
X053575Y011051D01*
X053647Y011051D01*
X053647Y010764D01*
X053647Y010590D02*
X053647Y010304D01*
X053432Y010304D01*
X053504Y010447D01*
X053504Y010519D01*
X053432Y010590D01*
X053288Y010590D01*
X053217Y010519D01*
X053217Y010375D01*
X053288Y010304D01*
X053217Y010130D02*
X053360Y009987D01*
X053360Y010058D02*
X053360Y009843D01*
X053217Y009843D02*
X053647Y009843D01*
X053647Y010058D01*
X053575Y010130D01*
X053432Y010130D01*
X053360Y010058D01*
X053331Y007755D02*
X053618Y007755D01*
X053618Y007539D01*
X053474Y007611D01*
X053402Y007611D01*
X053331Y007539D01*
X053331Y007396D01*
X053402Y007324D01*
X053546Y007324D01*
X053618Y007396D01*
X053791Y007324D02*
X053934Y007468D01*
X053863Y007468D02*
X054078Y007468D01*
X054078Y007324D02*
X054078Y007755D01*
X053863Y007755D01*
X053791Y007683D01*
X053791Y007539D01*
X053863Y007468D01*
X053157Y007539D02*
X052942Y007539D01*
X052870Y007468D01*
X052870Y007396D01*
X052942Y007324D01*
X053085Y007324D01*
X053157Y007396D01*
X053157Y007539D01*
X053014Y007683D01*
X052870Y007755D01*
X051447Y007755D02*
X051447Y007324D01*
X051232Y007324D01*
X051160Y007396D01*
X051160Y007683D01*
X051232Y007755D01*
X051447Y007755D01*
X050986Y007683D02*
X050915Y007755D01*
X050771Y007755D01*
X050699Y007683D01*
X050699Y007611D01*
X050986Y007324D01*
X050699Y007324D01*
X050526Y007396D02*
X050454Y007324D01*
X050311Y007324D01*
X050239Y007396D01*
X050239Y007683D01*
X050311Y007755D01*
X050454Y007755D01*
X050526Y007683D01*
X050526Y007611D01*
X050454Y007539D01*
X050239Y007539D01*
X044124Y008924D02*
X043981Y008924D01*
X044053Y008924D02*
X044053Y009355D01*
X044124Y009355D02*
X043981Y009355D01*
X043818Y009283D02*
X043746Y009355D01*
X043602Y009355D01*
X043531Y009283D01*
X043357Y009139D02*
X043142Y009355D01*
X043142Y008924D01*
X043070Y009139D02*
X043357Y009139D01*
X043531Y008996D02*
X043602Y008924D01*
X043746Y008924D01*
X043818Y008996D01*
X043818Y009283D01*
X040447Y009074D02*
X040303Y009074D01*
X040375Y009074D02*
X040375Y009505D01*
X040447Y009505D02*
X040303Y009505D01*
X040140Y009433D02*
X040140Y009146D01*
X040068Y009074D01*
X039925Y009074D01*
X039853Y009146D01*
X039679Y009146D02*
X039608Y009074D01*
X039464Y009074D01*
X039393Y009146D01*
X039393Y009218D01*
X039464Y009289D01*
X039536Y009289D01*
X039464Y009289D02*
X039393Y009361D01*
X039393Y009433D01*
X039464Y009505D01*
X039608Y009505D01*
X039679Y009433D01*
X039853Y009433D02*
X039925Y009505D01*
X040068Y009505D01*
X040140Y009433D01*
X038347Y010896D02*
X038275Y010824D01*
X038132Y010824D01*
X038060Y010896D01*
X037886Y010824D02*
X037599Y010824D01*
X037743Y010824D02*
X037743Y011255D01*
X037886Y011111D01*
X038060Y011183D02*
X038132Y011255D01*
X038275Y011255D01*
X038347Y011183D01*
X038347Y010896D01*
X037426Y010896D02*
X037139Y011183D01*
X037139Y010896D01*
X037211Y010824D01*
X037354Y010824D01*
X037426Y010896D01*
X037426Y011183D01*
X037354Y011255D01*
X037211Y011255D01*
X037139Y011183D01*
X034503Y011105D02*
X034503Y010674D01*
X034288Y010674D01*
X034216Y010746D01*
X034216Y011033D01*
X034288Y011105D01*
X034503Y011105D01*
X034043Y010961D02*
X033899Y011105D01*
X033899Y010674D01*
X033756Y010674D02*
X034043Y010674D01*
X033175Y008251D02*
X032888Y007964D01*
X032817Y008036D01*
X032817Y008179D01*
X032888Y008251D01*
X033175Y008251D01*
X033247Y008179D01*
X033247Y008036D01*
X033175Y007964D01*
X032888Y007964D01*
X032888Y007790D02*
X032817Y007719D01*
X032817Y007575D01*
X032888Y007504D01*
X033032Y007504D02*
X033104Y007647D01*
X033104Y007719D01*
X033032Y007790D01*
X032888Y007790D01*
X033032Y007504D02*
X033247Y007504D01*
X033247Y007790D01*
X033567Y007501D02*
X033567Y007214D01*
X033567Y007357D02*
X033997Y007357D01*
X033854Y007214D01*
X033567Y007040D02*
X033567Y006754D01*
X033567Y006897D02*
X033997Y006897D01*
X033854Y006754D01*
X033925Y006580D02*
X033997Y006508D01*
X033997Y006365D01*
X033925Y006293D01*
X033638Y006293D01*
X033567Y006365D01*
X033567Y006508D01*
X033638Y006580D01*
X033175Y007043D02*
X032888Y007043D01*
X032817Y007115D01*
X032817Y007258D01*
X032888Y007330D01*
X033175Y007330D02*
X033247Y007258D01*
X033247Y007115D01*
X033175Y007043D01*
X032397Y006710D02*
X032397Y006567D01*
X032325Y006495D01*
X032254Y006495D01*
X032182Y006567D01*
X032182Y006710D01*
X032110Y006782D01*
X032038Y006782D01*
X031967Y006710D01*
X031967Y006567D01*
X032038Y006495D01*
X032110Y006495D01*
X032182Y006567D01*
X032182Y006710D02*
X032254Y006782D01*
X032325Y006782D01*
X032397Y006710D01*
X031967Y006322D02*
X031967Y006035D01*
X031967Y006178D02*
X032397Y006178D01*
X032254Y006035D01*
X032325Y005861D02*
X032397Y005789D01*
X032397Y005574D01*
X031967Y005574D01*
X031967Y005789D01*
X032038Y005861D01*
X032325Y005861D01*
X029897Y005774D02*
X029897Y005989D01*
X029825Y006061D01*
X029538Y006061D01*
X029467Y005989D01*
X029467Y005774D01*
X029897Y005774D01*
X029754Y006235D02*
X029897Y006378D01*
X029467Y006378D01*
X029467Y006235D02*
X029467Y006522D01*
X029538Y006695D02*
X029467Y006767D01*
X029467Y006910D01*
X029538Y006982D01*
X029825Y006982D01*
X029897Y006910D01*
X029897Y006767D01*
X029825Y006695D01*
X029754Y006695D01*
X029682Y006767D01*
X029682Y006982D01*
X027319Y005085D02*
X027104Y005085D01*
X027032Y005013D01*
X027032Y004726D01*
X027104Y004654D01*
X027319Y004654D01*
X027319Y005085D01*
X026859Y004941D02*
X026715Y005085D01*
X026715Y004654D01*
X026572Y004654D02*
X026859Y004654D01*
X026398Y004726D02*
X026327Y004654D01*
X026183Y004654D01*
X026112Y004726D01*
X026112Y004798D01*
X026183Y004869D01*
X026398Y004869D01*
X026398Y004726D01*
X026398Y004869D02*
X026255Y005013D01*
X026112Y005085D01*
X023319Y004985D02*
X023319Y004554D01*
X023104Y004554D01*
X023032Y004626D01*
X023032Y004913D01*
X023104Y004985D01*
X023319Y004985D01*
X022859Y004841D02*
X022715Y004985D01*
X022715Y004554D01*
X022572Y004554D02*
X022859Y004554D01*
X022398Y004626D02*
X022327Y004554D01*
X022183Y004554D01*
X022112Y004626D01*
X022112Y004769D01*
X022183Y004841D01*
X022255Y004841D01*
X022398Y004769D01*
X022398Y004985D01*
X022112Y004985D01*
X019219Y005085D02*
X019219Y004654D01*
X019004Y004654D01*
X018932Y004726D01*
X018932Y005013D01*
X019004Y005085D01*
X019219Y005085D01*
X018759Y004941D02*
X018615Y005085D01*
X018615Y004654D01*
X018472Y004654D02*
X018759Y004654D01*
X018298Y004869D02*
X018012Y004869D01*
X018083Y004654D02*
X018083Y005085D01*
X018298Y004869D01*
X013717Y004323D02*
X013645Y004323D01*
X013359Y004036D01*
X013287Y004036D01*
X013287Y003791D02*
X013717Y003791D01*
X013502Y003576D01*
X013502Y003863D01*
X013717Y004036D02*
X013717Y004323D01*
X013645Y003402D02*
X013717Y003331D01*
X013717Y003116D01*
X013287Y003116D01*
X013287Y003331D01*
X013359Y003402D01*
X013645Y003402D01*
X018670Y015774D02*
X018957Y015774D01*
X018670Y016061D01*
X018670Y016133D01*
X018742Y016205D01*
X018885Y016205D01*
X018957Y016133D01*
X019131Y016133D02*
X019202Y016205D01*
X019417Y016205D01*
X019417Y015774D01*
X019202Y015774D01*
X019131Y015846D01*
X019131Y016133D01*
X022520Y018283D02*
X022807Y017996D01*
X022807Y017924D01*
X022981Y017996D02*
X023052Y017924D01*
X023196Y017924D01*
X023268Y017996D01*
X023441Y017996D02*
X023513Y017924D01*
X023656Y017924D01*
X023728Y017996D01*
X023728Y018283D01*
X023656Y018355D01*
X023513Y018355D01*
X023441Y018283D01*
X023268Y018283D02*
X023196Y018355D01*
X023052Y018355D01*
X022981Y018283D01*
X022981Y018211D01*
X023052Y018139D01*
X022981Y018068D01*
X022981Y017996D01*
X023052Y018139D02*
X023124Y018139D01*
X022807Y018355D02*
X022520Y018355D01*
X022520Y018283D01*
X036570Y005633D02*
X036642Y005705D01*
X036785Y005705D01*
X036857Y005633D01*
X036570Y005633D02*
X036570Y005561D01*
X036857Y005274D01*
X036570Y005274D01*
X037031Y005274D02*
X037318Y005274D01*
X037174Y005274D02*
X037174Y005705D01*
X037318Y005561D01*
X037491Y005633D02*
X037563Y005705D01*
X037706Y005705D01*
X037778Y005633D01*
X037778Y005346D01*
X037706Y005274D01*
X037563Y005274D01*
X037491Y005346D01*
X039267Y005114D02*
X039338Y005114D01*
X039625Y005401D01*
X039697Y005401D01*
X039697Y005114D01*
X039697Y004797D02*
X039267Y004797D01*
X039267Y004654D02*
X039267Y004940D01*
X039554Y004654D02*
X039697Y004797D01*
X039625Y004480D02*
X039697Y004408D01*
X039697Y004193D01*
X039267Y004193D01*
X039267Y004408D01*
X039338Y004480D01*
X039625Y004480D01*
X050582Y014574D02*
X050582Y014646D01*
X050295Y014933D01*
X050295Y015005D01*
X050582Y015005D01*
X050756Y014933D02*
X050756Y014861D01*
X050828Y014789D01*
X050756Y014718D01*
X050756Y014646D01*
X050828Y014574D01*
X050971Y014574D01*
X051043Y014646D01*
X051216Y014646D02*
X051216Y014933D01*
X051288Y015005D01*
X051503Y015005D01*
X051503Y014574D01*
X051288Y014574D01*
X051216Y014646D01*
X051043Y014933D02*
X050971Y015005D01*
X050828Y015005D01*
X050756Y014933D01*
X050828Y014789D02*
X050899Y014789D01*
X050915Y015324D02*
X050986Y015396D01*
X050915Y015324D02*
X050771Y015324D01*
X050699Y015396D01*
X050699Y015468D01*
X050771Y015539D01*
X050843Y015539D01*
X050771Y015539D02*
X050699Y015611D01*
X050699Y015683D01*
X050771Y015755D01*
X050915Y015755D01*
X050986Y015683D01*
X051160Y015683D02*
X051232Y015755D01*
X051447Y015755D01*
X051447Y015324D01*
X051232Y015324D01*
X051160Y015396D01*
X051160Y015683D01*
X050526Y015683D02*
X050526Y015396D01*
X050239Y015683D01*
X050239Y015396D01*
X050311Y015324D01*
X050454Y015324D01*
X050526Y015396D01*
X050526Y015683D02*
X050454Y015755D01*
X050311Y015755D01*
X050239Y015683D01*
X052349Y015568D02*
X052349Y015496D01*
X052421Y015424D01*
X052565Y015424D01*
X052636Y015496D01*
X052636Y015639D01*
X052421Y015639D01*
X052349Y015568D01*
X052493Y015783D02*
X052636Y015639D01*
X052810Y015639D02*
X052882Y015568D01*
X053097Y015568D01*
X052953Y015568D02*
X052810Y015424D01*
X052810Y015639D02*
X052810Y015783D01*
X052882Y015855D01*
X053097Y015855D01*
X053097Y015424D01*
X053002Y014855D02*
X052931Y014783D01*
X052931Y014639D01*
X053002Y014568D01*
X053217Y014568D01*
X053074Y014568D02*
X052931Y014424D01*
X052757Y014496D02*
X052757Y014568D01*
X052685Y014639D01*
X052542Y014639D01*
X052470Y014568D01*
X052470Y014496D01*
X052542Y014424D01*
X052685Y014424D01*
X052757Y014496D01*
X052685Y014639D02*
X052757Y014711D01*
X052757Y014783D01*
X052685Y014855D01*
X052542Y014855D01*
X052470Y014783D01*
X052470Y014711D01*
X052542Y014639D01*
X053002Y014855D02*
X053217Y014855D01*
X053217Y014424D01*
X053588Y013882D02*
X053517Y013810D01*
X053517Y013667D01*
X053588Y013595D01*
X053875Y013882D01*
X053588Y013882D01*
X053588Y013595D02*
X053875Y013595D01*
X053947Y013667D01*
X053947Y013810D01*
X053875Y013882D01*
X053947Y013422D02*
X053947Y013135D01*
X053732Y013135D01*
X053804Y013278D01*
X053804Y013350D01*
X053732Y013422D01*
X053588Y013422D01*
X053517Y013350D01*
X053517Y013206D01*
X053588Y013135D01*
X053517Y012961D02*
X053660Y012818D01*
X053660Y012889D02*
X053660Y012674D01*
X053517Y012674D02*
X053947Y012674D01*
X053947Y012889D01*
X053875Y012961D01*
X053732Y012961D01*
X053660Y012889D01*
X055343Y012996D02*
X055343Y013068D01*
X055414Y013139D01*
X055629Y013139D01*
X055629Y012996D01*
X055558Y012924D01*
X055414Y012924D01*
X055343Y012996D01*
X055629Y013139D02*
X055486Y013283D01*
X055343Y013355D01*
X055803Y013283D02*
X055875Y013355D01*
X056018Y013355D01*
X056090Y013283D01*
X056090Y012996D01*
X056018Y012924D01*
X055875Y012924D01*
X055803Y012996D01*
X056253Y012924D02*
X056397Y012924D01*
X056325Y012924D02*
X056325Y013355D01*
X056397Y013355D02*
X056253Y013355D01*
X052493Y015783D02*
X052349Y015855D01*
X008977Y034252D02*
X008977Y034467D01*
X008905Y034539D01*
X008618Y034539D01*
X008547Y034467D01*
X008547Y034252D01*
X008977Y034252D01*
X008977Y034712D02*
X008762Y034712D01*
X008834Y034856D01*
X008834Y034927D01*
X008762Y034999D01*
X008618Y034999D01*
X008547Y034927D01*
X008547Y034784D01*
X008618Y034712D01*
X008977Y034712D02*
X008977Y034999D01*
X008834Y035173D02*
X008977Y035316D01*
X008547Y035316D01*
X008547Y035173D02*
X008547Y035459D01*
X003617Y034151D02*
X003545Y034223D01*
X003259Y033936D01*
X003187Y034008D01*
X003187Y034151D01*
X003259Y034223D01*
X003545Y034223D01*
X003617Y034151D02*
X003617Y034008D01*
X003545Y033936D01*
X003259Y033936D01*
X003259Y033763D02*
X003187Y033691D01*
X003187Y033548D01*
X003259Y033476D01*
X003402Y033476D02*
X003474Y033619D01*
X003474Y033691D01*
X003402Y033763D01*
X003259Y033763D01*
X003402Y033476D02*
X003617Y033476D01*
X003617Y033763D01*
X003545Y033302D02*
X003617Y033231D01*
X003617Y033016D01*
X003187Y033016D01*
X003187Y033231D01*
X003259Y033302D01*
X003545Y033302D01*
D11*
X003482Y026639D02*
X007882Y026639D01*
X007912Y026637D01*
X007942Y026632D01*
X007971Y026623D01*
X007998Y026610D01*
X008024Y026595D01*
X008048Y026576D01*
X008069Y026555D01*
X008088Y026531D01*
X008103Y026505D01*
X008116Y026478D01*
X008125Y026449D01*
X008130Y026419D01*
X008132Y026389D01*
X008132Y025539D01*
X008132Y024539D01*
X008132Y016539D01*
X008132Y015539D01*
X008132Y014689D01*
X008130Y014659D01*
X008125Y014629D01*
X008116Y014600D01*
X008103Y014573D01*
X008088Y014547D01*
X008069Y014523D01*
X008048Y014502D01*
X008024Y014483D01*
X007998Y014468D01*
X007971Y014455D01*
X007942Y014446D01*
X007912Y014441D01*
X007882Y014439D01*
X003482Y014439D01*
X003452Y014441D01*
X003422Y014446D01*
X003393Y014455D01*
X003366Y014468D01*
X003340Y014483D01*
X003316Y014502D01*
X003295Y014523D01*
X003276Y014547D01*
X003261Y014573D01*
X003248Y014600D01*
X003239Y014629D01*
X003234Y014659D01*
X003232Y014689D01*
X003232Y015539D01*
X003232Y016539D01*
X003232Y024539D01*
X003232Y025539D01*
X003232Y026389D01*
X003234Y026419D01*
X003239Y026449D01*
X003248Y026478D01*
X003261Y026505D01*
X003276Y026531D01*
X003295Y026555D01*
X003316Y026576D01*
X003340Y026595D01*
X003366Y026610D01*
X003393Y026623D01*
X003422Y026632D01*
X003452Y026637D01*
X003482Y026639D01*
X003282Y025539D02*
X003282Y024539D01*
X003232Y024539D01*
X003232Y025539D02*
X003282Y025539D01*
X004762Y023809D02*
X006842Y023499D01*
X006835Y023502D02*
X006877Y023489D01*
X006918Y023473D01*
X006957Y023454D01*
X006994Y023431D01*
X007029Y023406D01*
X007062Y023378D01*
X007093Y023347D01*
X007121Y023313D01*
X007146Y023278D01*
X007169Y023240D01*
X007188Y023201D01*
X007204Y023160D01*
X007216Y023118D01*
X007225Y023076D01*
X007230Y023033D01*
X007232Y022989D01*
X007232Y018089D01*
X007230Y018045D01*
X007225Y018001D01*
X007215Y017958D01*
X007203Y017915D01*
X007186Y017874D01*
X007167Y017835D01*
X007144Y017797D01*
X007118Y017761D01*
X007089Y017727D01*
X007058Y017696D01*
X007024Y017668D01*
X006988Y017643D01*
X006950Y017620D01*
X006910Y017601D01*
X006868Y017586D01*
X006826Y017574D01*
X006832Y017579D02*
X004772Y017269D01*
X004775Y017271D02*
X004731Y017263D01*
X004686Y017260D01*
X004641Y017259D01*
X004596Y017263D01*
X004551Y017271D01*
X004508Y017282D01*
X004465Y017297D01*
X004424Y017315D01*
X004385Y017337D01*
X004347Y017362D01*
X004312Y017391D01*
X004280Y017422D01*
X004250Y017456D01*
X004223Y017492D01*
X004199Y017530D01*
X004179Y017570D01*
X004162Y017612D01*
X004149Y017655D01*
X004140Y017699D01*
X004134Y017744D01*
X004132Y017789D01*
X004132Y023289D01*
X004134Y023334D01*
X004139Y023378D01*
X004149Y023421D01*
X004162Y023464D01*
X004178Y023506D01*
X004198Y023546D01*
X004221Y023584D01*
X004248Y023620D01*
X004277Y023653D01*
X004309Y023684D01*
X004344Y023713D01*
X004380Y023738D01*
X004419Y023760D01*
X004460Y023779D01*
X004501Y023794D01*
X004544Y023806D01*
X004588Y023814D01*
X004633Y023818D01*
X004677Y023819D01*
X004722Y023816D01*
X004766Y023809D01*
X005032Y025469D02*
X005034Y025519D01*
X005040Y025569D01*
X005050Y025619D01*
X005063Y025667D01*
X005080Y025715D01*
X005101Y025761D01*
X005125Y025805D01*
X005153Y025847D01*
X005184Y025887D01*
X005218Y025924D01*
X005255Y025959D01*
X005294Y025990D01*
X005335Y026019D01*
X005379Y026044D01*
X005425Y026066D01*
X005472Y026084D01*
X005520Y026098D01*
X005569Y026109D01*
X005619Y026116D01*
X005669Y026119D01*
X005720Y026118D01*
X005770Y026113D01*
X005820Y026104D01*
X005868Y026092D01*
X005916Y026075D01*
X005962Y026055D01*
X006007Y026032D01*
X006050Y026005D01*
X006090Y025975D01*
X006128Y025942D01*
X006163Y025906D01*
X006196Y025867D01*
X006225Y025826D01*
X006251Y025783D01*
X006274Y025738D01*
X006293Y025691D01*
X006308Y025643D01*
X006320Y025594D01*
X006328Y025544D01*
X006332Y025494D01*
X006332Y025444D01*
X006328Y025394D01*
X006320Y025344D01*
X006308Y025295D01*
X006293Y025247D01*
X006274Y025200D01*
X006251Y025155D01*
X006225Y025112D01*
X006196Y025071D01*
X006163Y025032D01*
X006128Y024996D01*
X006090Y024963D01*
X006050Y024933D01*
X006007Y024906D01*
X005962Y024883D01*
X005916Y024863D01*
X005868Y024846D01*
X005820Y024834D01*
X005770Y024825D01*
X005720Y024820D01*
X005669Y024819D01*
X005619Y024822D01*
X005569Y024829D01*
X005520Y024840D01*
X005472Y024854D01*
X005425Y024872D01*
X005379Y024894D01*
X005335Y024919D01*
X005294Y024948D01*
X005255Y024979D01*
X005218Y025014D01*
X005184Y025051D01*
X005153Y025091D01*
X005125Y025133D01*
X005101Y025177D01*
X005080Y025223D01*
X005063Y025271D01*
X005050Y025319D01*
X005040Y025369D01*
X005034Y025419D01*
X005032Y025469D01*
X008082Y025539D02*
X008082Y024539D01*
X008132Y024539D01*
X008132Y025539D02*
X008082Y025539D01*
X008082Y016539D02*
X008082Y015539D01*
X008132Y015539D01*
X008132Y016539D02*
X008082Y016539D01*
X005032Y015609D02*
X005034Y015659D01*
X005040Y015709D01*
X005050Y015759D01*
X005063Y015807D01*
X005080Y015855D01*
X005101Y015901D01*
X005125Y015945D01*
X005153Y015987D01*
X005184Y016027D01*
X005218Y016064D01*
X005255Y016099D01*
X005294Y016130D01*
X005335Y016159D01*
X005379Y016184D01*
X005425Y016206D01*
X005472Y016224D01*
X005520Y016238D01*
X005569Y016249D01*
X005619Y016256D01*
X005669Y016259D01*
X005720Y016258D01*
X005770Y016253D01*
X005820Y016244D01*
X005868Y016232D01*
X005916Y016215D01*
X005962Y016195D01*
X006007Y016172D01*
X006050Y016145D01*
X006090Y016115D01*
X006128Y016082D01*
X006163Y016046D01*
X006196Y016007D01*
X006225Y015966D01*
X006251Y015923D01*
X006274Y015878D01*
X006293Y015831D01*
X006308Y015783D01*
X006320Y015734D01*
X006328Y015684D01*
X006332Y015634D01*
X006332Y015584D01*
X006328Y015534D01*
X006320Y015484D01*
X006308Y015435D01*
X006293Y015387D01*
X006274Y015340D01*
X006251Y015295D01*
X006225Y015252D01*
X006196Y015211D01*
X006163Y015172D01*
X006128Y015136D01*
X006090Y015103D01*
X006050Y015073D01*
X006007Y015046D01*
X005962Y015023D01*
X005916Y015003D01*
X005868Y014986D01*
X005820Y014974D01*
X005770Y014965D01*
X005720Y014960D01*
X005669Y014959D01*
X005619Y014962D01*
X005569Y014969D01*
X005520Y014980D01*
X005472Y014994D01*
X005425Y015012D01*
X005379Y015034D01*
X005335Y015059D01*
X005294Y015088D01*
X005255Y015119D01*
X005218Y015154D01*
X005184Y015191D01*
X005153Y015231D01*
X005125Y015273D01*
X005101Y015317D01*
X005080Y015363D01*
X005063Y015411D01*
X005050Y015459D01*
X005040Y015509D01*
X005034Y015559D01*
X005032Y015609D01*
X003282Y015539D02*
X003232Y015539D01*
X003282Y015539D02*
X003282Y016539D01*
X003232Y016539D01*
X044782Y009139D02*
X044782Y008639D01*
X045132Y008289D01*
X045632Y008289D01*
X045982Y008639D01*
X045982Y009139D01*
X045632Y009489D01*
X045132Y009489D01*
X044782Y009139D01*
X048032Y013089D02*
X048532Y013089D01*
X048882Y013439D01*
X048882Y013939D01*
X048532Y014289D01*
X048032Y014289D01*
X047682Y013939D01*
X047682Y013439D01*
X048032Y013089D01*
D12*
X049892Y013236D02*
X051672Y013236D01*
X050948Y013409D02*
X050588Y013789D01*
X050948Y014149D01*
X050948Y014149D01*
X050948Y013409D01*
X050948Y013442D02*
X050917Y013442D01*
X050948Y013521D02*
X050843Y013521D01*
X050768Y013599D02*
X050948Y013599D01*
X050948Y013678D02*
X050694Y013678D01*
X050619Y013756D02*
X050948Y013756D01*
X050948Y013835D02*
X050634Y013835D01*
X050712Y013913D02*
X050948Y013913D01*
X050948Y013992D02*
X050791Y013992D01*
X050869Y014070D02*
X050948Y014070D01*
X050568Y014149D02*
X050568Y013409D01*
X050629Y012583D02*
X050629Y011796D01*
X050869Y012189D01*
X050869Y011796D01*
X051082Y011789D02*
X050882Y012189D01*
X051082Y012589D01*
X051082Y011789D01*
X050869Y012189D02*
X050869Y012583D01*
X050629Y012583D02*
X050869Y012189D01*
X049992Y010842D02*
X051772Y010842D01*
X051048Y010649D02*
X050688Y010289D01*
X051048Y009909D01*
X051048Y010649D01*
X051048Y010614D02*
X051013Y010614D01*
X051048Y010536D02*
X050935Y010536D01*
X050856Y010457D02*
X051048Y010457D01*
X051048Y010379D02*
X050778Y010379D01*
X050699Y010300D02*
X051048Y010300D01*
X051048Y010222D02*
X050752Y010222D01*
X050826Y010143D02*
X051048Y010143D01*
X051048Y010065D02*
X050901Y010065D01*
X050975Y009986D02*
X051048Y009986D01*
X050668Y009909D02*
X050668Y010649D01*
X049992Y009736D02*
X051772Y009736D01*
X051082Y009089D02*
X051082Y008289D01*
X050882Y008689D01*
X051082Y009089D01*
X050869Y009083D02*
X050869Y008689D01*
X050869Y008296D01*
X050629Y008296D02*
X050869Y008689D01*
X050629Y009083D01*
X050629Y008296D01*
X047582Y010363D02*
X047188Y010903D01*
X047975Y010903D01*
X047582Y010363D01*
X044842Y009646D02*
X044842Y013733D01*
X049892Y014342D02*
X051672Y014342D01*
X051082Y016289D02*
X050882Y016689D01*
X051082Y017089D01*
X051082Y016289D01*
X050869Y016296D02*
X050869Y016689D01*
X050869Y017083D01*
X050629Y017083D02*
X050869Y016689D01*
X050629Y016296D01*
X050629Y017083D01*
X049992Y017736D02*
X051772Y017736D01*
X051048Y017909D02*
X050688Y018289D01*
X051048Y018649D01*
X051048Y017909D01*
X051048Y017919D02*
X051039Y017919D01*
X051048Y017998D02*
X050964Y017998D01*
X050890Y018076D02*
X051048Y018076D01*
X051048Y018155D02*
X050816Y018155D01*
X050741Y018233D02*
X051048Y018233D01*
X051048Y018312D02*
X050710Y018312D01*
X050789Y018390D02*
X051048Y018390D01*
X051048Y018469D02*
X050868Y018469D01*
X050946Y018547D02*
X051048Y018547D01*
X051048Y018626D02*
X051025Y018626D01*
X050668Y018649D02*
X050668Y017909D01*
X049992Y018842D02*
X051772Y018842D01*
X051082Y019789D02*
X050882Y020189D01*
X051082Y020589D01*
X051082Y019789D01*
X050869Y019796D02*
X050869Y020189D01*
X050869Y020583D01*
X050629Y020583D02*
X050869Y020189D01*
X050629Y019796D01*
X050629Y020583D01*
X049892Y021236D02*
X051672Y021236D01*
X050948Y021409D02*
X050588Y021789D01*
X050948Y022149D01*
X050948Y021409D01*
X050948Y021453D02*
X050906Y021453D01*
X050948Y021532D02*
X050832Y021532D01*
X050757Y021611D02*
X050948Y021611D01*
X050948Y021689D02*
X050683Y021689D01*
X050609Y021768D02*
X050948Y021768D01*
X050948Y021846D02*
X050645Y021846D01*
X050723Y021925D02*
X050948Y021925D01*
X050948Y022003D02*
X050802Y022003D01*
X050881Y022082D02*
X050948Y022082D01*
X050568Y022149D02*
X050568Y021409D01*
X049892Y022342D02*
X051672Y022342D01*
X051082Y025089D02*
X050882Y025489D01*
X051082Y025889D01*
X051082Y025089D01*
X050869Y025096D02*
X050869Y025489D01*
X050869Y025883D01*
X050629Y025883D02*
X050869Y025489D01*
X050629Y025096D01*
X050629Y025883D01*
X049992Y026536D02*
X051772Y026536D01*
X051048Y026709D02*
X050688Y027089D01*
X051048Y027449D01*
X051048Y026709D01*
X051048Y026716D02*
X051042Y026716D01*
X051048Y026794D02*
X050967Y026794D01*
X050893Y026873D02*
X051048Y026873D01*
X051048Y026951D02*
X050819Y026951D01*
X050744Y027030D02*
X051048Y027030D01*
X051048Y027109D02*
X050707Y027109D01*
X050786Y027187D02*
X051048Y027187D01*
X051048Y027266D02*
X050864Y027266D01*
X050943Y027344D02*
X051048Y027344D01*
X051048Y027423D02*
X051021Y027423D01*
X050668Y027449D02*
X050668Y026709D01*
X049992Y027642D02*
X051772Y027642D01*
X051082Y028589D02*
X050882Y028989D01*
X051082Y029389D01*
X051082Y028589D01*
X050869Y028596D02*
X050869Y028989D01*
X050869Y029383D01*
X050629Y029383D02*
X050869Y028989D01*
X050629Y028596D01*
X050629Y029383D01*
X049892Y030036D02*
X051672Y030036D01*
X050948Y030209D02*
X050588Y030589D01*
X050948Y030949D01*
X050948Y030209D01*
X050948Y030250D02*
X050909Y030250D01*
X050948Y030329D02*
X050835Y030329D01*
X050760Y030407D02*
X050948Y030407D01*
X050948Y030486D02*
X050686Y030486D01*
X050611Y030564D02*
X050948Y030564D01*
X050948Y030643D02*
X050642Y030643D01*
X050720Y030722D02*
X050948Y030722D01*
X050948Y030800D02*
X050799Y030800D01*
X050877Y030879D02*
X050948Y030879D01*
X050568Y030949D02*
X050568Y030209D01*
X049892Y031142D02*
X051672Y031142D01*
X051082Y033089D02*
X050882Y033489D01*
X051082Y033889D01*
X051082Y033089D01*
X050869Y033096D02*
X050869Y033489D01*
X050869Y033883D01*
X050629Y033883D02*
X050869Y033489D01*
X050629Y033096D01*
X050629Y033883D01*
X049992Y034536D02*
X051772Y034536D01*
X051048Y034709D02*
X050688Y035089D01*
X051048Y035449D01*
X051048Y034709D01*
X051048Y034727D02*
X051031Y034727D01*
X051048Y034806D02*
X050957Y034806D01*
X050882Y034884D02*
X051048Y034884D01*
X051048Y034963D02*
X050808Y034963D01*
X050733Y035041D02*
X051048Y035041D01*
X051048Y035120D02*
X050719Y035120D01*
X050797Y035199D02*
X051048Y035199D01*
X051048Y035277D02*
X050876Y035277D01*
X050954Y035356D02*
X051048Y035356D01*
X051048Y035434D02*
X051033Y035434D01*
X050668Y035449D02*
X050668Y034709D01*
X049992Y035642D02*
X051772Y035642D01*
X051082Y036589D02*
X050882Y036989D01*
X051082Y037389D01*
X051082Y036589D01*
X050869Y036596D02*
X050869Y036989D01*
X050869Y037383D01*
X050629Y037383D02*
X050869Y036989D01*
X050629Y036596D01*
X050629Y037383D01*
X049892Y038036D02*
X051672Y038036D01*
X050948Y038209D02*
X050588Y038589D01*
X050948Y038949D01*
X050948Y038209D01*
X050948Y038262D02*
X050898Y038262D01*
X050948Y038340D02*
X050824Y038340D01*
X050750Y038419D02*
X050948Y038419D01*
X050948Y038497D02*
X050675Y038497D01*
X050601Y038576D02*
X050948Y038576D01*
X050948Y038654D02*
X050653Y038654D01*
X050732Y038733D02*
X050948Y038733D01*
X050948Y038812D02*
X050810Y038812D01*
X050889Y038890D02*
X050948Y038890D01*
X050568Y038949D02*
X050568Y038209D01*
X049892Y039142D02*
X051672Y039142D01*
X047975Y035703D02*
X047188Y035703D01*
X047582Y035163D01*
X047975Y035703D01*
X044842Y034446D02*
X044842Y038533D01*
X044842Y030533D02*
X044842Y026446D01*
X047188Y027703D02*
X047582Y027163D01*
X047975Y027703D01*
X047188Y027703D01*
X044842Y021733D02*
X044842Y017646D01*
X047188Y018903D02*
X047582Y018363D01*
X047975Y018903D01*
X047188Y018903D01*
X035672Y010442D02*
X033892Y010442D01*
X034615Y010269D02*
X034975Y009889D01*
X034615Y009529D01*
X034615Y010269D01*
X034615Y010222D02*
X034660Y010222D01*
X034615Y010143D02*
X034735Y010143D01*
X034809Y010065D02*
X034615Y010065D01*
X034615Y009986D02*
X034884Y009986D01*
X034958Y009908D02*
X034615Y009908D01*
X034615Y009829D02*
X034915Y009829D01*
X034837Y009751D02*
X034615Y009751D01*
X034615Y009672D02*
X034758Y009672D01*
X034680Y009593D02*
X034615Y009593D01*
X034995Y009529D02*
X034995Y010269D01*
X035672Y009336D02*
X033892Y009336D01*
X036725Y009634D02*
X038442Y009634D01*
X038442Y007744D01*
X038638Y007744D01*
X038442Y007744D02*
X036725Y007744D01*
X038442Y009634D02*
X038638Y009634D01*
X038682Y005086D02*
X038879Y004692D01*
X038485Y004692D01*
X038682Y005086D01*
X031579Y005792D02*
X031185Y005792D01*
X031382Y006186D01*
X031579Y005792D01*
X030679Y005792D02*
X030285Y005792D01*
X030482Y006186D01*
X030679Y005792D01*
X028257Y005160D02*
X028257Y004468D01*
X027706Y004468D01*
X027706Y005160D01*
X028257Y005160D01*
X027569Y004327D02*
X027571Y004339D01*
X027576Y004350D01*
X027585Y004359D01*
X027596Y004364D01*
X027608Y004366D01*
X027620Y004364D01*
X027631Y004359D01*
X027640Y004350D01*
X027645Y004339D01*
X027647Y004327D01*
X027645Y004315D01*
X027640Y004304D01*
X027631Y004295D01*
X027620Y004290D01*
X027608Y004288D01*
X027596Y004290D01*
X027585Y004295D01*
X027576Y004304D01*
X027571Y004315D01*
X027569Y004327D01*
X024257Y004468D02*
X024257Y005160D01*
X023706Y005160D01*
X023706Y004468D01*
X024257Y004468D01*
X023569Y004327D02*
X023571Y004339D01*
X023576Y004350D01*
X023585Y004359D01*
X023596Y004364D01*
X023608Y004366D01*
X023620Y004364D01*
X023631Y004359D01*
X023640Y004350D01*
X023645Y004339D01*
X023647Y004327D01*
X023645Y004315D01*
X023640Y004304D01*
X023631Y004295D01*
X023620Y004290D01*
X023608Y004288D01*
X023596Y004290D01*
X023585Y004295D01*
X023576Y004304D01*
X023571Y004315D01*
X023569Y004327D01*
X020257Y004468D02*
X020257Y005160D01*
X019706Y005160D01*
X019706Y004468D01*
X020257Y004468D01*
X019569Y004327D02*
X019571Y004339D01*
X019576Y004350D01*
X019585Y004359D01*
X019596Y004364D01*
X019608Y004366D01*
X019620Y004364D01*
X019631Y004359D01*
X019640Y004350D01*
X019645Y004339D01*
X019647Y004327D01*
X019645Y004315D01*
X019640Y004304D01*
X019631Y004295D01*
X019620Y004290D01*
X019608Y004288D01*
X019596Y004290D01*
X019585Y004295D01*
X019576Y004304D01*
X019571Y004315D01*
X019569Y004327D01*
X013917Y005451D02*
X013919Y005463D01*
X013924Y005474D01*
X013933Y005483D01*
X013944Y005488D01*
X013956Y005490D01*
X013968Y005488D01*
X013979Y005483D01*
X013988Y005474D01*
X013993Y005463D01*
X013995Y005451D01*
X013993Y005439D01*
X013988Y005428D01*
X013979Y005419D01*
X013968Y005414D01*
X013956Y005412D01*
X013944Y005414D01*
X013933Y005419D01*
X013924Y005428D01*
X013919Y005439D01*
X013917Y005451D01*
X013857Y005310D02*
X013857Y004618D01*
X013306Y004618D01*
X013306Y005310D01*
X013857Y005310D01*
X011379Y009189D02*
X010985Y008992D01*
X010985Y009386D01*
X011379Y009189D01*
X010985Y011492D02*
X010985Y011886D01*
X011379Y011689D01*
X010985Y011492D01*
X006157Y012918D02*
X005606Y012918D01*
X005606Y013610D01*
X006157Y013610D01*
X006157Y012918D01*
X006217Y013751D02*
X006219Y013763D01*
X006224Y013774D01*
X006233Y013783D01*
X006244Y013788D01*
X006256Y013790D01*
X006268Y013788D01*
X006279Y013783D01*
X006288Y013774D01*
X006293Y013763D01*
X006295Y013751D01*
X006293Y013739D01*
X006288Y013728D01*
X006279Y013719D01*
X006268Y013714D01*
X006256Y013712D01*
X006244Y013714D01*
X006233Y013719D01*
X006224Y013728D01*
X006219Y013739D01*
X006217Y013751D01*
X004903Y009265D02*
X004211Y009265D01*
X004211Y008714D01*
X004903Y008714D01*
X004903Y009265D01*
X005005Y008615D02*
X005007Y008627D01*
X005012Y008638D01*
X005021Y008647D01*
X005032Y008652D01*
X005044Y008654D01*
X005056Y008652D01*
X005067Y008647D01*
X005076Y008638D01*
X005081Y008627D01*
X005083Y008615D01*
X005081Y008603D01*
X005076Y008592D01*
X005067Y008583D01*
X005056Y008578D01*
X005044Y008576D01*
X005032Y008578D01*
X005021Y008583D01*
X005012Y008592D01*
X005007Y008603D01*
X005005Y008615D01*
X003019Y019827D02*
X003021Y019839D01*
X003026Y019850D01*
X003035Y019859D01*
X003046Y019864D01*
X003058Y019866D01*
X003070Y019864D01*
X003081Y019859D01*
X003090Y019850D01*
X003095Y019839D01*
X003097Y019827D01*
X003095Y019815D01*
X003090Y019804D01*
X003081Y019795D01*
X003070Y019790D01*
X003058Y019788D01*
X003046Y019790D01*
X003035Y019795D01*
X003026Y019804D01*
X003021Y019815D01*
X003019Y019827D01*
X003156Y019968D02*
X003156Y020660D01*
X003707Y020660D01*
X003707Y019968D01*
X003156Y019968D01*
X016269Y021727D02*
X016271Y021739D01*
X016276Y021750D01*
X016285Y021759D01*
X016296Y021764D01*
X016308Y021766D01*
X016320Y021764D01*
X016331Y021759D01*
X016340Y021750D01*
X016345Y021739D01*
X016347Y021727D01*
X016345Y021715D01*
X016340Y021704D01*
X016331Y021695D01*
X016320Y021690D01*
X016308Y021688D01*
X016296Y021690D01*
X016285Y021695D01*
X016276Y021704D01*
X016271Y021715D01*
X016269Y021727D01*
X016406Y021868D02*
X016406Y022560D01*
X016957Y022560D01*
X016957Y021868D01*
X016406Y021868D01*
X016269Y027127D02*
X016271Y027139D01*
X016276Y027150D01*
X016285Y027159D01*
X016296Y027164D01*
X016308Y027166D01*
X016320Y027164D01*
X016331Y027159D01*
X016340Y027150D01*
X016345Y027139D01*
X016347Y027127D01*
X016345Y027115D01*
X016340Y027104D01*
X016331Y027095D01*
X016320Y027090D01*
X016308Y027088D01*
X016296Y027090D01*
X016285Y027095D01*
X016276Y027104D01*
X016271Y027115D01*
X016269Y027127D01*
X016406Y027268D02*
X016406Y027960D01*
X016957Y027960D01*
X016957Y027268D01*
X016406Y027268D01*
X019561Y031014D02*
X020253Y031014D01*
X020253Y031565D01*
X019561Y031565D01*
X019561Y031014D01*
X019381Y031663D02*
X019383Y031675D01*
X019388Y031686D01*
X019397Y031695D01*
X019408Y031700D01*
X019420Y031702D01*
X019432Y031700D01*
X019443Y031695D01*
X019452Y031686D01*
X019457Y031675D01*
X019459Y031663D01*
X019457Y031651D01*
X019452Y031640D01*
X019443Y031631D01*
X019432Y031626D01*
X019420Y031624D01*
X019408Y031626D01*
X019397Y031631D01*
X019388Y031640D01*
X019383Y031651D01*
X019381Y031663D01*
X019253Y033314D02*
X018561Y033314D01*
X018561Y033865D01*
X019253Y033865D01*
X019253Y033314D01*
X018381Y033963D02*
X018383Y033975D01*
X018388Y033986D01*
X018397Y033995D01*
X018408Y034000D01*
X018420Y034002D01*
X018432Y034000D01*
X018443Y033995D01*
X018452Y033986D01*
X018457Y033975D01*
X018459Y033963D01*
X018457Y033951D01*
X018452Y033940D01*
X018443Y033931D01*
X018432Y033926D01*
X018420Y033924D01*
X018408Y033926D01*
X018397Y033931D01*
X018388Y033940D01*
X018383Y033951D01*
X018381Y033963D01*
X008157Y034368D02*
X008157Y035060D01*
X007606Y035060D01*
X007606Y034368D01*
X008157Y034368D01*
X007469Y034227D02*
X007471Y034239D01*
X007476Y034250D01*
X007485Y034259D01*
X007496Y034264D01*
X007508Y034266D01*
X007520Y034264D01*
X007531Y034259D01*
X007540Y034250D01*
X007545Y034239D01*
X007547Y034227D01*
X007545Y034215D01*
X007540Y034204D01*
X007531Y034195D01*
X007520Y034190D01*
X007508Y034188D01*
X007496Y034190D01*
X007485Y034195D01*
X007476Y034204D01*
X007471Y034215D01*
X007469Y034227D01*
X004617Y034151D02*
X004619Y034163D01*
X004624Y034174D01*
X004633Y034183D01*
X004644Y034188D01*
X004656Y034190D01*
X004668Y034188D01*
X004679Y034183D01*
X004688Y034174D01*
X004693Y034163D01*
X004695Y034151D01*
X004693Y034139D01*
X004688Y034128D01*
X004679Y034119D01*
X004668Y034114D01*
X004656Y034112D01*
X004644Y034114D01*
X004633Y034119D01*
X004624Y034128D01*
X004619Y034139D01*
X004617Y034151D01*
X004557Y034010D02*
X004557Y033318D01*
X004006Y033318D01*
X004006Y034010D01*
X004557Y034010D01*
D13*
X037932Y009439D03*
D14*
X035685Y008952D02*
X035378Y008952D01*
X035532Y008799D02*
X035532Y009106D01*
X038758Y005893D02*
X038758Y005586D01*
X038605Y005739D02*
X038912Y005739D01*
X046359Y009287D02*
X046359Y012091D01*
X048804Y012091D02*
X048804Y009287D01*
X049992Y009439D02*
X051772Y009439D01*
X051772Y007939D02*
X049992Y007939D01*
X049992Y011439D02*
X051772Y011439D01*
X051772Y012939D02*
X049992Y012939D01*
X049992Y015939D02*
X051772Y015939D01*
X051772Y017439D02*
X049992Y017439D01*
X048804Y017287D02*
X048804Y020091D01*
X049992Y019439D02*
X051772Y019439D01*
X051772Y020939D02*
X049992Y020939D01*
X046359Y020091D02*
X046359Y017287D01*
X049992Y024739D02*
X051772Y024739D01*
X051772Y026239D02*
X049992Y026239D01*
X048804Y026087D02*
X048804Y028891D01*
X049992Y028239D02*
X051772Y028239D01*
X051772Y029739D02*
X049992Y029739D01*
X049992Y032739D02*
X051772Y032739D01*
X051772Y034239D02*
X049992Y034239D01*
X048804Y034087D02*
X048804Y036891D01*
X049992Y036239D02*
X051772Y036239D01*
X051772Y037739D02*
X049992Y037739D01*
X046359Y036891D02*
X046359Y034087D01*
X046359Y028891D02*
X046359Y026087D01*
D15*
X035412Y008669D02*
X034152Y008669D01*
X034152Y006309D01*
X035412Y006309D01*
X035412Y008669D01*
X036002Y007119D02*
X038362Y007119D01*
X038362Y005859D01*
X036002Y005859D01*
X036002Y007119D01*
X007057Y018932D02*
X007000Y018819D01*
X006887Y018705D01*
X006887Y018875D01*
X006830Y018932D01*
X006773Y018932D01*
X006717Y018875D01*
X006717Y018762D01*
X006773Y018705D01*
X006887Y018705D01*
X006773Y019805D02*
X006717Y019805D01*
X006773Y019805D02*
X007000Y020032D01*
X007057Y020032D01*
X007057Y019805D01*
X007000Y020905D02*
X006944Y020905D01*
X006887Y020962D01*
X006887Y021075D01*
X006830Y021132D01*
X006773Y021132D01*
X006717Y021075D01*
X006717Y020962D01*
X006773Y020905D01*
X006830Y020905D01*
X006887Y020962D01*
X006887Y021075D02*
X006944Y021132D01*
X007000Y021132D01*
X007057Y021075D01*
X007057Y020962D01*
X007000Y020905D01*
X007000Y022005D02*
X006944Y022005D01*
X006887Y022062D01*
X006887Y022232D01*
X007000Y022232D02*
X007057Y022175D01*
X007057Y022062D01*
X007000Y022005D01*
X006773Y022005D02*
X006717Y022062D01*
X006717Y022175D01*
X006773Y022232D01*
X007000Y022232D01*
X004657Y022555D02*
X004487Y022555D01*
X004544Y022669D01*
X004544Y022725D01*
X004487Y022782D01*
X004373Y022782D01*
X004317Y022725D01*
X004317Y022612D01*
X004373Y022555D01*
X004657Y022555D02*
X004657Y022782D01*
X004487Y021682D02*
X004487Y021455D01*
X004657Y021625D01*
X004317Y021625D01*
X004373Y020632D02*
X004317Y020575D01*
X004317Y020462D01*
X004373Y020405D01*
X004487Y020519D02*
X004487Y020575D01*
X004430Y020632D01*
X004373Y020632D01*
X004487Y020575D02*
X004544Y020632D01*
X004600Y020632D01*
X004657Y020575D01*
X004657Y020462D01*
X004600Y020405D01*
X004600Y019532D02*
X004657Y019475D01*
X004657Y019362D01*
X004600Y019305D01*
X004600Y019532D02*
X004544Y019532D01*
X004317Y019305D01*
X004317Y019532D01*
X004317Y018432D02*
X004317Y018205D01*
X004317Y018319D02*
X004657Y018319D01*
X004544Y018205D01*
D16*
X030482Y006209D03*
X031382Y006209D03*
X038682Y005109D03*
D17*
X047582Y010109D03*
X047582Y018109D03*
X047582Y026909D03*
X047582Y034909D03*
D18*
X002887Y026193D02*
X002684Y025990D01*
X002887Y026193D02*
X002277Y026193D01*
X002277Y025990D02*
X002277Y026397D01*
X002277Y025752D02*
X002887Y025345D01*
X002887Y025752D02*
X002277Y025345D01*
D19*
X011402Y011689D03*
X011402Y009189D03*
M02*
