G75*
G70*
%OFA0B0*%
%FSLAX24Y24*%
%IPPOS*%
%LPD*%
%AMOC8*
5,1,8,0,0,1.08239X$1,22.5*
%
%ADD10R,0.0513X0.0828*%
%ADD11R,0.0434X0.0356*%
%ADD12R,0.0356X0.0434*%
%ADD13R,0.0474X0.0474*%
%ADD14R,0.0336X0.0198*%
%ADD15R,0.0198X0.0336*%
%ADD16R,0.0671X0.0592*%
%ADD17OC8,0.1080*%
%ADD18R,0.0680X0.4080*%
%ADD19R,0.0474X0.0631*%
%ADD20R,0.0631X0.0474*%
%ADD21R,0.0580X0.0330*%
%ADD22C,0.0820*%
%ADD23R,0.0820X0.0820*%
%ADD24R,0.0186X0.0671*%
%ADD25R,0.0671X0.0186*%
%ADD26R,0.0740X0.0740*%
%ADD27OC8,0.0740*%
%ADD28R,0.0671X0.0493*%
%ADD29R,0.0592X0.0671*%
%ADD30OC8,0.0720*%
%ADD31R,0.2521X0.2206*%
%ADD32R,0.0710X0.0474*%
%ADD33R,0.1025X0.1025*%
%ADD34R,0.1576X0.1182*%
%ADD35C,0.1380*%
%ADD36OC8,0.1380*%
%ADD37OC8,0.0640*%
%ADD38R,0.0474X0.0218*%
%ADD39R,0.0178X0.0631*%
%ADD40R,0.0631X0.0178*%
%ADD41R,0.0330X0.0580*%
%ADD42C,0.0430*%
%ADD43OC8,0.0520*%
D10*
X035729Y028711D03*
X036634Y028711D03*
X036634Y030168D03*
X035729Y030168D03*
D11*
X035232Y029845D03*
X035232Y029333D03*
X035338Y030918D03*
X035777Y030918D03*
X035777Y031430D03*
X035338Y031430D03*
X033879Y031393D03*
X033879Y031748D03*
X033879Y032259D03*
X033879Y030881D03*
X032932Y030145D03*
X032432Y030145D03*
X032432Y029633D03*
X032932Y029633D03*
X032932Y029045D03*
X032432Y029045D03*
X032432Y028533D03*
X032932Y028533D03*
X037132Y028633D03*
X037132Y029145D03*
X037132Y029683D03*
X037132Y030195D03*
D12*
X034922Y030901D03*
X034410Y030901D03*
X034416Y030489D03*
X033905Y030489D03*
X033865Y032629D03*
X033353Y032629D03*
D13*
X034082Y029339D03*
D14*
X034830Y029339D03*
X034830Y029142D03*
X034830Y028946D03*
X034830Y029536D03*
X034830Y029733D03*
X033334Y029733D03*
X033334Y029536D03*
X033334Y029339D03*
X033334Y029142D03*
X033334Y028946D03*
D15*
X033688Y028591D03*
X033885Y028591D03*
X034082Y028591D03*
X034279Y028591D03*
X034475Y028591D03*
X034475Y030087D03*
X034279Y030087D03*
X034082Y030087D03*
X033885Y030087D03*
X033688Y030087D03*
D16*
X041582Y029063D03*
X041582Y028315D03*
X041582Y027363D03*
X041582Y026615D03*
X042682Y027415D03*
X042682Y028163D03*
X041582Y034615D03*
X041582Y035363D03*
X041582Y036315D03*
X041582Y037063D03*
X042682Y036163D03*
X042682Y035415D03*
X054382Y036315D03*
X054382Y037063D03*
X054382Y029063D03*
X054382Y028315D03*
X054382Y020263D03*
X054382Y019515D03*
X054382Y012263D03*
X054382Y011515D03*
X042682Y011363D03*
X042682Y010615D03*
X041582Y010563D03*
X041582Y009815D03*
X041582Y011515D03*
X041582Y012263D03*
X041582Y017815D03*
X041582Y018563D03*
X041582Y019515D03*
X041582Y020263D03*
X042682Y019363D03*
X042682Y018615D03*
X031282Y012963D03*
X031282Y012215D03*
X028982Y006763D03*
X028982Y006015D03*
X027982Y006015D03*
X027982Y006763D03*
X026982Y006763D03*
X025982Y006763D03*
X025982Y006015D03*
X026982Y006015D03*
X024982Y006015D03*
X024982Y006763D03*
X023982Y006763D03*
X022982Y006763D03*
X022982Y006015D03*
X023982Y006015D03*
X021982Y006015D03*
X021982Y006763D03*
X020982Y006763D03*
X019982Y006763D03*
X019982Y006015D03*
X020982Y006015D03*
X018982Y006015D03*
X018982Y006763D03*
X017982Y006763D03*
X017982Y006015D03*
X013582Y005163D03*
X013582Y004415D03*
X006182Y009315D03*
X006182Y010063D03*
X017282Y009815D03*
X017282Y010563D03*
X008582Y018765D03*
X008582Y019513D03*
X021382Y032515D03*
X021382Y033263D03*
X022482Y033263D03*
X022482Y032515D03*
X024182Y032515D03*
X024182Y033263D03*
X030482Y006463D03*
X031382Y006463D03*
X031382Y005715D03*
X030482Y005715D03*
D17*
X041482Y004289D03*
X043082Y004289D03*
X045382Y004289D03*
X046982Y004289D03*
X049282Y004289D03*
X050882Y004289D03*
X045382Y008889D03*
X048282Y013689D03*
X045382Y016889D03*
X048282Y021689D03*
X045382Y025689D03*
X048282Y030489D03*
X045382Y033689D03*
X048282Y038489D03*
D18*
X038082Y008489D03*
X034482Y008489D03*
D19*
X024456Y035856D03*
X023708Y035856D03*
X024082Y036722D03*
X022656Y035756D03*
X021908Y035756D03*
X021156Y035756D03*
X020408Y035756D03*
X019656Y035756D03*
X018908Y035756D03*
X019282Y036622D03*
X020782Y036622D03*
X022282Y036622D03*
D20*
X023849Y038289D03*
X024715Y037915D03*
X024715Y038663D03*
X017115Y020763D03*
X017115Y020015D03*
X016249Y020389D03*
D21*
X029282Y012139D03*
X029282Y011789D03*
X029282Y011439D03*
X029382Y009639D03*
X029382Y009289D03*
X029382Y008939D03*
X042582Y013112D03*
X042582Y013466D03*
X042582Y021112D03*
X042582Y021466D03*
X042582Y029912D03*
X042582Y030266D03*
X042582Y037912D03*
X042582Y038266D03*
X013482Y007439D03*
X013482Y007089D03*
X013482Y006739D03*
D22*
X014982Y004039D03*
X015982Y003939D03*
X016982Y004039D03*
X017982Y003939D03*
X018982Y004039D03*
X019982Y003939D03*
X020982Y004039D03*
X021982Y003939D03*
X022982Y004039D03*
X023982Y003939D03*
X024982Y004039D03*
X025982Y003939D03*
X026982Y004039D03*
X027982Y003939D03*
X028982Y004039D03*
X029982Y003939D03*
X031882Y004089D03*
X032882Y003989D03*
X033882Y004089D03*
X034882Y003989D03*
X035882Y004089D03*
X036882Y003989D03*
X023632Y008789D03*
X023532Y009789D03*
X023632Y010789D03*
X022232Y010789D03*
X022132Y009789D03*
X020732Y009789D03*
X020832Y010789D03*
X019432Y010789D03*
X019332Y009789D03*
X019432Y008789D03*
X020832Y008789D03*
X022232Y008789D03*
X009082Y007539D03*
X008082Y007439D03*
X007082Y007539D03*
X005382Y007539D03*
X004382Y007439D03*
X003382Y007539D03*
X003582Y010089D03*
X004582Y010089D03*
X004382Y012089D03*
X005382Y012189D03*
X006382Y012089D03*
X007382Y012189D03*
X008382Y012089D03*
X003382Y012189D03*
X013982Y020389D03*
X014982Y020389D03*
X014982Y022289D03*
X013982Y022289D03*
X031382Y026639D03*
X032382Y026739D03*
X033382Y026639D03*
X034382Y026739D03*
X035382Y026639D03*
X036382Y026739D03*
X037382Y026639D03*
X016782Y038739D03*
X015782Y038639D03*
X014782Y038739D03*
D23*
X030382Y026739D03*
D24*
X029144Y019540D03*
X028947Y019540D03*
X028750Y019540D03*
X028553Y019540D03*
X028357Y019540D03*
X028160Y019540D03*
X027963Y019540D03*
X027766Y019540D03*
X027569Y019540D03*
X027372Y019540D03*
X027175Y019540D03*
X026979Y019540D03*
X026782Y019540D03*
X026585Y019540D03*
X026388Y019540D03*
X026191Y019540D03*
X025994Y019540D03*
X025797Y019540D03*
X025601Y019540D03*
X025404Y019540D03*
X025207Y019540D03*
X025010Y019540D03*
X024813Y019540D03*
X024616Y019540D03*
X024420Y019540D03*
X024420Y013438D03*
X024616Y013438D03*
X024813Y013438D03*
X025010Y013438D03*
X025207Y013438D03*
X025404Y013438D03*
X025601Y013438D03*
X025797Y013438D03*
X025994Y013438D03*
X026191Y013438D03*
X026388Y013438D03*
X026585Y013438D03*
X026782Y013438D03*
X026979Y013438D03*
X027175Y013438D03*
X027372Y013438D03*
X027569Y013438D03*
X027766Y013438D03*
X027963Y013438D03*
X028160Y013438D03*
X028357Y013438D03*
X028553Y013438D03*
X028750Y013438D03*
X028947Y013438D03*
X029144Y013438D03*
D25*
X029833Y014127D03*
X029833Y014324D03*
X029833Y014521D03*
X029833Y014718D03*
X029833Y014914D03*
X029833Y015111D03*
X029833Y015308D03*
X029833Y015505D03*
X029833Y015702D03*
X029833Y015899D03*
X029833Y016096D03*
X029833Y016292D03*
X029833Y016489D03*
X029833Y016686D03*
X029833Y016883D03*
X029833Y017080D03*
X029833Y017277D03*
X029833Y017474D03*
X029833Y017670D03*
X029833Y017867D03*
X029833Y018064D03*
X029833Y018261D03*
X029833Y018458D03*
X029833Y018655D03*
X029833Y018851D03*
X023731Y018851D03*
X023731Y018655D03*
X023731Y018458D03*
X023731Y018261D03*
X023731Y018064D03*
X023731Y017867D03*
X023731Y017670D03*
X023731Y017474D03*
X023731Y017277D03*
X023731Y017080D03*
X023731Y016883D03*
X023731Y016686D03*
X023731Y016489D03*
X023731Y016292D03*
X023731Y016096D03*
X023731Y015899D03*
X023731Y015702D03*
X023731Y015505D03*
X023731Y015308D03*
X023731Y015111D03*
X023731Y014914D03*
X023731Y014718D03*
X023731Y014521D03*
X023731Y014324D03*
X023731Y014127D03*
D26*
X014382Y014189D03*
D27*
X013382Y014189D03*
X013382Y015189D03*
X014382Y015189D03*
X014382Y016189D03*
X013382Y016189D03*
D28*
X016582Y015492D03*
X016582Y017087D03*
D29*
X017908Y015389D03*
X018656Y015389D03*
X019458Y015389D03*
X020206Y015389D03*
X020456Y014389D03*
X019708Y014389D03*
X018656Y014489D03*
X017908Y014489D03*
X018008Y019489D03*
X018756Y019489D03*
X012856Y024389D03*
X012108Y024389D03*
X012108Y026389D03*
X012856Y026389D03*
X012856Y031389D03*
X012108Y031389D03*
X012108Y032389D03*
X012856Y032389D03*
X012856Y033389D03*
X012108Y033389D03*
X012108Y034389D03*
X012856Y034389D03*
X012856Y035389D03*
X012108Y035389D03*
X008256Y035289D03*
X007508Y035289D03*
X007508Y034089D03*
X008256Y034089D03*
X004356Y034189D03*
X003608Y034189D03*
X003608Y035189D03*
X004356Y035189D03*
X004356Y033189D03*
X003608Y033189D03*
X003608Y032189D03*
X004356Y032189D03*
X056008Y034489D03*
X056756Y034489D03*
X056756Y035789D03*
X056008Y035789D03*
X056008Y027789D03*
X056756Y027789D03*
X056756Y026489D03*
X056008Y026489D03*
X056008Y018989D03*
X056756Y018989D03*
X056756Y017689D03*
X056008Y017689D03*
X056008Y010989D03*
X056756Y010989D03*
X056756Y009689D03*
X056008Y009689D03*
D30*
X037482Y023989D03*
X035282Y023989D03*
X033482Y023989D03*
X031482Y023989D03*
X029482Y023989D03*
X021282Y015389D03*
X014982Y024389D03*
X013982Y024389D03*
X013982Y025389D03*
X014982Y025389D03*
X014982Y026389D03*
X013982Y026389D03*
X013982Y027389D03*
X014982Y027389D03*
X014982Y028389D03*
X013982Y028389D03*
X013982Y029389D03*
X014982Y029389D03*
X014982Y030389D03*
X013982Y030389D03*
X013982Y031389D03*
X014982Y031389D03*
X014982Y032389D03*
X013982Y032389D03*
X013982Y033389D03*
X014982Y033389D03*
X014982Y034389D03*
X013982Y034389D03*
X013982Y035389D03*
X014982Y035389D03*
X019582Y038089D03*
X020582Y038089D03*
X021582Y038089D03*
X022582Y038089D03*
X022582Y039089D03*
X021582Y039089D03*
X020582Y039089D03*
X019582Y039089D03*
X006482Y035189D03*
X005482Y035189D03*
X005482Y034189D03*
X006482Y034189D03*
X006482Y033189D03*
X005482Y033189D03*
X005482Y032189D03*
X006482Y032189D03*
X005122Y022699D03*
X006242Y022159D03*
X006242Y021079D03*
X006242Y019999D03*
X005122Y019459D03*
X005122Y018379D03*
X006242Y018919D03*
X005122Y020539D03*
X005122Y021619D03*
X039682Y040389D03*
X043082Y040389D03*
X046282Y040389D03*
X051182Y040489D03*
D31*
X050397Y037589D03*
X050497Y034089D03*
X050397Y029589D03*
X050497Y026089D03*
X050397Y020789D03*
X050497Y017289D03*
X050397Y012789D03*
X050497Y009289D03*
D32*
X053371Y008392D03*
X053371Y010187D03*
X053271Y011892D03*
X053271Y013687D03*
X053371Y016392D03*
X053371Y018187D03*
X053271Y019892D03*
X053271Y021687D03*
X053371Y025192D03*
X053371Y026987D03*
X053271Y028692D03*
X053271Y030487D03*
X053371Y033192D03*
X053371Y034987D03*
X053271Y036692D03*
X053271Y038487D03*
D33*
X055516Y037089D03*
X057248Y037089D03*
X057248Y029089D03*
X055516Y029089D03*
X055516Y020289D03*
X057248Y020289D03*
X057248Y012289D03*
X055516Y012289D03*
D34*
X045982Y013446D03*
X045982Y010533D03*
X045982Y018533D03*
X045982Y021446D03*
X045982Y027333D03*
X045982Y030246D03*
X045982Y035333D03*
X045982Y038246D03*
D35*
X002182Y002189D03*
X005682Y015609D03*
X005682Y025469D03*
X002182Y042189D03*
X058182Y042189D03*
X058182Y002189D03*
D36*
X011792Y004589D03*
X009822Y004589D03*
X007852Y004589D03*
X005882Y004589D03*
D37*
X014382Y009589D03*
X015382Y010589D03*
X016382Y009589D03*
D38*
X015951Y006885D03*
X015951Y006688D03*
X015951Y006491D03*
X015951Y006294D03*
X014612Y006294D03*
X014612Y006491D03*
X014612Y006688D03*
X014612Y006885D03*
D39*
X026916Y009408D03*
X027073Y009408D03*
X027231Y009408D03*
X027388Y009408D03*
X027546Y009408D03*
X027703Y009408D03*
X027860Y009408D03*
X028018Y009408D03*
X028175Y009408D03*
X028333Y009408D03*
X028490Y009408D03*
X028648Y009408D03*
X028648Y011770D03*
X028490Y011770D03*
X028333Y011770D03*
X028175Y011770D03*
X028018Y011770D03*
X027860Y011770D03*
X027703Y011770D03*
X027546Y011770D03*
X027388Y011770D03*
X027231Y011770D03*
X027073Y011770D03*
X026916Y011770D03*
D40*
X032101Y012323D03*
X032101Y012481D03*
X032101Y012638D03*
X032101Y012796D03*
X032101Y012953D03*
X032101Y013111D03*
X032101Y013268D03*
X032101Y013426D03*
X032101Y013583D03*
X032101Y013740D03*
X032101Y013898D03*
X032101Y014055D03*
X034463Y014055D03*
X034463Y013898D03*
X034463Y013740D03*
X034463Y013583D03*
X034463Y013426D03*
X034463Y013268D03*
X034463Y013111D03*
X034463Y012953D03*
X034463Y012796D03*
X034463Y012638D03*
X034463Y012481D03*
X034463Y012323D03*
D41*
X032732Y010289D03*
X032382Y010289D03*
X032032Y010289D03*
X032882Y014689D03*
X033232Y014689D03*
X033582Y014689D03*
D42*
X033932Y029689D03*
X034432Y029689D03*
D43*
X033282Y027689D03*
X031782Y028189D03*
X030182Y028489D03*
X028682Y026689D03*
X027082Y026689D03*
X027082Y028089D03*
X027082Y029489D03*
X027082Y030989D03*
X027082Y032489D03*
X028482Y032489D03*
X029882Y032489D03*
X031282Y032489D03*
X032482Y032489D03*
X035382Y032489D03*
X036882Y032489D03*
X038382Y032489D03*
X038382Y031089D03*
X038382Y029389D03*
X039982Y029189D03*
X040882Y027789D03*
X040882Y027189D03*
X042182Y025989D03*
X042682Y024489D03*
X042182Y024089D03*
X042682Y023689D03*
X042182Y023289D03*
X041682Y021989D03*
X043382Y021089D03*
X042682Y020389D03*
X040882Y018989D03*
X040882Y018389D03*
X039182Y018389D03*
X037682Y016989D03*
X036282Y015589D03*
X036682Y015189D03*
X037082Y014789D03*
X037182Y013689D03*
X037282Y012889D03*
X037882Y012489D03*
X036182Y011389D03*
X035782Y011789D03*
X034982Y010989D03*
X034082Y011939D03*
X032082Y011939D03*
X031282Y011139D03*
X031282Y010589D03*
X031282Y010039D03*
X031282Y009489D03*
X031382Y008289D03*
X031382Y007289D03*
X030482Y007289D03*
X028982Y007589D03*
X029382Y008489D03*
X029382Y010489D03*
X029532Y012589D03*
X028982Y012589D03*
X030082Y013589D03*
X031082Y013589D03*
X031882Y015339D03*
X031332Y015539D03*
X031682Y017489D03*
X030982Y017689D03*
X032082Y018389D03*
X032082Y019089D03*
X033482Y017889D03*
X033382Y016989D03*
X033882Y016089D03*
X033282Y013889D03*
X027485Y016292D03*
X026182Y015889D03*
X025782Y015489D03*
X025382Y015089D03*
X024982Y014689D03*
X023082Y015689D03*
X022532Y015489D03*
X024482Y016589D03*
X024482Y017189D03*
X025082Y016689D03*
X027453Y018261D03*
X030232Y019289D03*
X031282Y021189D03*
X030782Y021889D03*
X030082Y022489D03*
X028932Y021689D03*
X028732Y021089D03*
X026607Y021714D03*
X026232Y022089D03*
X027382Y023189D03*
X025882Y025189D03*
X022882Y027489D03*
X018362Y023999D03*
X017632Y023089D03*
X018402Y021879D03*
X017082Y021389D03*
X016282Y021189D03*
X017382Y019489D03*
X019882Y017489D03*
X020482Y017489D03*
X021782Y018389D03*
X021582Y019189D03*
X021332Y019739D03*
X021082Y020289D03*
X024082Y021589D03*
X024282Y020289D03*
X022182Y017589D03*
X019082Y013889D03*
X017182Y014889D03*
X017482Y016489D03*
X015682Y017089D03*
X009682Y013289D03*
X017282Y008989D03*
X017682Y008389D03*
X018082Y007989D03*
X018482Y007589D03*
X016682Y006889D03*
X016682Y006339D03*
X015132Y007439D03*
X014782Y005889D03*
X014082Y005889D03*
X012782Y005189D03*
X018482Y005389D03*
X019482Y005489D03*
X020482Y005489D03*
X021482Y005389D03*
X022482Y005389D03*
X023482Y005489D03*
X024482Y005489D03*
X025482Y005389D03*
X026482Y005389D03*
X027482Y005489D03*
X028482Y005489D03*
X029482Y005389D03*
X033582Y008089D03*
X038982Y006489D03*
X039482Y007089D03*
X039682Y005889D03*
X039482Y007989D03*
X042182Y009189D03*
X040782Y010289D03*
X040882Y010989D03*
X042682Y012389D03*
X043382Y013089D03*
X041982Y014189D03*
X042882Y015189D03*
X042282Y015789D03*
X042182Y017189D03*
X039882Y020389D03*
X037082Y019389D03*
X034682Y020189D03*
X033582Y021189D03*
X033582Y021889D03*
X034682Y022689D03*
X035782Y023189D03*
X036182Y024589D03*
X035382Y024889D03*
X036682Y025589D03*
X037882Y025089D03*
X038582Y025189D03*
X039582Y025089D03*
X038382Y027689D03*
X042682Y029189D03*
X043382Y029889D03*
X041782Y030789D03*
X042082Y032089D03*
X042682Y032489D03*
X042182Y033989D03*
X040882Y035189D03*
X040882Y035789D03*
X039882Y037189D03*
X041782Y038789D03*
X043382Y037889D03*
X042682Y037189D03*
X047582Y033089D03*
X048982Y031489D03*
X049882Y031489D03*
X052982Y033889D03*
X053582Y033889D03*
X053632Y034439D03*
X054607Y034689D03*
X054607Y034139D03*
X054482Y033489D03*
X054582Y032489D03*
X053982Y032089D03*
X054182Y030489D03*
X054382Y029689D03*
X052982Y028189D03*
X052482Y027889D03*
X053657Y026339D03*
X053482Y025789D03*
X052882Y025889D03*
X054482Y025489D03*
X054607Y026139D03*
X054607Y026689D03*
X054607Y027689D03*
X056107Y027139D03*
X056657Y027139D03*
X054582Y024489D03*
X053982Y024089D03*
X054582Y023689D03*
X053982Y023289D03*
X054182Y021689D03*
X054382Y020889D03*
X052982Y019389D03*
X052482Y019089D03*
X053657Y017539D03*
X053482Y016989D03*
X052882Y017089D03*
X053582Y015589D03*
X054082Y015189D03*
X054482Y016489D03*
X054607Y017339D03*
X054607Y017889D03*
X054607Y018889D03*
X056107Y018339D03*
X056657Y018339D03*
X057282Y021389D03*
X049882Y022689D03*
X048982Y022689D03*
X047582Y025089D03*
X048882Y027289D03*
X057282Y030189D03*
X056657Y035139D03*
X056107Y035139D03*
X054607Y035689D03*
X053082Y036189D03*
X052582Y035789D03*
X054482Y037789D03*
X054082Y038489D03*
X058082Y037789D03*
X049982Y039489D03*
X049082Y039489D03*
X048982Y035339D03*
X035182Y021489D03*
X032182Y020989D03*
X040082Y012989D03*
X047582Y016289D03*
X048882Y014689D03*
X049882Y014689D03*
X054182Y013689D03*
X054382Y012889D03*
X052982Y011389D03*
X052482Y011089D03*
X053657Y009539D03*
X053482Y008989D03*
X052882Y009089D03*
X054482Y008589D03*
X054607Y009339D03*
X054607Y009889D03*
X054607Y010889D03*
X056107Y010339D03*
X056657Y010339D03*
X056882Y013289D03*
X048782Y010489D03*
X047582Y008289D03*
X055482Y005489D03*
X048782Y018489D03*
X026382Y012789D03*
X026182Y012239D03*
X026532Y011489D03*
X024806Y012389D03*
X024182Y012489D03*
X026182Y010089D03*
X018082Y010589D03*
X011482Y022989D03*
X011482Y024889D03*
X011482Y025889D03*
X011482Y027889D03*
X011482Y029889D03*
X011482Y030889D03*
X011482Y031889D03*
X011482Y033889D03*
X011482Y034889D03*
X016982Y034289D03*
X017582Y034489D03*
X017582Y033889D03*
X016982Y033389D03*
X017782Y032889D03*
X017282Y032389D03*
X017182Y031389D03*
X016782Y030889D03*
X017082Y029989D03*
X017982Y030489D03*
X017882Y031489D03*
X018382Y031889D03*
X019482Y033089D03*
X019782Y034089D03*
X020682Y034389D03*
X019982Y035089D03*
X021482Y035089D03*
X022382Y034389D03*
X023082Y035189D03*
X024182Y034389D03*
X024982Y035189D03*
X025482Y038189D03*
X025382Y038789D03*
X018282Y034289D03*
X018082Y034889D03*
X017582Y035389D03*
X015782Y029889D03*
X017282Y028389D03*
X017382Y026389D03*
X015682Y025889D03*
X016112Y023719D03*
M02*
