G75*
G70*
%OFA0B0*%
%FSLAX24Y24*%
%IPPOS*%
%LPD*%
%AMOC8*
5,1,8,0,0,1.08239X$1,22.5*
%
%ADD10R,0.0671X0.0592*%
%ADD11OC8,0.1080*%
%ADD12R,0.0946X0.0316*%
%ADD13R,0.0592X0.0671*%
%ADD14R,0.1080X0.0780*%
%ADD15R,0.0780X0.1080*%
%ADD16R,0.1025X0.1025*%
%ADD17C,0.0820*%
%ADD18R,0.0820X0.0820*%
%ADD19R,0.0740X0.0740*%
%ADD20OC8,0.0740*%
%ADD21R,0.0631X0.0474*%
%ADD22OC8,0.0720*%
%ADD23R,0.0474X0.0631*%
%ADD24R,0.0200X0.0410*%
%ADD25R,0.0410X0.0200*%
%ADD26R,0.0789X0.0631*%
%ADD27R,0.1576X0.1182*%
%ADD28C,0.1380*%
%ADD29OC8,0.1380*%
%ADD30OC8,0.0640*%
%ADD31R,0.0434X0.0356*%
%ADD32R,0.0631X0.0789*%
%ADD33C,0.0430*%
%ADD34OC8,0.0520*%
D10*
X014382Y006715D03*
X014382Y007463D03*
X018082Y009115D03*
X018082Y009863D03*
X012182Y015215D03*
X012182Y015963D03*
X018382Y020415D03*
X018382Y021163D03*
X018782Y022515D03*
X018782Y023263D03*
X023482Y021563D03*
X023482Y020815D03*
X027282Y021015D03*
X027282Y021763D03*
X029682Y021663D03*
X029682Y020915D03*
X036482Y023115D03*
X036482Y023863D03*
X029482Y027715D03*
X029482Y028463D03*
X022382Y035015D03*
X022382Y035763D03*
X020782Y035763D03*
X020782Y035015D03*
X019182Y034915D03*
X019182Y035663D03*
X024182Y035863D03*
X024182Y035115D03*
X025582Y036715D03*
X025582Y037463D03*
X024582Y038215D03*
X024582Y038963D03*
X052882Y038763D03*
X052882Y038015D03*
X052782Y035213D03*
X052782Y034465D03*
X052882Y030763D03*
X052882Y030015D03*
X052782Y027213D03*
X052782Y026465D03*
X052882Y021963D03*
X052882Y021215D03*
X052782Y018413D03*
X052782Y017665D03*
X052882Y013963D03*
X052882Y013215D03*
X052782Y010413D03*
X052782Y009665D03*
X032382Y008063D03*
X032382Y007315D03*
X025582Y011415D03*
X025582Y012163D03*
D11*
X041482Y004289D03*
X043082Y004289D03*
X045382Y004289D03*
X046982Y004289D03*
X049282Y004289D03*
X050882Y004289D03*
X045382Y008889D03*
X048282Y013689D03*
X045382Y016889D03*
X048282Y021689D03*
X045382Y025689D03*
X048282Y030489D03*
X045382Y033689D03*
X048282Y038489D03*
D12*
X045452Y038239D03*
X045452Y037739D03*
X045452Y037239D03*
X045452Y036739D03*
X045452Y036239D03*
X045452Y035739D03*
X045452Y035239D03*
X045452Y034739D03*
X041712Y034739D03*
X041712Y035239D03*
X041712Y035739D03*
X041712Y036239D03*
X041712Y036739D03*
X041712Y037239D03*
X041712Y037739D03*
X041712Y038239D03*
X041712Y030239D03*
X041712Y029739D03*
X041712Y029239D03*
X041712Y028739D03*
X041712Y028239D03*
X041712Y027739D03*
X041712Y027239D03*
X041712Y026739D03*
X045452Y026739D03*
X045452Y027239D03*
X045452Y027739D03*
X045452Y028239D03*
X045452Y028739D03*
X045452Y029239D03*
X045452Y029739D03*
X045452Y030239D03*
X055358Y029189D03*
X055358Y028689D03*
X055358Y028189D03*
X055358Y027689D03*
X055358Y027189D03*
X055358Y026689D03*
X055358Y026189D03*
X057405Y026189D03*
X057405Y026689D03*
X057405Y027189D03*
X057405Y027689D03*
X057405Y028189D03*
X057405Y028689D03*
X057405Y029189D03*
X057405Y034189D03*
X057405Y034689D03*
X057405Y035189D03*
X057405Y035689D03*
X057405Y036189D03*
X057405Y036689D03*
X057405Y037189D03*
X055358Y037189D03*
X055358Y036689D03*
X055358Y036189D03*
X055358Y035689D03*
X055358Y035189D03*
X055358Y034689D03*
X055358Y034189D03*
X045452Y021439D03*
X045452Y020939D03*
X045452Y020439D03*
X045452Y019939D03*
X045452Y019439D03*
X045452Y018939D03*
X045452Y018439D03*
X045452Y017939D03*
X041712Y017939D03*
X041712Y018439D03*
X041712Y018939D03*
X041712Y019439D03*
X041712Y019939D03*
X041712Y020439D03*
X041712Y020939D03*
X041712Y021439D03*
X041712Y013439D03*
X041712Y012939D03*
X041712Y012439D03*
X041712Y011939D03*
X041712Y011439D03*
X041712Y010939D03*
X041712Y010439D03*
X041712Y009939D03*
X038705Y009439D03*
X038705Y008939D03*
X038705Y008439D03*
X038705Y007939D03*
X036658Y007939D03*
X036658Y008439D03*
X036658Y008939D03*
X036658Y009439D03*
X045452Y009939D03*
X045452Y010439D03*
X045452Y010939D03*
X045452Y011439D03*
X045452Y011939D03*
X045452Y012439D03*
X045452Y012939D03*
X045452Y013439D03*
X055358Y012389D03*
X055358Y011889D03*
X055358Y011389D03*
X055358Y010889D03*
X055358Y010389D03*
X055358Y009889D03*
X055358Y009389D03*
X057405Y009389D03*
X057405Y009889D03*
X057405Y010389D03*
X057405Y010889D03*
X057405Y011389D03*
X057405Y011889D03*
X057405Y012389D03*
X057405Y017389D03*
X057405Y017889D03*
X057405Y018389D03*
X057405Y018889D03*
X057405Y019389D03*
X057405Y019889D03*
X057405Y020389D03*
X055358Y020389D03*
X055358Y019889D03*
X055358Y019389D03*
X055358Y018889D03*
X055358Y018389D03*
X055358Y017889D03*
X055358Y017389D03*
D13*
X053756Y016389D03*
X053008Y016389D03*
X052808Y020089D03*
X053556Y020089D03*
X053756Y025189D03*
X053008Y025189D03*
X052808Y028889D03*
X053556Y028889D03*
X053756Y033189D03*
X053008Y033189D03*
X052808Y036889D03*
X053556Y036889D03*
X031356Y025589D03*
X030608Y025589D03*
X029156Y023089D03*
X028408Y023089D03*
X030108Y018339D03*
X030856Y018339D03*
X031408Y016489D03*
X032156Y016489D03*
X028956Y013389D03*
X028208Y013389D03*
X024756Y013389D03*
X024008Y013389D03*
X022956Y014889D03*
X022208Y014889D03*
X022808Y017389D03*
X023556Y017389D03*
X017356Y020389D03*
X016608Y020389D03*
X012856Y022989D03*
X012108Y022989D03*
X012108Y024889D03*
X012856Y024889D03*
X012856Y025889D03*
X012108Y025889D03*
X012108Y027889D03*
X012856Y027889D03*
X012856Y029889D03*
X012108Y029889D03*
X012108Y030889D03*
X012856Y030889D03*
X012856Y031889D03*
X012108Y031889D03*
X012108Y033889D03*
X012856Y033889D03*
X012856Y034889D03*
X012108Y034889D03*
X020708Y033689D03*
X021456Y033689D03*
X011556Y010789D03*
X010808Y010789D03*
X010808Y008289D03*
X011556Y008289D03*
X012508Y005889D03*
X013256Y005889D03*
X037308Y010289D03*
X038056Y010289D03*
X052808Y012089D03*
X053556Y012089D03*
X053756Y008389D03*
X053008Y008389D03*
D14*
X034782Y008509D03*
X034782Y006469D03*
D15*
X036162Y006489D03*
X038202Y006489D03*
D16*
X035648Y009889D03*
X033916Y009889D03*
X050016Y010289D03*
X051748Y010289D03*
X051748Y008689D03*
X050016Y008689D03*
X050016Y012189D03*
X051748Y012189D03*
X051648Y013789D03*
X049916Y013789D03*
X050016Y016689D03*
X051748Y016689D03*
X051748Y018289D03*
X050016Y018289D03*
X050016Y020189D03*
X051748Y020189D03*
X051648Y021789D03*
X049916Y021789D03*
X050016Y025489D03*
X051748Y025489D03*
X051748Y027089D03*
X050016Y027089D03*
X050016Y028989D03*
X049916Y030589D03*
X051648Y030589D03*
X051748Y028989D03*
X051748Y033489D03*
X050016Y033489D03*
X050016Y035089D03*
X051748Y035089D03*
X051748Y036989D03*
X051648Y038589D03*
X049916Y038589D03*
X050016Y036989D03*
D17*
X037382Y026639D03*
X036382Y026739D03*
X035382Y026639D03*
X034382Y026739D03*
X033382Y026639D03*
X032382Y026739D03*
X031382Y026639D03*
X014982Y022289D03*
X013982Y022289D03*
X013982Y020389D03*
X014982Y020389D03*
X008382Y012089D03*
X007382Y012189D03*
X006382Y012089D03*
X005382Y012189D03*
X004382Y012089D03*
X003382Y012189D03*
X003582Y010089D03*
X004582Y010089D03*
X004382Y007439D03*
X005382Y007539D03*
X007082Y007539D03*
X008082Y007439D03*
X009082Y007539D03*
X014982Y004039D03*
X015982Y003939D03*
X016982Y004039D03*
X017982Y003939D03*
X018982Y004039D03*
X019982Y003939D03*
X020982Y004039D03*
X021982Y003939D03*
X022982Y004039D03*
X023982Y003939D03*
X024982Y004039D03*
X025982Y003939D03*
X026982Y004039D03*
X027982Y003939D03*
X028982Y004039D03*
X029982Y003939D03*
X031882Y004089D03*
X032882Y003989D03*
X033882Y004089D03*
X034882Y003989D03*
X035882Y004089D03*
X036882Y003989D03*
X023632Y008789D03*
X023532Y009789D03*
X023632Y010789D03*
X022232Y010789D03*
X022132Y009789D03*
X020732Y009789D03*
X020832Y010789D03*
X019432Y010789D03*
X019332Y009789D03*
X019432Y008789D03*
X020832Y008789D03*
X022232Y008789D03*
X003382Y007539D03*
X014782Y038739D03*
X015782Y038639D03*
X016782Y038739D03*
D18*
X030382Y026739D03*
D19*
X014382Y014189D03*
D20*
X013382Y014189D03*
X013382Y015189D03*
X014382Y015189D03*
X014382Y016189D03*
X013382Y016189D03*
D21*
X015015Y018415D03*
X014149Y018789D03*
X015015Y019163D03*
X019615Y015263D03*
X018749Y014889D03*
X019615Y014515D03*
D22*
X021282Y015389D03*
X014982Y024389D03*
X013982Y024389D03*
X013982Y025389D03*
X014982Y025389D03*
X014982Y026389D03*
X013982Y026389D03*
X013982Y027389D03*
X014982Y027389D03*
X014982Y028389D03*
X013982Y028389D03*
X013982Y029389D03*
X014982Y029389D03*
X014982Y030389D03*
X013982Y030389D03*
X013982Y031389D03*
X014982Y031389D03*
X014982Y032389D03*
X013982Y032389D03*
X013982Y033389D03*
X014982Y033389D03*
X014982Y034389D03*
X013982Y034389D03*
X013982Y035389D03*
X014982Y035389D03*
X019582Y038089D03*
X020582Y038089D03*
X021582Y038089D03*
X022582Y038089D03*
X022582Y039089D03*
X021582Y039089D03*
X020582Y039089D03*
X019582Y039089D03*
X006482Y035189D03*
X005482Y035189D03*
X005482Y034189D03*
X006482Y034189D03*
X006482Y033189D03*
X005482Y033189D03*
X005482Y032189D03*
X006482Y032189D03*
X005122Y022699D03*
X006242Y022159D03*
X006242Y021079D03*
X006242Y019999D03*
X005122Y019459D03*
X005122Y018379D03*
X006242Y018919D03*
X005122Y020539D03*
X005122Y021619D03*
X029482Y023989D03*
X031482Y023989D03*
X033482Y023989D03*
X035282Y023989D03*
X037482Y023989D03*
X039682Y040389D03*
X043082Y040389D03*
X046282Y040389D03*
X051182Y040489D03*
D23*
X023356Y040556D03*
X022608Y040556D03*
X022982Y041422D03*
X021656Y040556D03*
X020908Y040556D03*
X020156Y040556D03*
X019408Y040556D03*
X019782Y041422D03*
X021282Y041422D03*
D24*
X019082Y033874D03*
X018882Y033874D03*
X018682Y033874D03*
X018682Y033304D03*
X018882Y033304D03*
X019082Y033304D03*
X019682Y031574D03*
X019882Y031574D03*
X020082Y031574D03*
X020082Y031004D03*
X019882Y031004D03*
X019682Y031004D03*
X004782Y009274D03*
X004582Y009274D03*
X004382Y009274D03*
X004382Y008704D03*
X004582Y008704D03*
X004782Y008704D03*
D25*
X005597Y013089D03*
X005597Y013289D03*
X005597Y013489D03*
X006167Y013489D03*
X006167Y013289D03*
X006167Y013089D03*
X003717Y020089D03*
X003717Y020289D03*
X003717Y020489D03*
X003147Y020489D03*
X003147Y020289D03*
X003147Y020089D03*
X016397Y021989D03*
X016397Y022189D03*
X016397Y022389D03*
X016967Y022389D03*
X016967Y022189D03*
X016967Y021989D03*
X016967Y027389D03*
X016967Y027589D03*
X016967Y027789D03*
X016397Y027789D03*
X016397Y027589D03*
X016397Y027389D03*
X008167Y034489D03*
X008167Y034689D03*
X008167Y034889D03*
X007597Y034889D03*
X007597Y034689D03*
X007597Y034489D03*
X004567Y033889D03*
X004567Y033689D03*
X004567Y033489D03*
X003997Y033489D03*
X003997Y033689D03*
X003997Y033889D03*
X013297Y005189D03*
X013297Y004989D03*
X013297Y004789D03*
X013867Y004789D03*
X013867Y004989D03*
X013867Y005189D03*
X019697Y004989D03*
X019697Y004789D03*
X019697Y004589D03*
X020267Y004589D03*
X020267Y004789D03*
X020267Y004989D03*
X023697Y004989D03*
X023697Y004789D03*
X023697Y004589D03*
X024267Y004589D03*
X024267Y004789D03*
X024267Y004989D03*
X027697Y004989D03*
X027697Y004789D03*
X027697Y004589D03*
X028267Y004589D03*
X028267Y004789D03*
X028267Y004989D03*
D26*
X030482Y005320D03*
X031382Y005320D03*
X031382Y006659D03*
X030482Y006659D03*
X038682Y005559D03*
X038682Y004220D03*
D27*
X047582Y009233D03*
X047582Y012146D03*
X047582Y017233D03*
X047582Y020146D03*
X047582Y026033D03*
X047582Y028946D03*
X047582Y034033D03*
X047582Y036946D03*
D28*
X002182Y002189D03*
X005682Y015609D03*
X005682Y025469D03*
X002182Y042189D03*
X058182Y042189D03*
X058182Y002189D03*
D29*
X011792Y004589D03*
X009822Y004589D03*
X007852Y004589D03*
X005882Y004589D03*
D30*
X014382Y009589D03*
X015382Y010589D03*
X016382Y009589D03*
D31*
X012782Y009445D03*
X012782Y008933D03*
X012782Y011433D03*
X012782Y011945D03*
D32*
X011851Y011689D03*
X010512Y011689D03*
X010512Y009189D03*
X011851Y009189D03*
D33*
X033932Y029689D03*
X034432Y029689D03*
D34*
X033282Y027689D03*
X031782Y028189D03*
X030182Y028489D03*
X028682Y026689D03*
X027082Y026689D03*
X027082Y028089D03*
X027082Y029489D03*
X027082Y030989D03*
X027082Y032489D03*
X028482Y032489D03*
X029882Y032489D03*
X031282Y032489D03*
X032482Y032489D03*
X035382Y032489D03*
X036882Y032489D03*
X038382Y032489D03*
X038382Y031089D03*
X038382Y029389D03*
X039982Y029189D03*
X040882Y027789D03*
X040882Y027189D03*
X042182Y025989D03*
X042682Y024489D03*
X042182Y024089D03*
X042682Y023689D03*
X042182Y023289D03*
X041682Y021989D03*
X043382Y021089D03*
X042682Y020389D03*
X040882Y018989D03*
X040882Y018389D03*
X039182Y018389D03*
X037682Y016989D03*
X036282Y015589D03*
X036682Y015189D03*
X037082Y014789D03*
X037182Y013689D03*
X037282Y012889D03*
X037882Y012489D03*
X036182Y011389D03*
X035782Y011789D03*
X034982Y010989D03*
X034082Y011939D03*
X032082Y011939D03*
X031282Y011139D03*
X031282Y010589D03*
X031282Y010039D03*
X031282Y009489D03*
X031382Y008289D03*
X031382Y007289D03*
X030482Y007289D03*
X028982Y007589D03*
X029382Y008489D03*
X029382Y010489D03*
X029532Y012589D03*
X028982Y012589D03*
X030082Y013589D03*
X031082Y013589D03*
X031882Y015339D03*
X031332Y015539D03*
X031682Y017489D03*
X030982Y017689D03*
X032082Y018389D03*
X032082Y019089D03*
X033482Y017889D03*
X033382Y016989D03*
X033882Y016089D03*
X033282Y013889D03*
X027485Y016292D03*
X026182Y015889D03*
X025782Y015489D03*
X025382Y015089D03*
X024982Y014689D03*
X023082Y015689D03*
X022532Y015489D03*
X024482Y016589D03*
X024482Y017189D03*
X025082Y016689D03*
X027453Y018261D03*
X030232Y019289D03*
X031282Y021189D03*
X030782Y021889D03*
X030082Y022489D03*
X028932Y021689D03*
X028732Y021089D03*
X026607Y021714D03*
X026232Y022089D03*
X027382Y023189D03*
X025882Y025189D03*
X022882Y027489D03*
X018362Y023999D03*
X017632Y023089D03*
X018402Y021879D03*
X017082Y021389D03*
X016282Y021189D03*
X017382Y019489D03*
X019882Y017489D03*
X020482Y017489D03*
X021782Y018389D03*
X021582Y019189D03*
X021332Y019739D03*
X021082Y020289D03*
X024082Y021589D03*
X024282Y020289D03*
X022182Y017589D03*
X019082Y013889D03*
X017182Y014889D03*
X017482Y016489D03*
X015682Y017089D03*
X009682Y013289D03*
X017282Y008989D03*
X017682Y008389D03*
X018082Y007989D03*
X018482Y007589D03*
X016682Y006889D03*
X016682Y006339D03*
X015132Y007439D03*
X014782Y005889D03*
X014082Y005889D03*
X012782Y005189D03*
X018482Y005389D03*
X019482Y005489D03*
X020482Y005489D03*
X021482Y005389D03*
X022482Y005389D03*
X023482Y005489D03*
X024482Y005489D03*
X025482Y005389D03*
X026482Y005389D03*
X027482Y005489D03*
X028482Y005489D03*
X029482Y005389D03*
X033582Y008089D03*
X038982Y006489D03*
X039482Y007089D03*
X039682Y005889D03*
X039482Y007989D03*
X042182Y009189D03*
X040782Y010289D03*
X040882Y010989D03*
X042682Y012389D03*
X043382Y013089D03*
X041982Y014189D03*
X042882Y015189D03*
X042282Y015789D03*
X042182Y017189D03*
X039882Y020389D03*
X037082Y019389D03*
X034682Y020189D03*
X033582Y021189D03*
X033582Y021889D03*
X034682Y022689D03*
X035782Y023189D03*
X036182Y024589D03*
X035382Y024889D03*
X036682Y025589D03*
X037882Y025089D03*
X038582Y025189D03*
X039582Y025089D03*
X038382Y027689D03*
X042682Y029189D03*
X043382Y029889D03*
X041782Y030789D03*
X042082Y032089D03*
X042682Y032489D03*
X042182Y033989D03*
X040882Y035189D03*
X040882Y035789D03*
X039882Y037189D03*
X041782Y038789D03*
X043382Y037889D03*
X042682Y037189D03*
X047582Y033089D03*
X048982Y031489D03*
X049882Y031489D03*
X052982Y033889D03*
X053582Y033889D03*
X053632Y034439D03*
X054607Y034689D03*
X054607Y034139D03*
X054482Y033489D03*
X054582Y032489D03*
X053982Y032089D03*
X054182Y030489D03*
X054382Y029689D03*
X052982Y028189D03*
X052482Y027889D03*
X053657Y026339D03*
X053482Y025789D03*
X052882Y025889D03*
X054482Y025489D03*
X054607Y026139D03*
X054607Y026689D03*
X054607Y027689D03*
X056107Y027139D03*
X056657Y027139D03*
X054582Y024489D03*
X053982Y024089D03*
X054582Y023689D03*
X053982Y023289D03*
X054182Y021689D03*
X054382Y020889D03*
X052982Y019389D03*
X052482Y019089D03*
X053657Y017539D03*
X053482Y016989D03*
X052882Y017089D03*
X053582Y015589D03*
X054082Y015189D03*
X054482Y016489D03*
X054607Y017339D03*
X054607Y017889D03*
X054607Y018889D03*
X056107Y018339D03*
X056657Y018339D03*
X057282Y021389D03*
X049882Y022689D03*
X048982Y022689D03*
X047582Y025089D03*
X048882Y027289D03*
X057282Y030189D03*
X056657Y035139D03*
X056107Y035139D03*
X054607Y035689D03*
X053082Y036189D03*
X052582Y035789D03*
X054482Y037789D03*
X054082Y038489D03*
X058082Y037789D03*
X049982Y039489D03*
X049082Y039489D03*
X048982Y035339D03*
X035182Y021489D03*
X032182Y020989D03*
X040082Y012989D03*
X047582Y016289D03*
X048882Y014689D03*
X049882Y014689D03*
X054182Y013689D03*
X054382Y012889D03*
X052982Y011389D03*
X052482Y011089D03*
X053657Y009539D03*
X053482Y008989D03*
X052882Y009089D03*
X054482Y008589D03*
X054607Y009339D03*
X054607Y009889D03*
X054607Y010889D03*
X056107Y010339D03*
X056657Y010339D03*
X056882Y013289D03*
X048782Y010489D03*
X047582Y008289D03*
X055482Y005489D03*
X048782Y018489D03*
X026382Y012789D03*
X026182Y012239D03*
X026532Y011489D03*
X024806Y012389D03*
X024182Y012489D03*
X026182Y010089D03*
X018082Y010589D03*
X011482Y022989D03*
X011482Y024889D03*
X011482Y025889D03*
X011482Y027889D03*
X011482Y029889D03*
X011482Y030889D03*
X011482Y031889D03*
X011482Y033889D03*
X011482Y034889D03*
X016982Y034289D03*
X017582Y034489D03*
X017582Y033889D03*
X016982Y033389D03*
X017782Y032889D03*
X017282Y032389D03*
X017182Y031389D03*
X016782Y030889D03*
X017082Y029989D03*
X017982Y030489D03*
X017882Y031489D03*
X018382Y031889D03*
X019482Y033089D03*
X019782Y034089D03*
X020682Y034389D03*
X019982Y035089D03*
X021482Y035089D03*
X022382Y034389D03*
X023082Y035189D03*
X024182Y034389D03*
X024982Y035189D03*
X025482Y038189D03*
X025382Y038789D03*
X018282Y034289D03*
X018082Y034889D03*
X017582Y035389D03*
X015782Y029889D03*
X017282Y028389D03*
X017382Y026389D03*
X015682Y025889D03*
X016112Y023719D03*
M02*
